M48
; DRILL file KiCad 10.0.0 date 2026-06-30T18:38:18
; FORMAT={-:-/ absolute / metric / decimal}
; #@! TF.CreationDate,2026-06-30T18:38:18+05:30
; #@! TF.GenerationSoftware,Kicad,Pcbnew,10.0.0
; #@! TF.FileFunction,Plated,1,2,PTH
FMAT,2
METRIC
; #@! TA.AperFunction,Plated,PTH,ViaDrill
T1C0.300
; #@! TA.AperFunction,Plated,PTH,ComponentDrill
T2C0.800
; #@! TA.AperFunction,Plated,PTH,ComponentDrill
T3C0.900
; #@! TA.AperFunction,Plated,PTH,ComponentDrill
T4C1.000
; #@! TA.AperFunction,Plated,PTH,ComponentDrill
T5C1.100
%
G90
G05
T1
X107.01Y-87.05
X109.41Y-79.81
X114.94Y-75.53
X115.05Y-67.05
X115.39Y-100.04
X116.19Y-87.16
X117.91Y-98.06
X119.32Y-68.0
X123.07Y-95.42
X124.285Y-98.485
X125.72Y-109.03
X125.75Y-88.65
X125.95Y-63.39
X127.47Y-111.81
X128.8Y-59.05
X129.24Y-98.82
X131.251Y-88.409
X135.06Y-92.18
X135.32Y-86.36
X135.54Y-83.16
X136.31Y-84.19
X142.55Y-107.66
X144.08Y-110.86
X144.5Y-85.15
X147.85Y-60.61
X148.11Y-56.27
X152.61Y-92.69
X156.65Y-99.2
X157.22Y-65.76
X161.07Y-99.89
X161.22Y-92.57
X161.52Y-71.51
X164.65Y-84.04
X167.66Y-85.98
T2
X121.297Y-76.9
X126.26Y-67.09
X126.26Y-69.09
X126.4Y-94.185
X126.4Y-101.805
X128.34Y-105.87
X128.94Y-94.185
X128.94Y-101.805
X131.457Y-76.9
X131.48Y-94.185
X131.48Y-101.805
X132.21Y-64.57
X132.21Y-72.19
X133.85Y-61.57
X134.02Y-94.185
X134.02Y-101.805
X134.75Y-64.57
X134.75Y-72.19
X135.437Y-77.865
X136.56Y-94.185
X136.56Y-101.805
X137.29Y-64.57
X137.29Y-72.19
X137.977Y-77.865
X138.5Y-105.87
X138.85Y-61.57
X139.1Y-94.185
X139.1Y-101.805
X139.83Y-64.57
X139.83Y-72.19
X140.517Y-77.865
X141.64Y-94.185
X141.64Y-101.805
X144.18Y-94.185
X144.18Y-101.805
T3
X107.404Y-91.185
X108.188Y-75.059
X108.188Y-93.6
X108.973Y-72.644
X117.032Y-107.107
X119.087Y-60.059
X119.087Y-108.6
X121.142Y-58.566
X134.18Y-114.33
X136.72Y-54.33
X136.72Y-114.33
X139.26Y-54.33
X152.299Y-110.093
X154.354Y-60.059
X154.354Y-108.6
X156.409Y-61.552
X164.467Y-96.016
X165.252Y-75.059
X165.252Y-93.6
X166.037Y-77.475
T4
X148.83Y-101.43
X153.81Y-74.435
X153.81Y-76.975
X153.84Y-68.305
X153.84Y-70.845
T5
X146.97Y-71.18
X146.97Y-73.72
X146.97Y-76.26
M30
