%TF.GenerationSoftware,KiCad,Pcbnew,10.0.0*%
%TF.CreationDate,2026-06-30T18:38:36+05:30*%
%TF.ProjectId,Blinky Board,426c696e-6b79-4204-926f-6172642e6b69,rev?*%
%TF.SameCoordinates,Original*%
%TF.FileFunction,Copper,L1,Top*%
%TF.FilePolarity,Positive*%
%FSLAX46Y46*%
G04 Gerber Fmt 4.6, Leading zero omitted, Abs format (unit mm)*
G04 Created by KiCad (PCBNEW 10.0.0) date 2026-06-30 18:38:36*
%MOMM*%
%LPD*%
G01*
G04 APERTURE LIST*
G04 Aperture macros list*
%AMRoundRect*
0 Rectangle with rounded corners*
0 $1 Rounding radius*
0 $2 $3 $4 $5 $6 $7 $8 $9 X,Y pos of 4 corners*
0 Add a 4 corners polygon primitive as box body*
4,1,4,$2,$3,$4,$5,$6,$7,$8,$9,$2,$3,0*
0 Add four circle primitives for the rounded corners*
1,1,$1+$1,$2,$3*
1,1,$1+$1,$4,$5*
1,1,$1+$1,$6,$7*
1,1,$1+$1,$8,$9*
0 Add four rect primitives between the rounded corners*
20,1,$1+$1,$2,$3,$4,$5,0*
20,1,$1+$1,$4,$5,$6,$7,0*
20,1,$1+$1,$6,$7,$8,$9,0*
20,1,$1+$1,$8,$9,$2,$3,0*%
%AMRotRect*
0 Rectangle, with rotation*
0 The origin of the aperture is its center*
0 $1 length*
0 $2 width*
0 $3 Rotation angle, in degrees counterclockwise*
0 Add horizontal line*
21,1,$1,$2,0,0,$3*%
G04 Aperture macros list end*
%TA.AperFunction,Conductor*%
%ADD10C,1.000000*%
%TD*%
%TA.AperFunction,ComponentPad*%
%ADD11C,1.700000*%
%TD*%
%TA.AperFunction,ComponentPad*%
%ADD12R,1.700000X1.700000*%
%TD*%
%TA.AperFunction,ComponentPad*%
%ADD13C,1.600000*%
%TD*%
%TA.AperFunction,ComponentPad*%
%ADD14RoundRect,0.250000X0.550000X-0.550000X0.550000X0.550000X-0.550000X0.550000X-0.550000X-0.550000X0*%
%TD*%
%TA.AperFunction,ComponentPad*%
%ADD15RoundRect,0.250000X-0.550000X0.550000X-0.550000X-0.550000X0.550000X-0.550000X0.550000X0.550000X0*%
%TD*%
%TA.AperFunction,ComponentPad*%
%ADD16C,1.440000*%
%TD*%
%TA.AperFunction,ComponentPad*%
%ADD17O,2.000000X1.905000*%
%TD*%
%TA.AperFunction,ComponentPad*%
%ADD18R,2.000000X1.905000*%
%TD*%
%TA.AperFunction,ComponentPad*%
%ADD19C,1.800000*%
%TD*%
%TA.AperFunction,ComponentPad*%
%ADD20R,1.800000X1.800000*%
%TD*%
%TA.AperFunction,ComponentPad*%
%ADD21RotRect,1.800000X1.800000X288.000000*%
%TD*%
%TA.AperFunction,ComponentPad*%
%ADD22RotRect,1.800000X1.800000X108.000000*%
%TD*%
%TA.AperFunction,ComponentPad*%
%ADD23RotRect,1.800000X1.800000X324.000000*%
%TD*%
%TA.AperFunction,ComponentPad*%
%ADD24RotRect,1.800000X1.800000X72.000000*%
%TD*%
%TA.AperFunction,ComponentPad*%
%ADD25RotRect,1.800000X1.800000X216.000000*%
%TD*%
%TA.AperFunction,ComponentPad*%
%ADD26RotRect,1.800000X1.800000X252.000000*%
%TD*%
%TA.AperFunction,ComponentPad*%
%ADD27RotRect,1.800000X1.800000X36.000000*%
%TD*%
%TA.AperFunction,ComponentPad*%
%ADD28RotRect,1.800000X1.800000X144.000000*%
%TD*%
%TA.AperFunction,ViaPad*%
%ADD29C,0.600000*%
%TD*%
%TA.AperFunction,Conductor*%
%ADD30C,0.200000*%
%TD*%
G04 APERTURE END LIST*
%TO.N,Net-(D1-K)*%
D10*
X169720174Y-84271035D02*
G75*
G02*
X103677424Y-84271035I-33021375J0D01*
G01*
X103677424Y-84271035D02*
G75*
G02*
X169720174Y-84271035I33021375J0D01*
G01*
%TD*%
D11*
%TO.P,J3,2,Pin_2_2*%
%TO.N,GND*%
X153810174Y-74434826D03*
D12*
%TO.P,J3,1,Pin_1_1*%
%TO.N,+9V*%
X153810174Y-76974826D03*
%TD*%
%TO.P,J2,1,Pin_1_1*%
%TO.N,/OUT*%
X148830174Y-101429826D03*
%TD*%
D13*
%TO.P,U1,8,VCC_8*%
%TO.N,+5V*%
X139830174Y-64569826D03*
%TO.P,U1,7,DISCH_7*%
%TO.N,/DIS*%
X137290174Y-64569826D03*
%TO.P,U1,6,THRES_6*%
%TO.N,/TR*%
X134750174Y-64569826D03*
%TO.P,U1,5,CONT_5*%
%TO.N,Net-(U1-CONT)*%
X132210174Y-64569826D03*
%TO.P,U1,4,~{RST}_4*%
%TO.N,+5V*%
X132210174Y-72189826D03*
%TO.P,U1,3,OUT_3*%
%TO.N,/OUT*%
X134750174Y-72189826D03*
%TO.P,U1,2,TRIG_2*%
%TO.N,/TR*%
X137290174Y-72189826D03*
D14*
%TO.P,U1,1,GND_1*%
%TO.N,GND*%
X139830174Y-72189826D03*
%TD*%
D13*
%TO.P,C1,2*%
%TO.N,GND*%
X126260174Y-69089826D03*
D15*
%TO.P,C1,1*%
%TO.N,/TR*%
X126260174Y-67089826D03*
%TD*%
D11*
%TO.P,J1,2,Pin_2_2*%
%TO.N,GND*%
X153840174Y-70844826D03*
D12*
%TO.P,J1,1,Pin_1_1*%
%TO.N,+5V*%
X153840174Y-68304826D03*
%TD*%
D13*
%TO.P,R1,2*%
%TO.N,GND*%
X128340174Y-105869826D03*
%TO.P,R1,1*%
%TO.N,Net-(D1-K)*%
X138500174Y-105869826D03*
%TD*%
D16*
%TO.P,RV1,3,3_3*%
%TO.N,/TR*%
X140516924Y-77864826D03*
%TO.P,RV1,2,2_2*%
%TO.N,/DIS*%
X137976924Y-77864826D03*
%TO.P,RV1,1,1_1*%
X135436924Y-77864826D03*
%TD*%
D17*
%TO.P,U2,3,VO_3*%
%TO.N,+5V*%
X146970174Y-71179826D03*
%TO.P,U2,2,GND_2*%
%TO.N,GND*%
X146970174Y-73719826D03*
D18*
%TO.P,U2,1,VI_1*%
%TO.N,+9V*%
X146970174Y-76259826D03*
%TD*%
D13*
%TO.P,R2,2*%
%TO.N,/DIS*%
X121296924Y-76899826D03*
%TO.P,R2,1*%
%TO.N,+5V*%
X131456924Y-76899826D03*
%TD*%
%TO.P,C2,2*%
%TO.N,Net-(U1-CONT)*%
X133850174Y-61569826D03*
%TO.P,C2,1*%
%TO.N,GND*%
X138850174Y-61569826D03*
%TD*%
D19*
%TO.P,D6,2,A_2*%
%TO.N,Net-(D6-A)*%
X134180175Y-114329826D03*
D20*
%TO.P,D6,1,K_1*%
%TO.N,Net-(D1-K)*%
X136720175Y-114329826D03*
%TD*%
D19*
%TO.P,D3,2,A_2*%
%TO.N,Net-(D3-A)*%
X166036773Y-77475000D03*
D21*
%TO.P,D3,1,K_1*%
%TO.N,Net-(D1-K)*%
X165251870Y-75059316D03*
%TD*%
D19*
%TO.P,D1,2,A_2*%
%TO.N,Net-(D1-A)*%
X139260175Y-54329826D03*
D20*
%TO.P,D1,1,K_1*%
%TO.N,Net-(D1-K)*%
X136720175Y-54329826D03*
%TD*%
D19*
%TO.P,D8,2,A_2*%
%TO.N,Net-(D8-A)*%
X107403576Y-91184651D03*
D22*
%TO.P,D8,1,K_1*%
%TO.N,Net-(D1-K)*%
X108188479Y-93600335D03*
%TD*%
D19*
%TO.P,D2,2,A_2*%
%TO.N,Net-(D2-A)*%
X156408635Y-61552291D03*
D23*
%TO.P,D2,1,K_1*%
%TO.N,Net-(D1-K)*%
X154353732Y-60059316D03*
%TD*%
D19*
%TO.P,D9,2,A_2*%
%TO.N,Net-(D9-A)*%
X108973382Y-72643632D03*
D24*
%TO.P,D9,1,K_1*%
%TO.N,Net-(D1-K)*%
X108188479Y-75059316D03*
%TD*%
D19*
%TO.P,D5,2,A_2*%
%TO.N,Net-(D5-A)*%
X152298829Y-110093310D03*
D25*
%TO.P,D5,1,K_1*%
%TO.N,Net-(D1-K)*%
X154353732Y-108600335D03*
%TD*%
D19*
%TO.P,D4,2,A_2*%
%TO.N,Net-(D4-A)*%
X164466967Y-96016019D03*
D26*
%TO.P,D4,1,K_1*%
%TO.N,Net-(D1-K)*%
X165251870Y-93600335D03*
%TD*%
D19*
%TO.P,D10,2,A_2*%
%TO.N,Net-(D10-A)*%
X121141520Y-58566341D03*
D27*
%TO.P,D10,1,K_1*%
%TO.N,Net-(D1-K)*%
X119086617Y-60059316D03*
%TD*%
D19*
%TO.P,D7,2,A_2*%
%TO.N,Net-(D7-A)*%
X117031714Y-107107360D03*
D28*
%TO.P,D7,1,K_1*%
%TO.N,Net-(D1-K)*%
X119086617Y-108600335D03*
%TD*%
D13*
%TO.P,U3,16,VDD_16*%
%TO.N,+5V*%
X126400174Y-101804826D03*
%TO.P,U3,15,Reset_15*%
%TO.N,GND*%
X128940174Y-101804826D03*
%TO.P,U3,14,CLK_14*%
%TO.N,/OUT*%
X131480174Y-101804826D03*
%TO.P,U3,13,CKEN_13*%
%TO.N,GND*%
X134020174Y-101804826D03*
%TO.P,U3,12,Cout_12*%
%TO.N,unconnected-(U3-Cout-Pad12)*%
X136560174Y-101804826D03*
%TO.P,U3,11,Q9_11*%
%TO.N,Net-(D10-A)*%
X139100174Y-101804826D03*
%TO.P,U3,10,Q4_10*%
%TO.N,Net-(D5-A)*%
X141640174Y-101804826D03*
%TO.P,U3,9,Q8_9*%
%TO.N,Net-(D9-A)*%
X144180174Y-101804826D03*
%TO.P,U3,8,VSS_8*%
%TO.N,GND*%
X144180174Y-94184826D03*
%TO.P,U3,7,Q3_7*%
%TO.N,Net-(D4-A)*%
X141640174Y-94184826D03*
%TO.P,U3,6,Q7_6*%
%TO.N,Net-(D8-A)*%
X139100174Y-94184826D03*
%TO.P,U3,5,Q6_5*%
%TO.N,Net-(D7-A)*%
X136560174Y-94184826D03*
%TO.P,U3,4,Q2_4*%
%TO.N,Net-(D3-A)*%
X134020174Y-94184826D03*
%TO.P,U3,3,Q0_3*%
%TO.N,Net-(D1-A)*%
X131480174Y-94184826D03*
%TO.P,U3,2,Q1_2*%
%TO.N,Net-(D2-A)*%
X128940174Y-94184826D03*
D15*
%TO.P,U3,1,Q5_1*%
%TO.N,Net-(D6-A)*%
X126400174Y-94184826D03*
%TD*%
D29*
%TO.N,GND*%
X125720174Y-109029826D03*
X119320174Y-67999826D03*
X109410174Y-79809826D03*
X164650174Y-84039826D03*
X161520174Y-71509826D03*
X136310174Y-84189826D03*
X114940174Y-75529826D03*
X148110174Y-56269826D03*
X127470174Y-111809826D03*
X152610174Y-92689826D03*
X125750174Y-88649826D03*
X161220174Y-92569826D03*
X117910174Y-98059826D03*
X128800174Y-59049826D03*
X125950174Y-63389826D03*
X115390174Y-100039826D03*
X135320174Y-86359826D03*
X156650174Y-99199826D03*
X135540174Y-83159826D03*
X167660174Y-85979826D03*
X107010174Y-87049826D03*
X161070174Y-99889826D03*
X157220174Y-65759826D03*
X116190174Y-87159826D03*
X147850174Y-60609826D03*
%TO.N,+5V*%
X124285174Y-98484826D03*
%TO.N,/OUT*%
X144500174Y-85149826D03*
%TO.N,Net-(D10-A)*%
X131250732Y-88409268D03*
%TO.N,Net-(D2-A)*%
X135060174Y-92179826D03*
%TO.N,Net-(D9-A)*%
X123070174Y-95419826D03*
X129240174Y-98819826D03*
%TO.N,GND*%
X144080174Y-110859826D03*
X142550174Y-107659826D03*
X115050174Y-67049826D03*
%TD*%
%TO.N,Net-(D1-K)*%
D30*
X107773382Y-67476618D02*
X111240174Y-64009826D01*
X108188479Y-75059316D02*
X103677424Y-79570371D01*
X154353732Y-57733384D02*
X151030174Y-54409826D01*
X169720174Y-78139826D02*
X166639664Y-75059316D01*
X136720175Y-117271034D02*
X136698799Y-117292410D01*
X169720174Y-89132031D02*
X169720174Y-78139826D01*
X136720175Y-114329826D02*
X136720175Y-114239825D01*
X103677424Y-89155556D02*
X108122203Y-93600335D01*
X117090174Y-110596778D02*
X117090174Y-110659826D01*
X138500174Y-112459826D02*
X138500174Y-105869826D01*
X108188479Y-75059316D02*
X107773382Y-74644219D01*
X111240174Y-62969826D02*
X114150684Y-60059316D01*
X154353732Y-60059316D02*
X154353732Y-57733384D01*
X108122203Y-93600335D02*
X108188479Y-93600335D01*
X107773382Y-74644219D02*
X107773382Y-67476618D01*
X136720175Y-51271036D02*
X136698799Y-51249660D01*
%TO.N,/DIS*%
X137976924Y-77864826D02*
X135436924Y-77864826D01*
X122981923Y-78584825D02*
X121296924Y-76899826D01*
X134716925Y-78584825D02*
X122981923Y-78584825D01*
X135436924Y-77864826D02*
X134716925Y-78584825D01*
%TO.N,/TR*%
X126260174Y-67089826D02*
X132230174Y-67089826D01*
X132230174Y-67089826D02*
X134750174Y-64569826D01*
X140516924Y-77864826D02*
X140516924Y-75416576D01*
X140516924Y-75416576D02*
X137290174Y-72189826D01*
%TO.N,/OUT*%
X131480174Y-101804826D02*
X132580174Y-102904826D01*
X132580174Y-102904826D02*
X147355174Y-102904826D01*
X144500174Y-85149826D02*
X138996924Y-79646576D01*
X138996924Y-76436576D02*
X134750174Y-72189826D01*
X138996924Y-79646576D02*
X138996924Y-76436576D01*
X147355174Y-102904826D02*
X148830174Y-101429826D01*
%TO.N,+5V*%
X124165174Y-99569826D02*
X126400174Y-101804826D01*
X124285174Y-98484826D02*
X124165174Y-98604826D01*
X132210174Y-72189826D02*
X139830174Y-64569826D01*
X131456924Y-72943076D02*
X132210174Y-72189826D01*
X131456924Y-76899826D02*
X131456924Y-72943076D01*
X144500174Y-64569826D02*
X146970174Y-67039826D01*
X126400174Y-101804826D02*
X125436645Y-101804826D01*
%TO.N,Net-(U1-CONT)*%
X132210174Y-64569826D02*
X132210174Y-63209826D01*
%TO.N,+5V*%
X153840174Y-68304826D02*
X146970174Y-68304826D01*
X146970174Y-67039826D02*
X146970174Y-71179826D01*
X146970174Y-68304826D02*
X146970174Y-71179826D01*
X139830174Y-64569826D02*
X144500174Y-64569826D01*
X124165174Y-98604826D02*
X124165174Y-99569826D01*
%TO.N,+9V*%
X153095174Y-76259826D02*
X153810174Y-76974826D01*
X146970174Y-76259826D02*
X153095174Y-76259826D01*
%TO.N,Net-(U1-CONT)*%
X132210174Y-63209826D02*
X133850174Y-61569826D01*
%TO.N,GND*%
X153095174Y-73719826D02*
X153810174Y-74434826D01*
X145440174Y-72189826D02*
X146970174Y-73719826D01*
X138394539Y-61569826D02*
X135850174Y-64114191D01*
X138850174Y-61569826D02*
X138394539Y-61569826D01*
X131785809Y-69089826D02*
X126260174Y-69089826D01*
X139830174Y-72189826D02*
X145440174Y-72189826D01*
X153810174Y-70874826D02*
X153840174Y-70844826D01*
X135850174Y-64114191D02*
X135850174Y-65025461D01*
X128940174Y-101804826D02*
X128940174Y-105269826D01*
X146970174Y-73719826D02*
X153095174Y-73719826D01*
X128940174Y-105269826D02*
X128340174Y-105869826D01*
X135850174Y-65025461D02*
X131785809Y-69089826D01*
X153810174Y-74434826D02*
X153810174Y-70874826D01*
%TO.N,Net-(D6-A)*%
X130040174Y-110189825D02*
X130040174Y-98699826D01*
X130040174Y-98699826D02*
X126400174Y-95059826D01*
X126400174Y-95059826D02*
X126400174Y-94184826D01*
X134180175Y-114329826D02*
X130040174Y-110189825D01*
%TO.N,Net-(D9-A)*%
X128280860Y-97860512D02*
X129240174Y-98819826D01*
%TO.N,Net-(D2-A)*%
X135060174Y-92179826D02*
X130945174Y-92179826D01*
X130945174Y-92179826D02*
X128940174Y-94184826D01*
%TO.N,Net-(D8-A)*%
X107403576Y-91184651D02*
X136099999Y-91184651D01*
X136099999Y-91184651D02*
X139100174Y-94184826D01*
%TO.N,Net-(D4-A)*%
X164466967Y-96016019D02*
X143471367Y-96016019D01*
X143471367Y-96016019D02*
X141640174Y-94184826D01*
%TO.N,Net-(D10-A)*%
X125998703Y-88049826D02*
X125998703Y-86928355D01*
X137255634Y-90784651D02*
X140200174Y-93729191D01*
X121141520Y-63469826D02*
X121141520Y-58566341D01*
X126350174Y-88401297D02*
X125998703Y-88049826D01*
X140200174Y-100704826D02*
X139100174Y-101804826D01*
X125998703Y-86928355D02*
X116710174Y-77639826D01*
X116710174Y-67901172D02*
X121141520Y-63469826D01*
X116710174Y-77639826D02*
X116710174Y-67901172D01*
X126350174Y-88409268D02*
X126350174Y-88401297D01*
X131250732Y-88409268D02*
X126350174Y-88409268D01*
X131250732Y-88409268D02*
X133626114Y-90784651D01*
X140200174Y-93729191D02*
X140200174Y-100704826D01*
X133626114Y-90784651D02*
X137255634Y-90784651D01*
%TO.N,Net-(D1-K)*%
X158259665Y-108600335D02*
X154353732Y-108600335D01*
%TO.N,Net-(D9-A)*%
X123070174Y-95419826D02*
X123070174Y-97131198D01*
X123799488Y-97860512D02*
X128280860Y-97860512D01*
X123070174Y-97131198D02*
X123799488Y-97860512D01*
%TO.N,Net-(D1-K)*%
X158839665Y-108600335D02*
X159550174Y-107889826D01*
X114150684Y-60059316D02*
X119086617Y-60059316D01*
X136720175Y-54329826D02*
X136720175Y-51271036D01*
X118210174Y-111779826D02*
X118240174Y-111779826D01*
X103677424Y-79570371D02*
X103677424Y-89155556D01*
X154353732Y-108600335D02*
X158839665Y-108600335D01*
X166510174Y-94858639D02*
X166510174Y-100349826D01*
X136720175Y-114329826D02*
X136720175Y-117271034D01*
X165251870Y-93600335D02*
X169720174Y-89132031D01*
X165251870Y-93600335D02*
X166510174Y-94858639D01*
X111240174Y-64009826D02*
X111240174Y-62969826D01*
X166639664Y-75059316D02*
X165251870Y-75059316D01*
X119086617Y-108600335D02*
X117090174Y-110596778D01*
X136720175Y-114239825D02*
X138500174Y-112459826D01*
X166510174Y-100349826D02*
X158259665Y-108600335D01*
X117090174Y-110659826D02*
X118210174Y-111779826D01*
%TD*%
%TA.AperFunction,Conductor*%
%TO.N,GND*%
G36*
X130258290Y-91804836D02*
G01*
X130304045Y-91857640D01*
X130313989Y-91926798D01*
X130284964Y-91990354D01*
X130278932Y-91996832D01*
X129385016Y-92890747D01*
X129323693Y-92924232D01*
X129259022Y-92920999D01*
X129244708Y-92916348D01*
X129070169Y-92888704D01*
X129042526Y-92884326D01*
X128837822Y-92884326D01*
X128813503Y-92888177D01*
X128635639Y-92916348D01*
X128440950Y-92979607D01*
X128258560Y-93072541D01*
X128092960Y-93192854D01*
X127948206Y-93337608D01*
X127948202Y-93337613D01*
X127880152Y-93431277D01*
X127824822Y-93473943D01*
X127755209Y-93479922D01*
X127693414Y-93447316D01*
X127662128Y-93397396D01*
X127642318Y-93337613D01*
X127634988Y-93315492D01*
X127542886Y-93166170D01*
X127418830Y-93042114D01*
X127318655Y-92980326D01*
X127269510Y-92950013D01*
X127269505Y-92950011D01*
X127268036Y-92949524D01*
X127102971Y-92894827D01*
X127102969Y-92894826D01*
X127000184Y-92884326D01*
X125800172Y-92884326D01*
X125800155Y-92884327D01*
X125697377Y-92894826D01*
X125697374Y-92894827D01*
X125530842Y-92950011D01*
X125530837Y-92950013D01*
X125381516Y-93042115D01*
X125257463Y-93166168D01*
X125165361Y-93315489D01*
X125165360Y-93315492D01*
X125110175Y-93482029D01*
X125110175Y-93482030D01*
X125110174Y-93482030D01*
X125099674Y-93584809D01*
X125099674Y-94784827D01*
X125099675Y-94784844D01*
X125110174Y-94887622D01*
X125110175Y-94887625D01*
X125125739Y-94934593D01*
X125165360Y-95054160D01*
X125257462Y-95203482D01*
X125381518Y-95327538D01*
X125530840Y-95419640D01*
X125697377Y-95474825D01*
X125800165Y-95485326D01*
X125925074Y-95485325D01*
X125992114Y-95505009D01*
X126012749Y-95521637D01*
X126031458Y-95540346D01*
X126031460Y-95540347D01*
X126038529Y-95547416D01*
X127539444Y-97048331D01*
X127572929Y-97109654D01*
X127567945Y-97179346D01*
X127526073Y-97235279D01*
X127460609Y-97259696D01*
X127451763Y-97260012D01*
X124099586Y-97260012D01*
X124032547Y-97240327D01*
X124011905Y-97223693D01*
X123706993Y-96918781D01*
X123673508Y-96857458D01*
X123670674Y-96831100D01*
X123670674Y-95999591D01*
X123690359Y-95932552D01*
X123691572Y-95930700D01*
X123779564Y-95799011D01*
X123779564Y-95799010D01*
X123779568Y-95799005D01*
X123839911Y-95653323D01*
X123870674Y-95498668D01*
X123870674Y-95340984D01*
X123870674Y-95340981D01*
X123870673Y-95340979D01*
X123863340Y-95304116D01*
X123839911Y-95186329D01*
X123805666Y-95103654D01*
X123779571Y-95040653D01*
X123779564Y-95040640D01*
X123691963Y-94909537D01*
X123691960Y-94909533D01*
X123580466Y-94798039D01*
X123580462Y-94798036D01*
X123449359Y-94710435D01*
X123449346Y-94710428D01*
X123303675Y-94650090D01*
X123303663Y-94650087D01*
X123149019Y-94619326D01*
X123149016Y-94619326D01*
X122991332Y-94619326D01*
X122991329Y-94619326D01*
X122836684Y-94650087D01*
X122836672Y-94650090D01*
X122691001Y-94710428D01*
X122690988Y-94710435D01*
X122559885Y-94798036D01*
X122559881Y-94798039D01*
X122448387Y-94909533D01*
X122448384Y-94909537D01*
X122360783Y-95040640D01*
X122360776Y-95040653D01*
X122300438Y-95186324D01*
X122300435Y-95186336D01*
X122269674Y-95340979D01*
X122269674Y-95498672D01*
X122300435Y-95653315D01*
X122300438Y-95653327D01*
X122360776Y-95798998D01*
X122360783Y-95799011D01*
X122448776Y-95930700D01*
X122469654Y-95997377D01*
X122469674Y-95999591D01*
X122469674Y-97044528D01*
X122469673Y-97044546D01*
X122469673Y-97210252D01*
X122469672Y-97210252D01*
X122491722Y-97292541D01*
X122510597Y-97362983D01*
X122535570Y-97406237D01*
X122539532Y-97413098D01*
X122539533Y-97413102D01*
X122539534Y-97413102D01*
X122589653Y-97499912D01*
X122589655Y-97499915D01*
X122708523Y-97618783D01*
X122708528Y-97618787D01*
X123430772Y-98341032D01*
X123430774Y-98341033D01*
X123436160Y-98345166D01*
X123477363Y-98401594D01*
X123484674Y-98443542D01*
X123484674Y-98563672D01*
X123515435Y-98718315D01*
X123515437Y-98718323D01*
X123555235Y-98814404D01*
X123564674Y-98861857D01*
X123564674Y-99483156D01*
X123564673Y-99483174D01*
X123564673Y-99648880D01*
X123564672Y-99648880D01*
X123605597Y-99801611D01*
X123634532Y-99851726D01*
X123634533Y-99851730D01*
X123634534Y-99851730D01*
X123684653Y-99938540D01*
X123684655Y-99938543D01*
X123803523Y-100057411D01*
X123803529Y-100057416D01*
X124981493Y-101235380D01*
X125014978Y-101296703D01*
X125009994Y-101366395D01*
X124981493Y-101410742D01*
X124956126Y-101436108D01*
X124956120Y-101436116D01*
X124877071Y-101573035D01*
X124877068Y-101573042D01*
X124836145Y-101725769D01*
X124836145Y-101883883D01*
X124856332Y-101959220D01*
X124877068Y-102036609D01*
X124877071Y-102036616D01*
X124956120Y-102173535D01*
X124956124Y-102173540D01*
X124956125Y-102173542D01*
X125067929Y-102285346D01*
X125067930Y-102285347D01*
X125067932Y-102285348D01*
X125202586Y-102363090D01*
X125250801Y-102413657D01*
X125251070Y-102414181D01*
X125287887Y-102486437D01*
X125408202Y-102652039D01*
X125552960Y-102796797D01*
X125673400Y-102884300D01*
X125718564Y-102917113D01*
X125826235Y-102971974D01*
X125900950Y-103010044D01*
X125900952Y-103010044D01*
X125900955Y-103010046D01*
X125951620Y-103026508D01*
X126095639Y-103073303D01*
X126196731Y-103089314D01*
X126297822Y-103105326D01*
X126297823Y-103105326D01*
X126502525Y-103105326D01*
X126502526Y-103105326D01*
X126704708Y-103073303D01*
X126899393Y-103010046D01*
X127081784Y-102917113D01*
X127220069Y-102816644D01*
X127247387Y-102796797D01*
X127247389Y-102796794D01*
X127247393Y-102796792D01*
X127392140Y-102652045D01*
X127392142Y-102652041D01*
X127392145Y-102652039D01*
X127486508Y-102522157D01*
X127512461Y-102486436D01*
X127559969Y-102393195D01*
X127607943Y-102342399D01*
X127675764Y-102325604D01*
X127741899Y-102348141D01*
X127780939Y-102393195D01*
X127828315Y-102486176D01*
X127828321Y-102486185D01*
X127860697Y-102530747D01*
X127860698Y-102530748D01*
X128540174Y-101851272D01*
X128540174Y-101857487D01*
X128567433Y-101959220D01*
X128620094Y-102050432D01*
X128694568Y-102124906D01*
X128785780Y-102177567D01*
X128887513Y-102204826D01*
X128893726Y-102204826D01*
X128214250Y-102884300D01*
X128258824Y-102916685D01*
X128441142Y-103009581D01*
X128635756Y-103072816D01*
X128837857Y-103104826D01*
X129042491Y-103104826D01*
X129244592Y-103072815D01*
X129244598Y-103072814D01*
X129277354Y-103062171D01*
X129347195Y-103060174D01*
X129407029Y-103096254D01*
X129437858Y-103158954D01*
X129439674Y-103180101D01*
X129439674Y-105072516D01*
X129419989Y-105139555D01*
X129403355Y-105160197D01*
X128740174Y-105823378D01*
X128740174Y-105817165D01*
X128712915Y-105715432D01*
X128660254Y-105624220D01*
X128585780Y-105549746D01*
X128494568Y-105497085D01*
X128392835Y-105469826D01*
X128386620Y-105469826D01*
X129066096Y-104790350D01*
X129066095Y-104790349D01*
X129021533Y-104757973D01*
X129021524Y-104757967D01*
X128839205Y-104665070D01*
X128644591Y-104601835D01*
X128442491Y-104569826D01*
X128237857Y-104569826D01*
X128035756Y-104601835D01*
X127841142Y-104665070D01*
X127658818Y-104757969D01*
X127614251Y-104790349D01*
X127614251Y-104790350D01*
X128293728Y-105469826D01*
X128287513Y-105469826D01*
X128185780Y-105497085D01*
X128094568Y-105549746D01*
X128020094Y-105624220D01*
X127967433Y-105715432D01*
X127940174Y-105817165D01*
X127940174Y-105823379D01*
X127260698Y-105143903D01*
X127260697Y-105143903D01*
X127228317Y-105188470D01*
X127135418Y-105370794D01*
X127072183Y-105565408D01*
X127040174Y-105767508D01*
X127040174Y-105972143D01*
X127072183Y-106174243D01*
X127135418Y-106368857D01*
X127228315Y-106551176D01*
X127228321Y-106551185D01*
X127260697Y-106595747D01*
X127260698Y-106595748D01*
X127940174Y-105916272D01*
X127940174Y-105922487D01*
X127967433Y-106024220D01*
X128020094Y-106115432D01*
X128094568Y-106189906D01*
X128185780Y-106242567D01*
X128287513Y-106269826D01*
X128293727Y-106269826D01*
X127614250Y-106949300D01*
X127658824Y-106981685D01*
X127841142Y-107074581D01*
X128035756Y-107137816D01*
X128237857Y-107169826D01*
X128442491Y-107169826D01*
X128644591Y-107137816D01*
X128839205Y-107074581D01*
X129021523Y-106981685D01*
X129066095Y-106949300D01*
X128386621Y-106269826D01*
X128392835Y-106269826D01*
X128494568Y-106242567D01*
X128585780Y-106189906D01*
X128660254Y-106115432D01*
X128712915Y-106024220D01*
X128740174Y-105922487D01*
X128740174Y-105916273D01*
X129403355Y-106579454D01*
X129436840Y-106640777D01*
X129439674Y-106667135D01*
X129439674Y-110103155D01*
X129439673Y-110103173D01*
X129439673Y-110268879D01*
X129439672Y-110268879D01*
X129480597Y-110421610D01*
X129484310Y-110428041D01*
X129559651Y-110558537D01*
X129559655Y-110558542D01*
X129678523Y-110677410D01*
X129678529Y-110677415D01*
X132806736Y-113805622D01*
X132840221Y-113866945D01*
X132836986Y-113931620D01*
X132814160Y-114001871D01*
X132779675Y-114219604D01*
X132779675Y-114440047D01*
X132814160Y-114657778D01*
X132882278Y-114867429D01*
X132882279Y-114867432D01*
X132982362Y-115063851D01*
X133111927Y-115242184D01*
X133111931Y-115242189D01*
X133267811Y-115398069D01*
X133267816Y-115398073D01*
X133423367Y-115511086D01*
X133446153Y-115527641D01*
X133574550Y-115593063D01*
X133642568Y-115627721D01*
X133642571Y-115627722D01*
X133747396Y-115661781D01*
X133852224Y-115695841D01*
X134069953Y-115730326D01*
X134069954Y-115730326D01*
X134290396Y-115730326D01*
X134290397Y-115730326D01*
X134508126Y-115695841D01*
X134717781Y-115627721D01*
X134914197Y-115527641D01*
X135092540Y-115398068D01*
X135142711Y-115347896D01*
X135204032Y-115314412D01*
X135273723Y-115319396D01*
X135329657Y-115361267D01*
X135346573Y-115392245D01*
X135376377Y-115472154D01*
X135376381Y-115472161D01*
X135462627Y-115587370D01*
X135462630Y-115587373D01*
X135577839Y-115673619D01*
X135577846Y-115673623D01*
X135622793Y-115690387D01*
X135712692Y-115723917D01*
X135772302Y-115730326D01*
X135995675Y-115730325D01*
X136062714Y-115750009D01*
X136108469Y-115802813D01*
X136119675Y-115854325D01*
X136119675Y-116157826D01*
X136099990Y-116224865D01*
X136047186Y-116270620D01*
X135991442Y-116281754D01*
X135061464Y-116249985D01*
X135057235Y-116249768D01*
X133970630Y-116175442D01*
X133966411Y-116175081D01*
X132882963Y-116063700D01*
X132878759Y-116063195D01*
X131799755Y-115914889D01*
X131795571Y-115914241D01*
X130722244Y-115729180D01*
X130718084Y-115728389D01*
X129651724Y-115506797D01*
X129647594Y-115505865D01*
X129509289Y-115472161D01*
X128589418Y-115247995D01*
X128585326Y-115246924D01*
X127536542Y-114953068D01*
X127532485Y-114951856D01*
X126494357Y-114622369D01*
X126490344Y-114621019D01*
X125464113Y-114256297D01*
X125460148Y-114254811D01*
X124446895Y-113855235D01*
X124442983Y-113853615D01*
X123444011Y-113419700D01*
X123440157Y-113417947D01*
X122456584Y-112950181D01*
X122452792Y-112948298D01*
X121485742Y-112447213D01*
X121482016Y-112445201D01*
X120532630Y-111911388D01*
X120528976Y-111909250D01*
X119598409Y-111343359D01*
X119594829Y-111341098D01*
X118684066Y-110743729D01*
X118680566Y-110741346D01*
X118281611Y-110459732D01*
X118238193Y-110404990D01*
X118231264Y-110335465D01*
X118263023Y-110273230D01*
X118265402Y-110270783D01*
X118500955Y-110035230D01*
X118562276Y-110001747D01*
X118631968Y-110006731D01*
X118661513Y-110022591D01*
X119030269Y-110290508D01*
X119030280Y-110290514D01*
X119030281Y-110290515D01*
X119082258Y-110320361D01*
X119082262Y-110320362D01*
X119220919Y-110358934D01*
X119220921Y-110358933D01*
X119220922Y-110358934D01*
X119274884Y-110358163D01*
X119364826Y-110356878D01*
X119502325Y-110314364D01*
X119622277Y-110234832D01*
X119662500Y-110190374D01*
X120776790Y-108656683D01*
X120799311Y-108617461D01*
X120806643Y-108604693D01*
X120822357Y-108548204D01*
X120845216Y-108466033D01*
X120843160Y-108322126D01*
X120800646Y-108184627D01*
X120721114Y-108064675D01*
X120676656Y-108024452D01*
X120676653Y-108024449D01*
X119269864Y-107002359D01*
X119142981Y-106910173D01*
X119142972Y-106910167D01*
X119142965Y-106910162D01*
X119142958Y-106910158D01*
X119142952Y-106910154D01*
X119090975Y-106880308D01*
X118952315Y-106841736D01*
X118952311Y-106841735D01*
X118808412Y-106843791D01*
X118808411Y-106843791D01*
X118670909Y-106886306D01*
X118599823Y-106933438D01*
X118533071Y-106954077D01*
X118465758Y-106935352D01*
X118419254Y-106883206D01*
X118408828Y-106849487D01*
X118407600Y-106841736D01*
X118397729Y-106779409D01*
X118397729Y-106779408D01*
X118329610Y-106569756D01*
X118329609Y-106569753D01*
X118294951Y-106501735D01*
X118229529Y-106373338D01*
X118134519Y-106242567D01*
X118099961Y-106195001D01*
X118099957Y-106194996D01*
X117944077Y-106039116D01*
X117944072Y-106039112D01*
X117765739Y-105909547D01*
X117765738Y-105909546D01*
X117765736Y-105909545D01*
X117694261Y-105873126D01*
X117694260Y-105873125D01*
X117569325Y-105809466D01*
X117569317Y-105809463D01*
X117359666Y-105741345D01*
X117196057Y-105715432D01*
X117141936Y-105706860D01*
X116921492Y-105706860D01*
X116867371Y-105715432D01*
X116703761Y-105741345D01*
X116494110Y-105809463D01*
X116494107Y-105809464D01*
X116297688Y-105909547D01*
X116119355Y-106039112D01*
X116119350Y-106039116D01*
X115963470Y-106194996D01*
X115963466Y-106195001D01*
X115833901Y-106373334D01*
X115733818Y-106569753D01*
X115733817Y-106569756D01*
X115665699Y-106779407D01*
X115631214Y-106997138D01*
X115631214Y-107217581D01*
X115665699Y-107435312D01*
X115733817Y-107644963D01*
X115733818Y-107644966D01*
X115833901Y-107841385D01*
X115963466Y-108019718D01*
X115963470Y-108019723D01*
X116119350Y-108175603D01*
X116119355Y-108175607D01*
X116274906Y-108288620D01*
X116297692Y-108305175D01*
X116426089Y-108370597D01*
X116494107Y-108405255D01*
X116494110Y-108405256D01*
X116588462Y-108435912D01*
X116703763Y-108473375D01*
X116921492Y-108507860D01*
X116921493Y-108507860D01*
X117141934Y-108507860D01*
X117141936Y-108507860D01*
X117212015Y-108496760D01*
X117281307Y-108505714D01*
X117334759Y-108550710D01*
X117355399Y-108617461D01*
X117350876Y-108652465D01*
X117328018Y-108734634D01*
X117328017Y-108734640D01*
X117330073Y-108878539D01*
X117330073Y-108878540D01*
X117372588Y-109016043D01*
X117452119Y-109135993D01*
X117452118Y-109135993D01*
X117486497Y-109167097D01*
X117523003Y-109226672D01*
X117521505Y-109296525D01*
X117490985Y-109346729D01*
X117260734Y-109576980D01*
X117199411Y-109610465D01*
X117129719Y-109605481D01*
X117098128Y-109588103D01*
X116919519Y-109452659D01*
X116916189Y-109450043D01*
X116071313Y-108762685D01*
X116068075Y-108759957D01*
X115247197Y-108044189D01*
X115244053Y-108041353D01*
X114448020Y-107297911D01*
X114444976Y-107294968D01*
X113674865Y-106524857D01*
X113671922Y-106521813D01*
X112928480Y-105725780D01*
X112925644Y-105722636D01*
X112225002Y-104919105D01*
X112225000Y-104919103D01*
X112209857Y-104901737D01*
X112207148Y-104898520D01*
X111519790Y-104053644D01*
X111517174Y-104050314D01*
X111050919Y-103435465D01*
X110859048Y-103182444D01*
X110856561Y-103179045D01*
X110842379Y-103158954D01*
X110228482Y-102289260D01*
X110226104Y-102285767D01*
X110225365Y-102284641D01*
X109654125Y-101413714D01*
X109628735Y-101375004D01*
X109626474Y-101371424D01*
X109060583Y-100440857D01*
X109058445Y-100437203D01*
X108615193Y-99648880D01*
X108524625Y-99487805D01*
X108522620Y-99484091D01*
X108500609Y-99441612D01*
X108021524Y-98517020D01*
X108019652Y-98513249D01*
X107998149Y-98468035D01*
X107551886Y-97529676D01*
X107550133Y-97525822D01*
X107116218Y-96526850D01*
X107114598Y-96522938D01*
X106715022Y-95509685D01*
X106713551Y-95505761D01*
X106348808Y-94479473D01*
X106347464Y-94475476D01*
X106330741Y-94422787D01*
X106017975Y-93437344D01*
X106016765Y-93433291D01*
X105983759Y-93315492D01*
X105722897Y-92384462D01*
X105721837Y-92380409D01*
X105719898Y-92372450D01*
X105723157Y-92302657D01*
X105763633Y-92245705D01*
X105828473Y-92219677D01*
X105897092Y-92232836D01*
X105928053Y-92255421D01*
X106231631Y-92558998D01*
X106520737Y-92848104D01*
X106554222Y-92909427D01*
X106556941Y-92941093D01*
X106551290Y-93072960D01*
X106551292Y-93072969D01*
X106563615Y-93131632D01*
X106563615Y-93131633D01*
X107149432Y-94934588D01*
X107149434Y-94934593D01*
X107173949Y-94989306D01*
X107263454Y-95102013D01*
X107381083Y-95184934D01*
X107381089Y-95184937D01*
X107517306Y-95231359D01*
X107517307Y-95231359D01*
X107517313Y-95231361D01*
X107661104Y-95237524D01*
X107719777Y-95225199D01*
X109522737Y-94639380D01*
X109577450Y-94614865D01*
X109690156Y-94525361D01*
X109773079Y-94407729D01*
X109819505Y-94271501D01*
X109825668Y-94127710D01*
X109813343Y-94069037D01*
X109227524Y-92266077D01*
X109203009Y-92211364D01*
X109113505Y-92098658D01*
X109113504Y-92098657D01*
X109113503Y-92098656D01*
X108988625Y-92010625D01*
X108990763Y-92007590D01*
X108952701Y-91971604D01*
X108935942Y-91903774D01*
X108958515Y-91837651D01*
X109013253Y-91794229D01*
X109059825Y-91785151D01*
X130191251Y-91785151D01*
X130258290Y-91804836D01*
G37*
%TD.AperFunction*%
%TA.AperFunction,Conductor*%
G36*
X140945662Y-95297334D02*
G01*
X140947562Y-95297144D01*
X140980532Y-95308306D01*
X141140955Y-95390046D01*
X141249062Y-95425172D01*
X141335639Y-95453303D01*
X141436731Y-95469314D01*
X141537822Y-95485326D01*
X141537823Y-95485326D01*
X141742525Y-95485326D01*
X141742526Y-95485326D01*
X141944708Y-95453303D01*
X141959016Y-95448653D01*
X142028856Y-95446657D01*
X142085016Y-95478903D01*
X142986506Y-96380393D01*
X142986516Y-96380404D01*
X143102652Y-96496540D01*
X143132233Y-96513618D01*
X143161815Y-96530697D01*
X143239582Y-96575596D01*
X143392310Y-96616520D01*
X143392313Y-96616520D01*
X143558020Y-96616520D01*
X143558036Y-96616519D01*
X163125131Y-96616519D01*
X163192170Y-96636204D01*
X163235615Y-96684223D01*
X163269152Y-96750042D01*
X163398719Y-96928377D01*
X163398723Y-96928382D01*
X163554603Y-97084262D01*
X163554608Y-97084266D01*
X163685476Y-97179346D01*
X163732945Y-97213834D01*
X163861342Y-97279256D01*
X163929360Y-97313914D01*
X163929363Y-97313915D01*
X164034188Y-97347974D01*
X164139016Y-97382034D01*
X164356745Y-97416519D01*
X164356746Y-97416519D01*
X164577188Y-97416519D01*
X164577189Y-97416519D01*
X164794918Y-97382034D01*
X165004573Y-97313914D01*
X165200989Y-97213834D01*
X165379332Y-97084261D01*
X165535209Y-96928384D01*
X165664782Y-96750041D01*
X165675189Y-96729615D01*
X165723164Y-96678820D01*
X165790985Y-96662025D01*
X165857120Y-96684563D01*
X165900571Y-96739278D01*
X165909674Y-96785911D01*
X165909674Y-97356835D01*
X165899408Y-97406237D01*
X165847464Y-97525822D01*
X165845711Y-97529676D01*
X165377945Y-98513249D01*
X165376062Y-98517041D01*
X164874977Y-99484091D01*
X164872965Y-99487817D01*
X164339152Y-100437203D01*
X164337014Y-100440857D01*
X163771123Y-101371424D01*
X163768862Y-101375004D01*
X163171493Y-102285767D01*
X163169110Y-102289267D01*
X162541036Y-103179045D01*
X162538536Y-103182462D01*
X161880423Y-104050314D01*
X161877807Y-104053644D01*
X161535725Y-104474119D01*
X161527218Y-104483545D01*
X158047249Y-107963516D01*
X157985926Y-107997001D01*
X157959568Y-107999835D01*
X155711737Y-107999835D01*
X155644698Y-107980150D01*
X155611419Y-107948720D01*
X154929619Y-107010304D01*
X154929607Y-107010290D01*
X154889394Y-106965840D01*
X154889393Y-106965839D01*
X154889392Y-106965838D01*
X154769440Y-106886306D01*
X154631941Y-106843792D01*
X154631940Y-106843791D01*
X154631937Y-106843791D01*
X154488037Y-106841735D01*
X154488033Y-106841736D01*
X154349376Y-106880308D01*
X154297388Y-106910157D01*
X154297375Y-106910166D01*
X152763701Y-108024447D01*
X152763687Y-108024459D01*
X152719237Y-108064672D01*
X152639703Y-108184626D01*
X152597188Y-108322129D01*
X152597188Y-108322130D01*
X152595132Y-108466029D01*
X152595133Y-108466035D01*
X152617991Y-108548204D01*
X152616993Y-108618066D01*
X152578383Y-108676299D01*
X152514420Y-108704413D01*
X152479130Y-108703909D01*
X152409051Y-108692810D01*
X152188607Y-108692810D01*
X152118531Y-108703909D01*
X151970876Y-108727295D01*
X151761225Y-108795413D01*
X151761222Y-108795414D01*
X151564803Y-108895497D01*
X151386470Y-109025062D01*
X151386465Y-109025066D01*
X151230585Y-109180946D01*
X151230581Y-109180951D01*
X151101016Y-109359284D01*
X151000933Y-109555703D01*
X151000932Y-109555706D01*
X150932814Y-109765357D01*
X150912711Y-109892286D01*
X150898329Y-109983088D01*
X150898329Y-110203532D01*
X150908975Y-110270747D01*
X150932814Y-110421262D01*
X151000932Y-110630913D01*
X151000933Y-110630916D01*
X151101016Y-110827335D01*
X151230581Y-111005668D01*
X151230585Y-111005673D01*
X151386465Y-111161553D01*
X151386470Y-111161557D01*
X151542021Y-111274570D01*
X151564807Y-111291125D01*
X151667321Y-111343359D01*
X151761222Y-111391205D01*
X151761225Y-111391206D01*
X151866050Y-111425265D01*
X151970878Y-111459325D01*
X152188607Y-111493810D01*
X152188608Y-111493810D01*
X152409050Y-111493810D01*
X152409051Y-111493810D01*
X152626780Y-111459325D01*
X152836435Y-111391205D01*
X153032851Y-111291125D01*
X153211194Y-111161552D01*
X153367071Y-111005675D01*
X153496644Y-110827332D01*
X153596724Y-110630916D01*
X153664844Y-110421261D01*
X153675944Y-110351177D01*
X153705871Y-110288047D01*
X153765183Y-110251115D01*
X153835045Y-110252113D01*
X153866936Y-110267231D01*
X153938024Y-110314364D01*
X154075523Y-110356878D01*
X154137197Y-110357759D01*
X154219426Y-110358934D01*
X154219426Y-110358933D01*
X154219430Y-110358934D01*
X154358087Y-110320362D01*
X154410080Y-110290509D01*
X154968535Y-109884766D01*
X155877290Y-109224517D01*
X155943096Y-109201037D01*
X155950175Y-109200835D01*
X156438825Y-109200835D01*
X156505864Y-109220520D01*
X156551619Y-109273324D01*
X156561563Y-109342482D01*
X156532538Y-109406038D01*
X156517080Y-109421022D01*
X156506161Y-109429905D01*
X156481406Y-109450045D01*
X156478078Y-109452659D01*
X155610226Y-110110772D01*
X155606809Y-110113272D01*
X154717031Y-110741346D01*
X154713531Y-110743729D01*
X153802768Y-111341098D01*
X153799188Y-111343359D01*
X152868621Y-111909250D01*
X152864967Y-111911388D01*
X151915581Y-112445201D01*
X151911855Y-112447213D01*
X150944805Y-112948298D01*
X150941013Y-112950181D01*
X149957440Y-113417947D01*
X149953586Y-113419700D01*
X148954614Y-113853615D01*
X148950702Y-113855235D01*
X147937449Y-114254811D01*
X147933484Y-114256297D01*
X146907253Y-114621019D01*
X146903240Y-114622369D01*
X145865112Y-114951856D01*
X145861055Y-114953068D01*
X144812271Y-115246924D01*
X144808175Y-115247996D01*
X143750003Y-115505865D01*
X143745873Y-115506797D01*
X142679513Y-115728389D01*
X142675353Y-115729180D01*
X141602026Y-115914241D01*
X141597842Y-115914889D01*
X140518838Y-116063195D01*
X140514634Y-116063700D01*
X139431186Y-116175081D01*
X139426967Y-116175442D01*
X138340361Y-116249768D01*
X138336132Y-116249985D01*
X137448908Y-116280293D01*
X137381236Y-116262908D01*
X137333705Y-116211697D01*
X137320675Y-116156365D01*
X137320675Y-115854325D01*
X137340360Y-115787286D01*
X137393164Y-115741531D01*
X137444675Y-115730325D01*
X137668046Y-115730325D01*
X137668047Y-115730325D01*
X137727658Y-115723917D01*
X137862506Y-115673622D01*
X137977721Y-115587372D01*
X138063971Y-115472157D01*
X138114266Y-115337309D01*
X138120675Y-115277699D01*
X138120674Y-113739922D01*
X138140359Y-113672884D01*
X138156993Y-113652242D01*
X138547657Y-113261578D01*
X138980694Y-112828542D01*
X139059751Y-112691610D01*
X139100675Y-112538883D01*
X139100675Y-112380768D01*
X139100675Y-112373173D01*
X139100674Y-112373155D01*
X139100674Y-107099427D01*
X139120359Y-107032388D01*
X139168380Y-106988942D01*
X139181784Y-106982113D01*
X139347393Y-106861792D01*
X139492140Y-106717045D01*
X139492142Y-106717041D01*
X139492145Y-106717039D01*
X139547551Y-106640777D01*
X139612461Y-106551436D01*
X139705394Y-106369045D01*
X139768651Y-106174360D01*
X139800674Y-105972178D01*
X139800674Y-105767474D01*
X139791074Y-105706860D01*
X139768651Y-105565291D01*
X139737632Y-105469826D01*
X139705394Y-105370607D01*
X139705392Y-105370604D01*
X139705392Y-105370602D01*
X139664927Y-105291187D01*
X139612461Y-105188216D01*
X139577107Y-105139555D01*
X139492145Y-105022612D01*
X139347387Y-104877854D01*
X139181787Y-104757541D01*
X139181786Y-104757540D01*
X139181784Y-104757539D01*
X139124827Y-104728517D01*
X138999397Y-104664607D01*
X138804708Y-104601348D01*
X138630169Y-104573704D01*
X138602526Y-104569326D01*
X138397822Y-104569326D01*
X138373503Y-104573177D01*
X138195639Y-104601348D01*
X138000950Y-104664607D01*
X137818560Y-104757541D01*
X137652960Y-104877854D01*
X137508202Y-105022612D01*
X137387889Y-105188212D01*
X137294955Y-105370602D01*
X137231696Y-105565291D01*
X137199674Y-105767474D01*
X137199674Y-105972177D01*
X137231696Y-106174360D01*
X137294955Y-106369049D01*
X137358865Y-106494479D01*
X137387759Y-106551185D01*
X137387889Y-106551439D01*
X137508202Y-106717039D01*
X137508208Y-106717045D01*
X137652955Y-106861792D01*
X137818564Y-106982113D01*
X137831967Y-106988942D01*
X137882763Y-107036914D01*
X137899674Y-107099427D01*
X137899674Y-112159728D01*
X137879989Y-112226767D01*
X137863355Y-112247409D01*
X137217756Y-112893007D01*
X137156433Y-112926492D01*
X137130075Y-112929326D01*
X135772304Y-112929326D01*
X135772298Y-112929327D01*
X135712691Y-112935734D01*
X135577846Y-112986028D01*
X135577839Y-112986032D01*
X135462630Y-113072278D01*
X135462627Y-113072281D01*
X135376381Y-113187490D01*
X135376378Y-113187495D01*
X135346573Y-113267407D01*
X135304701Y-113323340D01*
X135239237Y-113347757D01*
X135170964Y-113332905D01*
X135142710Y-113311754D01*
X135092538Y-113261582D01*
X135092533Y-113261578D01*
X134914200Y-113132013D01*
X134914199Y-113132012D01*
X134914197Y-113132011D01*
X134796966Y-113072278D01*
X134717781Y-113031930D01*
X134717778Y-113031929D01*
X134508127Y-112963811D01*
X134399261Y-112946568D01*
X134290397Y-112929326D01*
X134069953Y-112929326D01*
X134029495Y-112935734D01*
X133852220Y-112963811D01*
X133781969Y-112986637D01*
X133712128Y-112988632D01*
X133655971Y-112956387D01*
X130676993Y-109977408D01*
X130643508Y-109916085D01*
X130640674Y-109889727D01*
X130640674Y-103039013D01*
X130660359Y-102971974D01*
X130713163Y-102926219D01*
X130782321Y-102916275D01*
X130820969Y-102928529D01*
X130980945Y-103010042D01*
X130980950Y-103010043D01*
X130980955Y-103010046D01*
X131089062Y-103045172D01*
X131175639Y-103073303D01*
X131276731Y-103089314D01*
X131377822Y-103105326D01*
X131377823Y-103105326D01*
X131582525Y-103105326D01*
X131582526Y-103105326D01*
X131784708Y-103073303D01*
X131799016Y-103068653D01*
X131868856Y-103066657D01*
X131925016Y-103098903D01*
X132095313Y-103269200D01*
X132095323Y-103269211D01*
X132099653Y-103273541D01*
X132099654Y-103273542D01*
X132211458Y-103385346D01*
X132264878Y-103416187D01*
X132298269Y-103435465D01*
X132298271Y-103435467D01*
X132336325Y-103457437D01*
X132348389Y-103464403D01*
X132501117Y-103505327D01*
X132501120Y-103505327D01*
X132666827Y-103505327D01*
X132666843Y-103505326D01*
X147268505Y-103505326D01*
X147268521Y-103505327D01*
X147276117Y-103505327D01*
X147434228Y-103505327D01*
X147434231Y-103505327D01*
X147586959Y-103464403D01*
X147637078Y-103435465D01*
X147723890Y-103385346D01*
X147835694Y-103273542D01*
X147835694Y-103273540D01*
X147845902Y-103263333D01*
X147845904Y-103263330D01*
X148292590Y-102816644D01*
X148353913Y-102783159D01*
X148380271Y-102780325D01*
X149728045Y-102780325D01*
X149728046Y-102780325D01*
X149787657Y-102773917D01*
X149922505Y-102723622D01*
X150037720Y-102637372D01*
X150123970Y-102522157D01*
X150174265Y-102387309D01*
X150180674Y-102327699D01*
X150180673Y-100531954D01*
X150174265Y-100472343D01*
X150168203Y-100456091D01*
X150123971Y-100337497D01*
X150123967Y-100337490D01*
X150037721Y-100222281D01*
X150037718Y-100222278D01*
X149922509Y-100136032D01*
X149922502Y-100136028D01*
X149787656Y-100085734D01*
X149787657Y-100085734D01*
X149728057Y-100079327D01*
X149728055Y-100079326D01*
X149728047Y-100079326D01*
X149728038Y-100079326D01*
X147932303Y-100079326D01*
X147932297Y-100079327D01*
X147872690Y-100085734D01*
X147737845Y-100136028D01*
X147737838Y-100136032D01*
X147622629Y-100222278D01*
X147622626Y-100222281D01*
X147536380Y-100337490D01*
X147536376Y-100337497D01*
X147486082Y-100472343D01*
X147479675Y-100531942D01*
X147479675Y-100531949D01*
X147479674Y-100531961D01*
X147479674Y-101879728D01*
X147459989Y-101946767D01*
X147443355Y-101967409D01*
X147142758Y-102268007D01*
X147081435Y-102301492D01*
X147055077Y-102304326D01*
X145555975Y-102304326D01*
X145488936Y-102284641D01*
X145443181Y-102231837D01*
X145433237Y-102162679D01*
X145438044Y-102142009D01*
X145448649Y-102109368D01*
X145448649Y-102109364D01*
X145448651Y-102109360D01*
X145480674Y-101907178D01*
X145480674Y-101702474D01*
X145460173Y-101573035D01*
X145448651Y-101500291D01*
X145391975Y-101325862D01*
X145385394Y-101305607D01*
X145385392Y-101305604D01*
X145385392Y-101305602D01*
X145351677Y-101239433D01*
X145292461Y-101123216D01*
X145284730Y-101112575D01*
X145172145Y-100957612D01*
X145027387Y-100812854D01*
X144861787Y-100692541D01*
X144861786Y-100692540D01*
X144861784Y-100692539D01*
X144804827Y-100663517D01*
X144679397Y-100599607D01*
X144484708Y-100536348D01*
X144310169Y-100508704D01*
X144282526Y-100504326D01*
X144077822Y-100504326D01*
X144053503Y-100508177D01*
X143875639Y-100536348D01*
X143680950Y-100599607D01*
X143498560Y-100692541D01*
X143332960Y-100812854D01*
X143188202Y-100957612D01*
X143067889Y-101123212D01*
X143020659Y-101215906D01*
X142972684Y-101266702D01*
X142904863Y-101283497D01*
X142838728Y-101260960D01*
X142799689Y-101215906D01*
X142799057Y-101214666D01*
X142752461Y-101123216D01*
X142744730Y-101112575D01*
X142632145Y-100957612D01*
X142487387Y-100812854D01*
X142321787Y-100692541D01*
X142321786Y-100692540D01*
X142321784Y-100692539D01*
X142264827Y-100663517D01*
X142139397Y-100599607D01*
X141944708Y-100536348D01*
X141770169Y-100508704D01*
X141742526Y-100504326D01*
X141537822Y-100504326D01*
X141513503Y-100508177D01*
X141335639Y-100536348D01*
X141140950Y-100599607D01*
X140980969Y-100681123D01*
X140912300Y-100694019D01*
X140847559Y-100667743D01*
X140807302Y-100610636D01*
X140800674Y-100570638D01*
X140800674Y-95419013D01*
X140801449Y-95416372D01*
X140800788Y-95413702D01*
X140811235Y-95383046D01*
X140820359Y-95351974D01*
X140822438Y-95350172D01*
X140823326Y-95347567D01*
X140848695Y-95327420D01*
X140873163Y-95306219D01*
X140875885Y-95305827D01*
X140878041Y-95304116D01*
X140910261Y-95300884D01*
X140942321Y-95296275D01*
X140945662Y-95297334D01*
G37*
%TD.AperFunction*%
%TA.AperFunction,Conductor*%
G36*
X128047802Y-98480697D02*
G01*
X128068444Y-98497331D01*
X128405599Y-98834486D01*
X128439084Y-98895809D01*
X128439535Y-98897975D01*
X128470435Y-99053317D01*
X128470438Y-99053327D01*
X128530776Y-99198998D01*
X128530783Y-99199011D01*
X128618384Y-99330114D01*
X128618387Y-99330118D01*
X128729881Y-99441612D01*
X128729885Y-99441615D01*
X128860988Y-99529216D01*
X128861001Y-99529223D01*
X128933231Y-99559141D01*
X129006677Y-99589563D01*
X129161327Y-99620325D01*
X129161330Y-99620326D01*
X129315674Y-99620326D01*
X129382713Y-99640011D01*
X129428468Y-99692815D01*
X129439674Y-99744326D01*
X129439674Y-100429550D01*
X129419989Y-100496589D01*
X129367185Y-100542344D01*
X129298027Y-100552288D01*
X129277357Y-100547481D01*
X129244599Y-100536837D01*
X129244592Y-100536836D01*
X129042491Y-100504826D01*
X128837857Y-100504826D01*
X128635756Y-100536835D01*
X128441142Y-100600070D01*
X128258818Y-100692969D01*
X128214251Y-100725349D01*
X128214251Y-100725350D01*
X128893727Y-101404826D01*
X128887513Y-101404826D01*
X128785780Y-101432085D01*
X128694568Y-101484746D01*
X128620094Y-101559220D01*
X128567433Y-101650432D01*
X128540174Y-101752165D01*
X128540174Y-101758379D01*
X127860698Y-101078903D01*
X127860697Y-101078903D01*
X127828317Y-101123470D01*
X127780939Y-101216456D01*
X127732964Y-101267252D01*
X127665143Y-101284047D01*
X127599008Y-101261509D01*
X127559969Y-101216456D01*
X127512458Y-101123211D01*
X127392145Y-100957612D01*
X127247387Y-100812854D01*
X127081787Y-100692541D01*
X127081786Y-100692540D01*
X127081784Y-100692539D01*
X127024827Y-100663517D01*
X126899397Y-100599607D01*
X126704708Y-100536348D01*
X126530169Y-100508704D01*
X126502526Y-100504326D01*
X126297822Y-100504326D01*
X126259773Y-100510352D01*
X126095642Y-100536348D01*
X126086891Y-100539191D01*
X126081328Y-100540999D01*
X126011487Y-100542993D01*
X125955331Y-100510748D01*
X124801993Y-99357410D01*
X124768508Y-99296087D01*
X124765674Y-99269729D01*
X124765674Y-99187767D01*
X124785359Y-99120728D01*
X124801993Y-99100086D01*
X124906960Y-98995118D01*
X124906963Y-98995115D01*
X124994568Y-98864005D01*
X125054911Y-98718323D01*
X125069339Y-98645784D01*
X125086241Y-98560821D01*
X125118626Y-98498910D01*
X125179342Y-98464335D01*
X125207858Y-98461012D01*
X127980763Y-98461012D01*
X128047802Y-98480697D01*
G37*
%TD.AperFunction*%
%TA.AperFunction,Conductor*%
G36*
X137901619Y-94728691D02*
G01*
X137940657Y-94773743D01*
X137953036Y-94798037D01*
X137987889Y-94866440D01*
X138108202Y-95032039D01*
X138252960Y-95176797D01*
X138397475Y-95281791D01*
X138418564Y-95297113D01*
X138518072Y-95347815D01*
X138600950Y-95390044D01*
X138600952Y-95390044D01*
X138600955Y-95390046D01*
X138673761Y-95413702D01*
X138795639Y-95453303D01*
X138896731Y-95469314D01*
X138997822Y-95485326D01*
X138997823Y-95485326D01*
X139202525Y-95485326D01*
X139202526Y-95485326D01*
X139404708Y-95453303D01*
X139404713Y-95453301D01*
X139404715Y-95453301D01*
X139437354Y-95442696D01*
X139507195Y-95440699D01*
X139567029Y-95476779D01*
X139597858Y-95539479D01*
X139599674Y-95560626D01*
X139599674Y-100404727D01*
X139579989Y-100471766D01*
X139563353Y-100492411D01*
X139545013Y-100510750D01*
X139483689Y-100544233D01*
X139419019Y-100540998D01*
X139404709Y-100536349D01*
X139303617Y-100520337D01*
X139202526Y-100504326D01*
X138997822Y-100504326D01*
X138973503Y-100508177D01*
X138795639Y-100536348D01*
X138600950Y-100599607D01*
X138418560Y-100692541D01*
X138252960Y-100812854D01*
X138108202Y-100957612D01*
X137987889Y-101123212D01*
X137940659Y-101215906D01*
X137892684Y-101266702D01*
X137824863Y-101283497D01*
X137758728Y-101260960D01*
X137719689Y-101215906D01*
X137719057Y-101214666D01*
X137672461Y-101123216D01*
X137664730Y-101112575D01*
X137552145Y-100957612D01*
X137407387Y-100812854D01*
X137241787Y-100692541D01*
X137241786Y-100692540D01*
X137241784Y-100692539D01*
X137184827Y-100663517D01*
X137059397Y-100599607D01*
X136864708Y-100536348D01*
X136690169Y-100508704D01*
X136662526Y-100504326D01*
X136457822Y-100504326D01*
X136433503Y-100508177D01*
X136255639Y-100536348D01*
X136060950Y-100599607D01*
X135878560Y-100692541D01*
X135712960Y-100812854D01*
X135568202Y-100957612D01*
X135447887Y-101123214D01*
X135400377Y-101216456D01*
X135352402Y-101267252D01*
X135284581Y-101284046D01*
X135218446Y-101261508D01*
X135179408Y-101216454D01*
X135132035Y-101123478D01*
X135099648Y-101078903D01*
X135099648Y-101078902D01*
X134420174Y-101758377D01*
X134420174Y-101752165D01*
X134392915Y-101650432D01*
X134340254Y-101559220D01*
X134265780Y-101484746D01*
X134174568Y-101432085D01*
X134072835Y-101404826D01*
X134066620Y-101404826D01*
X134746096Y-100725350D01*
X134746095Y-100725349D01*
X134701533Y-100692973D01*
X134701524Y-100692967D01*
X134519205Y-100600070D01*
X134324591Y-100536835D01*
X134122491Y-100504826D01*
X133917857Y-100504826D01*
X133715756Y-100536835D01*
X133521142Y-100600070D01*
X133338818Y-100692969D01*
X133294251Y-100725349D01*
X133294251Y-100725350D01*
X133973728Y-101404826D01*
X133967513Y-101404826D01*
X133865780Y-101432085D01*
X133774568Y-101484746D01*
X133700094Y-101559220D01*
X133647433Y-101650432D01*
X133620174Y-101752165D01*
X133620174Y-101758379D01*
X132940698Y-101078903D01*
X132940697Y-101078903D01*
X132908317Y-101123470D01*
X132860939Y-101216456D01*
X132812964Y-101267252D01*
X132745143Y-101284047D01*
X132679008Y-101261509D01*
X132639969Y-101216456D01*
X132592458Y-101123211D01*
X132472145Y-100957612D01*
X132327387Y-100812854D01*
X132161787Y-100692541D01*
X132161786Y-100692540D01*
X132161784Y-100692539D01*
X132104827Y-100663517D01*
X131979397Y-100599607D01*
X131784708Y-100536348D01*
X131610169Y-100508704D01*
X131582526Y-100504326D01*
X131377822Y-100504326D01*
X131353503Y-100508177D01*
X131175639Y-100536348D01*
X130980950Y-100599607D01*
X130820969Y-100681123D01*
X130752300Y-100694019D01*
X130687559Y-100667743D01*
X130647302Y-100610636D01*
X130640674Y-100570638D01*
X130640674Y-98620771D01*
X130640674Y-98620769D01*
X130599751Y-98468042D01*
X130561388Y-98401594D01*
X130520698Y-98331116D01*
X130520695Y-98331112D01*
X130520694Y-98331110D01*
X130408890Y-98219306D01*
X130408889Y-98219305D01*
X130404559Y-98214975D01*
X130404548Y-98214965D01*
X127554761Y-95365178D01*
X127521276Y-95303855D01*
X127526260Y-95234163D01*
X127539826Y-95210080D01*
X127539094Y-95209629D01*
X127542884Y-95203483D01*
X127542886Y-95203482D01*
X127634988Y-95054160D01*
X127662129Y-94972253D01*
X127701900Y-94914810D01*
X127766416Y-94887987D01*
X127835192Y-94900302D01*
X127880151Y-94938373D01*
X127917157Y-94989306D01*
X127948208Y-95032045D01*
X128092960Y-95176797D01*
X128237475Y-95281791D01*
X128258564Y-95297113D01*
X128358072Y-95347815D01*
X128440950Y-95390044D01*
X128440952Y-95390044D01*
X128440955Y-95390046D01*
X128513761Y-95413702D01*
X128635639Y-95453303D01*
X128736731Y-95469314D01*
X128837822Y-95485326D01*
X128837823Y-95485326D01*
X129042525Y-95485326D01*
X129042526Y-95485326D01*
X129244708Y-95453303D01*
X129439393Y-95390046D01*
X129621784Y-95297113D01*
X129741576Y-95210080D01*
X129787387Y-95176797D01*
X129787389Y-95176794D01*
X129787393Y-95176792D01*
X129932140Y-95032045D01*
X129932142Y-95032041D01*
X129932145Y-95032039D01*
X130052458Y-94866440D01*
X130052457Y-94866440D01*
X130052461Y-94866436D01*
X130099690Y-94773743D01*
X130147663Y-94722949D01*
X130215484Y-94706154D01*
X130281619Y-94728691D01*
X130320657Y-94773743D01*
X130333036Y-94798037D01*
X130367889Y-94866440D01*
X130488202Y-95032039D01*
X130632960Y-95176797D01*
X130777475Y-95281791D01*
X130798564Y-95297113D01*
X130898072Y-95347815D01*
X130980950Y-95390044D01*
X130980952Y-95390044D01*
X130980955Y-95390046D01*
X131053761Y-95413702D01*
X131175639Y-95453303D01*
X131276731Y-95469314D01*
X131377822Y-95485326D01*
X131377823Y-95485326D01*
X131582525Y-95485326D01*
X131582526Y-95485326D01*
X131784708Y-95453303D01*
X131979393Y-95390046D01*
X132161784Y-95297113D01*
X132281576Y-95210080D01*
X132327387Y-95176797D01*
X132327389Y-95176794D01*
X132327393Y-95176792D01*
X132472140Y-95032045D01*
X132472142Y-95032041D01*
X132472145Y-95032039D01*
X132592458Y-94866440D01*
X132592457Y-94866440D01*
X132592461Y-94866436D01*
X132639690Y-94773743D01*
X132687663Y-94722949D01*
X132755484Y-94706154D01*
X132821619Y-94728691D01*
X132860657Y-94773743D01*
X132873036Y-94798037D01*
X132907889Y-94866440D01*
X133028202Y-95032039D01*
X133172960Y-95176797D01*
X133317475Y-95281791D01*
X133338564Y-95297113D01*
X133438072Y-95347815D01*
X133520950Y-95390044D01*
X133520952Y-95390044D01*
X133520955Y-95390046D01*
X133593761Y-95413702D01*
X133715639Y-95453303D01*
X133816731Y-95469314D01*
X133917822Y-95485326D01*
X133917823Y-95485326D01*
X134122525Y-95485326D01*
X134122526Y-95485326D01*
X134324708Y-95453303D01*
X134519393Y-95390046D01*
X134701784Y-95297113D01*
X134821576Y-95210080D01*
X134867387Y-95176797D01*
X134867389Y-95176794D01*
X134867393Y-95176792D01*
X135012140Y-95032045D01*
X135012142Y-95032041D01*
X135012145Y-95032039D01*
X135132458Y-94866440D01*
X135132457Y-94866440D01*
X135132461Y-94866436D01*
X135179690Y-94773743D01*
X135227663Y-94722949D01*
X135295484Y-94706154D01*
X135361619Y-94728691D01*
X135400657Y-94773743D01*
X135413036Y-94798037D01*
X135447889Y-94866440D01*
X135568202Y-95032039D01*
X135712960Y-95176797D01*
X135857475Y-95281791D01*
X135878564Y-95297113D01*
X135978072Y-95347815D01*
X136060950Y-95390044D01*
X136060952Y-95390044D01*
X136060955Y-95390046D01*
X136133761Y-95413702D01*
X136255639Y-95453303D01*
X136356731Y-95469314D01*
X136457822Y-95485326D01*
X136457823Y-95485326D01*
X136662525Y-95485326D01*
X136662526Y-95485326D01*
X136864708Y-95453303D01*
X137059393Y-95390046D01*
X137241784Y-95297113D01*
X137361576Y-95210080D01*
X137407387Y-95176797D01*
X137407389Y-95176794D01*
X137407393Y-95176792D01*
X137552140Y-95032045D01*
X137552142Y-95032041D01*
X137552145Y-95032039D01*
X137672458Y-94866440D01*
X137672457Y-94866440D01*
X137672461Y-94866436D01*
X137719690Y-94773743D01*
X137767663Y-94722949D01*
X137835484Y-94706154D01*
X137901619Y-94728691D01*
G37*
%TD.AperFunction*%
%TA.AperFunction,Conductor*%
G36*
X136059114Y-52277699D02*
G01*
X136106645Y-52328910D01*
X136119675Y-52384242D01*
X136119675Y-52805326D01*
X136099990Y-52872365D01*
X136047186Y-52918120D01*
X135995676Y-52929326D01*
X135772305Y-52929326D01*
X135772298Y-52929327D01*
X135712691Y-52935734D01*
X135577846Y-52986028D01*
X135577839Y-52986032D01*
X135462630Y-53072278D01*
X135462627Y-53072281D01*
X135376381Y-53187490D01*
X135376377Y-53187497D01*
X135326083Y-53322343D01*
X135319676Y-53381942D01*
X135319675Y-53381961D01*
X135319675Y-55277696D01*
X135319676Y-55277702D01*
X135326083Y-55337309D01*
X135376377Y-55472154D01*
X135376381Y-55472161D01*
X135462627Y-55587370D01*
X135462630Y-55587373D01*
X135577839Y-55673619D01*
X135577846Y-55673623D01*
X135712692Y-55723917D01*
X135712691Y-55723917D01*
X135719619Y-55724661D01*
X135772302Y-55730326D01*
X137668047Y-55730325D01*
X137727658Y-55723917D01*
X137862506Y-55673622D01*
X137977721Y-55587372D01*
X138063971Y-55472157D01*
X138091604Y-55398069D01*
X138093776Y-55392246D01*
X138135646Y-55336312D01*
X138201111Y-55311894D01*
X138269384Y-55326745D01*
X138297639Y-55347897D01*
X138347811Y-55398069D01*
X138347816Y-55398073D01*
X138449778Y-55472152D01*
X138526153Y-55527641D01*
X138652244Y-55591888D01*
X138722568Y-55627721D01*
X138722571Y-55627722D01*
X138783228Y-55647430D01*
X138932224Y-55695841D01*
X139149953Y-55730326D01*
X139149954Y-55730326D01*
X139370396Y-55730326D01*
X139370397Y-55730326D01*
X139588126Y-55695841D01*
X139797781Y-55627721D01*
X139994197Y-55527641D01*
X140172540Y-55398068D01*
X140328417Y-55242191D01*
X140457990Y-55063848D01*
X140558070Y-54867432D01*
X140626190Y-54657777D01*
X140660675Y-54440048D01*
X140660675Y-54219604D01*
X140626190Y-54001875D01*
X140560712Y-53800350D01*
X140558071Y-53792222D01*
X140558070Y-53792219D01*
X140481989Y-53642905D01*
X140457990Y-53595804D01*
X140441435Y-53573018D01*
X140328422Y-53417467D01*
X140328418Y-53417462D01*
X140172538Y-53261582D01*
X140172533Y-53261578D01*
X139994200Y-53132013D01*
X139994199Y-53132012D01*
X139994197Y-53132011D01*
X139876966Y-53072278D01*
X139797781Y-53031930D01*
X139797778Y-53031929D01*
X139588127Y-52963811D01*
X139479261Y-52946568D01*
X139370397Y-52929326D01*
X139149953Y-52929326D01*
X139077376Y-52940821D01*
X138932222Y-52963811D01*
X138722571Y-53031929D01*
X138722568Y-53031930D01*
X138526149Y-53132013D01*
X138347816Y-53261578D01*
X138347811Y-53261582D01*
X138297638Y-53311755D01*
X138236315Y-53345239D01*
X138166623Y-53340254D01*
X138110690Y-53298383D01*
X138093776Y-53267406D01*
X138063972Y-53187497D01*
X138063968Y-53187490D01*
X137977722Y-53072281D01*
X137977719Y-53072278D01*
X137862510Y-52986032D01*
X137862503Y-52986028D01*
X137727657Y-52935734D01*
X137727658Y-52935734D01*
X137668058Y-52929327D01*
X137668056Y-52929326D01*
X137668048Y-52929326D01*
X137668040Y-52929326D01*
X137444675Y-52929326D01*
X137377636Y-52909641D01*
X137331881Y-52856837D01*
X137320675Y-52805326D01*
X137320675Y-52385703D01*
X137340360Y-52318664D01*
X137393164Y-52272909D01*
X137448905Y-52261775D01*
X138336189Y-52292086D01*
X138340306Y-52292298D01*
X139426986Y-52366628D01*
X139431168Y-52366986D01*
X140514680Y-52478374D01*
X140518793Y-52478868D01*
X141597870Y-52627184D01*
X141601998Y-52627823D01*
X142476976Y-52778685D01*
X142675353Y-52812889D01*
X142679513Y-52813680D01*
X142778930Y-52834339D01*
X143745918Y-53035282D01*
X143749959Y-53036194D01*
X144674828Y-53261578D01*
X144747066Y-53279182D01*
X144807539Y-53314179D01*
X144839490Y-53376315D01*
X144832777Y-53445861D01*
X144790594Y-53499973D01*
X144719629Y-53551532D01*
X144538940Y-53732221D01*
X144538940Y-53732222D01*
X144538938Y-53732224D01*
X144474432Y-53821007D01*
X144388738Y-53938955D01*
X144272726Y-54166639D01*
X144272725Y-54166642D01*
X144193763Y-54409667D01*
X144188951Y-54440048D01*
X144153788Y-54662058D01*
X144153788Y-54728816D01*
X144153788Y-54917594D01*
X144164417Y-54984700D01*
X144193763Y-55169984D01*
X144272725Y-55413009D01*
X144272726Y-55413012D01*
X144363869Y-55591888D01*
X144388738Y-55640696D01*
X144538938Y-55847428D01*
X144719629Y-56028119D01*
X144926361Y-56178319D01*
X144994954Y-56213269D01*
X145154044Y-56294330D01*
X145154047Y-56294331D01*
X145275559Y-56333812D01*
X145397074Y-56373294D01*
X145649463Y-56413269D01*
X145649464Y-56413269D01*
X145904998Y-56413269D01*
X145904999Y-56413269D01*
X146157388Y-56373294D01*
X146400417Y-56294330D01*
X146628101Y-56178319D01*
X146834833Y-56028119D01*
X147015524Y-55847428D01*
X147165724Y-55640696D01*
X147281735Y-55413012D01*
X147360699Y-55169983D01*
X147400674Y-54917594D01*
X147400674Y-54662058D01*
X147360699Y-54409669D01*
X147318221Y-54278936D01*
X147316227Y-54209096D01*
X147352307Y-54149263D01*
X147415008Y-54118435D01*
X147477677Y-54123778D01*
X147933525Y-54285787D01*
X147937449Y-54287258D01*
X148950702Y-54686834D01*
X148954614Y-54688454D01*
X149953586Y-55122369D01*
X149957440Y-55124122D01*
X150205700Y-55242189D01*
X150941034Y-55591898D01*
X150944784Y-55593760D01*
X151799573Y-56036676D01*
X151830205Y-56059092D01*
X153716913Y-57945800D01*
X153750398Y-58007123D01*
X153753232Y-58033481D01*
X153753232Y-58462869D01*
X153733547Y-58529908D01*
X153729550Y-58535754D01*
X152663570Y-60002951D01*
X152663551Y-60002980D01*
X152633705Y-60054957D01*
X152595133Y-60193617D01*
X152595132Y-60193621D01*
X152597188Y-60337520D01*
X152597188Y-60337521D01*
X152597188Y-60337524D01*
X152597189Y-60337525D01*
X152639703Y-60475024D01*
X152719235Y-60594976D01*
X152752094Y-60624705D01*
X152763695Y-60635201D01*
X154262604Y-61724220D01*
X154297384Y-61749489D01*
X154297391Y-61749493D01*
X154297396Y-61749496D01*
X154349373Y-61779342D01*
X154349377Y-61779343D01*
X154488034Y-61817915D01*
X154488036Y-61817914D01*
X154488037Y-61817915D01*
X154541999Y-61817144D01*
X154631941Y-61815859D01*
X154769440Y-61773345D01*
X154840526Y-61726212D01*
X154907275Y-61705573D01*
X154974589Y-61724297D01*
X155021094Y-61776442D01*
X155031520Y-61810162D01*
X155042620Y-61880243D01*
X155110738Y-62089894D01*
X155110739Y-62089897D01*
X155210822Y-62286316D01*
X155340387Y-62464649D01*
X155340391Y-62464654D01*
X155496271Y-62620534D01*
X155496276Y-62620538D01*
X155580439Y-62681685D01*
X155674613Y-62750106D01*
X155792498Y-62810172D01*
X155871028Y-62850186D01*
X155871031Y-62850187D01*
X155933014Y-62870326D01*
X156080684Y-62918306D01*
X156298413Y-62952791D01*
X156298414Y-62952791D01*
X156518856Y-62952791D01*
X156518857Y-62952791D01*
X156736586Y-62918306D01*
X156946241Y-62850186D01*
X157142657Y-62750106D01*
X157321000Y-62620533D01*
X157476877Y-62464656D01*
X157606450Y-62286313D01*
X157706530Y-62089897D01*
X157774650Y-61880242D01*
X157809135Y-61662513D01*
X157809135Y-61442069D01*
X157774650Y-61224340D01*
X157706530Y-61014685D01*
X157706530Y-61014684D01*
X157657897Y-60919238D01*
X157606450Y-60818269D01*
X157491328Y-60659816D01*
X157476882Y-60639932D01*
X157476878Y-60639927D01*
X157320998Y-60484047D01*
X157320993Y-60484043D01*
X157142660Y-60354478D01*
X157142659Y-60354477D01*
X157142657Y-60354476D01*
X157079731Y-60322413D01*
X156946241Y-60254395D01*
X156946238Y-60254394D01*
X156736587Y-60186276D01*
X156588933Y-60162890D01*
X156518857Y-60151791D01*
X156298413Y-60151791D01*
X156228333Y-60162890D01*
X156159040Y-60153935D01*
X156105588Y-60108938D01*
X156084949Y-60042187D01*
X156089471Y-60007189D01*
X156112331Y-59925014D01*
X156110275Y-59781107D01*
X156067761Y-59643608D01*
X155988229Y-59523656D01*
X155943771Y-59483433D01*
X155943768Y-59483430D01*
X155005347Y-58801628D01*
X154962681Y-58746298D01*
X154954232Y-58701310D01*
X154954232Y-58207466D01*
X154973917Y-58140427D01*
X155026721Y-58094672D01*
X155095879Y-58084728D01*
X155149737Y-58106161D01*
X155606827Y-58428810D01*
X155610208Y-58431284D01*
X155966291Y-58701310D01*
X156478078Y-59089410D01*
X156481408Y-59092026D01*
X157326284Y-59779384D01*
X157329522Y-59782112D01*
X158150400Y-60497880D01*
X158153544Y-60500716D01*
X158949577Y-61244158D01*
X158952621Y-61247101D01*
X159722732Y-62017212D01*
X159725675Y-62020256D01*
X160469117Y-62816289D01*
X160471953Y-62819433D01*
X161187721Y-63640311D01*
X161190449Y-63643549D01*
X161877807Y-64488425D01*
X161880423Y-64491755D01*
X162017242Y-64672178D01*
X162456509Y-65251439D01*
X162538536Y-65359607D01*
X162541030Y-65363016D01*
X162831873Y-65775046D01*
X163169110Y-66252802D01*
X163171493Y-66256302D01*
X163768862Y-67167065D01*
X163771123Y-67170645D01*
X164337014Y-68101212D01*
X164339152Y-68104866D01*
X164872965Y-69054252D01*
X164874977Y-69057978D01*
X165376062Y-70025028D01*
X165377945Y-70028820D01*
X165845711Y-71012393D01*
X165847464Y-71016247D01*
X166281379Y-72015219D01*
X166282999Y-72019131D01*
X166682575Y-73032384D01*
X166684057Y-73036340D01*
X166770726Y-73280201D01*
X167048783Y-74062580D01*
X167050133Y-74066593D01*
X167161805Y-74418444D01*
X167163323Y-74488298D01*
X167126835Y-74547882D01*
X167063925Y-74578281D01*
X166994566Y-74569843D01*
X166981617Y-74563344D01*
X166921568Y-74528676D01*
X166921566Y-74528674D01*
X166921565Y-74528674D01*
X166871449Y-74499739D01*
X166718721Y-74458815D01*
X166619419Y-74458815D01*
X166552380Y-74439130D01*
X166506625Y-74386326D01*
X166501488Y-74373133D01*
X166370445Y-73969826D01*
X166290915Y-73725058D01*
X166266400Y-73670345D01*
X166176896Y-73557639D01*
X166176895Y-73557638D01*
X166176894Y-73557637D01*
X166059265Y-73474716D01*
X166059259Y-73474713D01*
X165923042Y-73428291D01*
X165923037Y-73428290D01*
X165923036Y-73428290D01*
X165815192Y-73423667D01*
X165779246Y-73422127D01*
X165779245Y-73422127D01*
X165720572Y-73434452D01*
X165720571Y-73434452D01*
X163917616Y-74020269D01*
X163917611Y-74020271D01*
X163862898Y-74044786D01*
X163750191Y-74134291D01*
X163667270Y-74251920D01*
X163667267Y-74251926D01*
X163620845Y-74388143D01*
X163620844Y-74388149D01*
X163620844Y-74388150D01*
X163614681Y-74531941D01*
X163627006Y-74590613D01*
X163627006Y-74590614D01*
X164212823Y-76393569D01*
X164212825Y-76393574D01*
X164237340Y-76448287D01*
X164326845Y-76560994D01*
X164444474Y-76643915D01*
X164444480Y-76643918D01*
X164580697Y-76690340D01*
X164580698Y-76690340D01*
X164580704Y-76690342D01*
X164665914Y-76693994D01*
X164732049Y-76716531D01*
X164775501Y-76771246D01*
X164782474Y-76840767D01*
X164771089Y-76874174D01*
X164738880Y-76937387D01*
X164738876Y-76937396D01*
X164670758Y-77147047D01*
X164662856Y-77196937D01*
X164636273Y-77364778D01*
X164636273Y-77585222D01*
X164648007Y-77659306D01*
X164670758Y-77802952D01*
X164738876Y-78012603D01*
X164738877Y-78012606D01*
X164766673Y-78067157D01*
X164834527Y-78200326D01*
X164838960Y-78209025D01*
X164968525Y-78387358D01*
X164968529Y-78387363D01*
X165124409Y-78543243D01*
X165124414Y-78543247D01*
X165279965Y-78656260D01*
X165302751Y-78672815D01*
X165431148Y-78738237D01*
X165499166Y-78772895D01*
X165499169Y-78772896D01*
X165569564Y-78795768D01*
X165708822Y-78841015D01*
X165926551Y-78875500D01*
X165926552Y-78875500D01*
X166146994Y-78875500D01*
X166146995Y-78875500D01*
X166364724Y-78841015D01*
X166574379Y-78772895D01*
X166770795Y-78672815D01*
X166949138Y-78543242D01*
X167105015Y-78387365D01*
X167234588Y-78209022D01*
X167334668Y-78012606D01*
X167402788Y-77802951D01*
X167437273Y-77585222D01*
X167437273Y-77364778D01*
X167402788Y-77147049D01*
X167334668Y-76937394D01*
X167333596Y-76934094D01*
X167331601Y-76864252D01*
X167367682Y-76804420D01*
X167430383Y-76773592D01*
X167499797Y-76781557D01*
X167539208Y-76808095D01*
X167902990Y-77171877D01*
X167936475Y-77233200D01*
X167936715Y-77234329D01*
X168156153Y-78290320D01*
X168156944Y-78294480D01*
X168342005Y-79367807D01*
X168342653Y-79371991D01*
X168490959Y-80450995D01*
X168491464Y-80455199D01*
X168602845Y-81538647D01*
X168603206Y-81542866D01*
X168677532Y-82629471D01*
X168677749Y-82633699D01*
X168714935Y-83722233D01*
X168715007Y-83726467D01*
X168715007Y-84815602D01*
X168714935Y-84819836D01*
X168677749Y-85908370D01*
X168677532Y-85912598D01*
X168603206Y-86999203D01*
X168602845Y-87003422D01*
X168491464Y-88086870D01*
X168490959Y-88091074D01*
X168342653Y-89170078D01*
X168342005Y-89174262D01*
X168247292Y-89723580D01*
X168216503Y-89786300D01*
X168212776Y-89790192D01*
X165776072Y-92226896D01*
X165714749Y-92260381D01*
X165650073Y-92257146D01*
X164973566Y-92037337D01*
X164783168Y-91975473D01*
X164724495Y-91963146D01*
X164580704Y-91969309D01*
X164580703Y-91969309D01*
X164580697Y-91969310D01*
X164444480Y-92015732D01*
X164444474Y-92015735D01*
X164326845Y-92098656D01*
X164237340Y-92211364D01*
X164212822Y-92266079D01*
X164212821Y-92266081D01*
X163627009Y-94069031D01*
X163627008Y-94069037D01*
X163614681Y-94127707D01*
X163614681Y-94127712D01*
X163620844Y-94271498D01*
X163620845Y-94271507D01*
X163667267Y-94407724D01*
X163667270Y-94407730D01*
X163750191Y-94525359D01*
X163750192Y-94525360D01*
X163750193Y-94525361D01*
X163778984Y-94548225D01*
X163816984Y-94578402D01*
X163857241Y-94635509D01*
X163860233Y-94705315D01*
X163825011Y-94765656D01*
X163796164Y-94785992D01*
X163732941Y-94818206D01*
X163554608Y-94947771D01*
X163554603Y-94947775D01*
X163398723Y-95103655D01*
X163398719Y-95103660D01*
X163269152Y-95281995D01*
X163235615Y-95347815D01*
X163187641Y-95398610D01*
X163125131Y-95415519D01*
X145028338Y-95415519D01*
X144961299Y-95395834D01*
X144915544Y-95343030D01*
X144904720Y-95281791D01*
X144906096Y-95264300D01*
X144226620Y-94584826D01*
X144232835Y-94584826D01*
X144334568Y-94557567D01*
X144425780Y-94504906D01*
X144500254Y-94430432D01*
X144552915Y-94339220D01*
X144580174Y-94237487D01*
X144580174Y-94231273D01*
X145259648Y-94910747D01*
X145292033Y-94866175D01*
X145384929Y-94683857D01*
X145448164Y-94489243D01*
X145480174Y-94287143D01*
X145480174Y-94082508D01*
X145448164Y-93880408D01*
X145384929Y-93685794D01*
X145292033Y-93503476D01*
X145259648Y-93458903D01*
X145259648Y-93458902D01*
X144580174Y-94138377D01*
X144580174Y-94132165D01*
X144552915Y-94030432D01*
X144500254Y-93939220D01*
X144425780Y-93864746D01*
X144334568Y-93812085D01*
X144232835Y-93784826D01*
X144226620Y-93784826D01*
X144906096Y-93105350D01*
X144906095Y-93105349D01*
X144861533Y-93072973D01*
X144861524Y-93072967D01*
X144679205Y-92980070D01*
X144484591Y-92916835D01*
X144282491Y-92884826D01*
X144077857Y-92884826D01*
X143875756Y-92916835D01*
X143681142Y-92980070D01*
X143498818Y-93072969D01*
X143454251Y-93105349D01*
X143454251Y-93105350D01*
X144133728Y-93784826D01*
X144127513Y-93784826D01*
X144025780Y-93812085D01*
X143934568Y-93864746D01*
X143860094Y-93939220D01*
X143807433Y-94030432D01*
X143780174Y-94132165D01*
X143780174Y-94138379D01*
X143100698Y-93458903D01*
X143100697Y-93458903D01*
X143068317Y-93503470D01*
X143020939Y-93596456D01*
X142972964Y-93647252D01*
X142905143Y-93664047D01*
X142839008Y-93641509D01*
X142799969Y-93596456D01*
X142752458Y-93503211D01*
X142632145Y-93337612D01*
X142487387Y-93192854D01*
X142321787Y-93072541D01*
X142321786Y-93072540D01*
X142321784Y-93072539D01*
X142262072Y-93042114D01*
X142139397Y-92979607D01*
X141944708Y-92916348D01*
X141770169Y-92888704D01*
X141742526Y-92884326D01*
X141537822Y-92884326D01*
X141513503Y-92888177D01*
X141335639Y-92916348D01*
X141140950Y-92979607D01*
X140958560Y-93072541D01*
X140792960Y-93192854D01*
X140740697Y-93245117D01*
X140735873Y-93247750D01*
X140735233Y-93248791D01*
X140724748Y-93253825D01*
X140679374Y-93278601D01*
X140673957Y-93278213D01*
X140672249Y-93279034D01*
X140654343Y-93276810D01*
X140609682Y-93273616D01*
X140605139Y-93270700D01*
X140602911Y-93270424D01*
X140572858Y-93251918D01*
X140572846Y-93251908D01*
X140565730Y-93245410D01*
X140565447Y-93245228D01*
X140565053Y-93244835D01*
X140564657Y-93244439D01*
X140564647Y-93244420D01*
X140564548Y-93244330D01*
X137743224Y-90423006D01*
X137743222Y-90423003D01*
X137624351Y-90304132D01*
X137624350Y-90304131D01*
X137530013Y-90249666D01*
X137487419Y-90225074D01*
X137334691Y-90184150D01*
X137176577Y-90184150D01*
X137168981Y-90184150D01*
X137168965Y-90184151D01*
X133926211Y-90184151D01*
X133859172Y-90164466D01*
X133838530Y-90147832D01*
X132085306Y-88394607D01*
X132051821Y-88333284D01*
X132051370Y-88331117D01*
X132020470Y-88175778D01*
X132020469Y-88175771D01*
X131985387Y-88091074D01*
X131960129Y-88030095D01*
X131960122Y-88030082D01*
X131872521Y-87898979D01*
X131872518Y-87898975D01*
X131761024Y-87787481D01*
X131761020Y-87787478D01*
X131629917Y-87699877D01*
X131629904Y-87699870D01*
X131484233Y-87639532D01*
X131484221Y-87639529D01*
X131329577Y-87608768D01*
X131329574Y-87608768D01*
X131171890Y-87608768D01*
X131171887Y-87608768D01*
X131017242Y-87639529D01*
X131017230Y-87639532D01*
X130871559Y-87699870D01*
X130871546Y-87699877D01*
X130739857Y-87787870D01*
X130673179Y-87808748D01*
X130670966Y-87808768D01*
X126723203Y-87808768D01*
X126656164Y-87789083D01*
X126610409Y-87736279D01*
X126599203Y-87684768D01*
X126599203Y-87017415D01*
X126599204Y-87017402D01*
X126599204Y-86849299D01*
X126558279Y-86696569D01*
X126558276Y-86696564D01*
X126479227Y-86559645D01*
X126479221Y-86559637D01*
X117346993Y-77427409D01*
X117313508Y-77366086D01*
X117310674Y-77339728D01*
X117310674Y-76797474D01*
X119996424Y-76797474D01*
X119996424Y-77002177D01*
X120028446Y-77204360D01*
X120091705Y-77399049D01*
X120155615Y-77524479D01*
X120178745Y-77569873D01*
X120184639Y-77581439D01*
X120304952Y-77747039D01*
X120449708Y-77891795D01*
X120549972Y-77964640D01*
X120615314Y-78012113D01*
X120710807Y-78060769D01*
X120797700Y-78105044D01*
X120797702Y-78105044D01*
X120797705Y-78105046D01*
X120866553Y-78127416D01*
X120992389Y-78168303D01*
X121081204Y-78182370D01*
X121194572Y-78200326D01*
X121194573Y-78200326D01*
X121399275Y-78200326D01*
X121399276Y-78200326D01*
X121601458Y-78168303D01*
X121615766Y-78163653D01*
X121685606Y-78161657D01*
X121741766Y-78193903D01*
X122497062Y-78949199D01*
X122497072Y-78949210D01*
X122501402Y-78953540D01*
X122501403Y-78953541D01*
X122613207Y-79065345D01*
X122613209Y-79065346D01*
X122613213Y-79065349D01*
X122708081Y-79120120D01*
X122750139Y-79144402D01*
X122830957Y-79166057D01*
X122902865Y-79185325D01*
X122902866Y-79185325D01*
X134630256Y-79185325D01*
X134630272Y-79185326D01*
X134637868Y-79185326D01*
X134795979Y-79185326D01*
X134795982Y-79185326D01*
X134948710Y-79144402D01*
X134998829Y-79115464D01*
X135075404Y-79071254D01*
X135143300Y-79054784D01*
X135156784Y-79056169D01*
X135340869Y-79085326D01*
X135340870Y-79085326D01*
X135532978Y-79085326D01*
X135532979Y-79085326D01*
X135722725Y-79055273D01*
X135905433Y-78995908D01*
X136076605Y-78908691D01*
X136232026Y-78795771D01*
X136367869Y-78659928D01*
X136472119Y-78516439D01*
X136527449Y-78473775D01*
X136572437Y-78465326D01*
X136841411Y-78465326D01*
X136908450Y-78485011D01*
X136941728Y-78516439D01*
X137045979Y-78659928D01*
X137181822Y-78795771D01*
X137337243Y-78908691D01*
X137508415Y-78995908D01*
X137508417Y-78995909D01*
X137599769Y-79025590D01*
X137691123Y-79055273D01*
X137880869Y-79085326D01*
X137880870Y-79085326D01*
X138072978Y-79085326D01*
X138072979Y-79085326D01*
X138253026Y-79056809D01*
X138322319Y-79065764D01*
X138375771Y-79110760D01*
X138396411Y-79177511D01*
X138396424Y-79179282D01*
X138396424Y-79559906D01*
X138396423Y-79559924D01*
X138396423Y-79725630D01*
X138396422Y-79725630D01*
X138437347Y-79878361D01*
X138466282Y-79928476D01*
X138466283Y-79928480D01*
X138466284Y-79928480D01*
X138516403Y-80015290D01*
X138516405Y-80015293D01*
X138635273Y-80134161D01*
X138635279Y-80134166D01*
X143665599Y-85164486D01*
X143699084Y-85225809D01*
X143699535Y-85227975D01*
X143730435Y-85383317D01*
X143730438Y-85383327D01*
X143790776Y-85528998D01*
X143790783Y-85529011D01*
X143878384Y-85660114D01*
X143878387Y-85660118D01*
X143989881Y-85771612D01*
X143989885Y-85771615D01*
X144120988Y-85859216D01*
X144121001Y-85859223D01*
X144244746Y-85910479D01*
X144266677Y-85919563D01*
X144421327Y-85950325D01*
X144421330Y-85950326D01*
X144421332Y-85950326D01*
X144579018Y-85950326D01*
X144579019Y-85950325D01*
X144733671Y-85919563D01*
X144879353Y-85859220D01*
X145010463Y-85771615D01*
X145121963Y-85660115D01*
X145209568Y-85529005D01*
X145269911Y-85383323D01*
X145300674Y-85228668D01*
X145300674Y-85070984D01*
X145300674Y-85070981D01*
X145300673Y-85070979D01*
X145269912Y-84916336D01*
X145269911Y-84916329D01*
X145229943Y-84819836D01*
X145209571Y-84770653D01*
X145209564Y-84770640D01*
X145121963Y-84639537D01*
X145121960Y-84639533D01*
X145010466Y-84528039D01*
X145010462Y-84528036D01*
X144879359Y-84440435D01*
X144879346Y-84440428D01*
X144733675Y-84380090D01*
X144733665Y-84380087D01*
X144578325Y-84349188D01*
X144516415Y-84316803D01*
X144514836Y-84315252D01*
X139633743Y-79434159D01*
X139600258Y-79372836D01*
X139597424Y-79346478D01*
X139597424Y-78948754D01*
X139617109Y-78881715D01*
X139669913Y-78835960D01*
X139739071Y-78826016D01*
X139794308Y-78848435D01*
X139877243Y-78908691D01*
X140048415Y-78995908D01*
X140048417Y-78995909D01*
X140139769Y-79025590D01*
X140231123Y-79055273D01*
X140420869Y-79085326D01*
X140420870Y-79085326D01*
X140612978Y-79085326D01*
X140612979Y-79085326D01*
X140802725Y-79055273D01*
X140985433Y-78995908D01*
X141156605Y-78908691D01*
X141312026Y-78795771D01*
X141447869Y-78659928D01*
X141560789Y-78504507D01*
X141648006Y-78333335D01*
X141707371Y-78150627D01*
X141737424Y-77960881D01*
X141737424Y-77768771D01*
X141707371Y-77579025D01*
X141666961Y-77454654D01*
X141648007Y-77396319D01*
X141594312Y-77290937D01*
X141560789Y-77225145D01*
X141447869Y-77069724D01*
X141312026Y-76933881D01*
X141250074Y-76888870D01*
X141168538Y-76829630D01*
X141125873Y-76774299D01*
X141117424Y-76729312D01*
X141117424Y-75505636D01*
X141117425Y-75505623D01*
X141117425Y-75337520D01*
X141117424Y-75337516D01*
X141076501Y-75184792D01*
X141052015Y-75142380D01*
X140997448Y-75047866D01*
X140997442Y-75047858D01*
X139597472Y-73647888D01*
X139563987Y-73586565D01*
X139568971Y-73516873D01*
X139580174Y-73499441D01*
X139580174Y-72505512D01*
X139584568Y-72509906D01*
X139675780Y-72562567D01*
X139777513Y-72589826D01*
X139882835Y-72589826D01*
X139984568Y-72562567D01*
X140075780Y-72509906D01*
X140080174Y-72505512D01*
X140080174Y-73489825D01*
X140430146Y-73489825D01*
X140430160Y-73489824D01*
X140532871Y-73479331D01*
X140699293Y-73424184D01*
X140699298Y-73424182D01*
X140848519Y-73332141D01*
X140972489Y-73208171D01*
X141064530Y-73058950D01*
X141064532Y-73058945D01*
X141119679Y-72892523D01*
X141119680Y-72892516D01*
X141130173Y-72789812D01*
X141130174Y-72789799D01*
X141130174Y-72439826D01*
X140145860Y-72439826D01*
X140150254Y-72435432D01*
X140202915Y-72344220D01*
X140230174Y-72242487D01*
X140230174Y-72137165D01*
X140202915Y-72035432D01*
X140150254Y-71944220D01*
X140145860Y-71939826D01*
X141130173Y-71939826D01*
X141130173Y-71589854D01*
X141130172Y-71589839D01*
X141119679Y-71487128D01*
X141064532Y-71320706D01*
X141064530Y-71320701D01*
X140972489Y-71171480D01*
X140848519Y-71047510D01*
X140699298Y-70955469D01*
X140699293Y-70955467D01*
X140532871Y-70900320D01*
X140532864Y-70900319D01*
X140430160Y-70889826D01*
X140080174Y-70889826D01*
X140080174Y-71874140D01*
X140075780Y-71869746D01*
X139984568Y-71817085D01*
X139882835Y-71789826D01*
X139777513Y-71789826D01*
X139675780Y-71817085D01*
X139584568Y-71869746D01*
X139580174Y-71874140D01*
X139580174Y-70889826D01*
X139230202Y-70889826D01*
X139230186Y-70889827D01*
X139127476Y-70900320D01*
X138961054Y-70955467D01*
X138961049Y-70955469D01*
X138811828Y-71047510D01*
X138687858Y-71171480D01*
X138595817Y-71320701D01*
X138595815Y-71320706D01*
X138568581Y-71402894D01*
X138528808Y-71460339D01*
X138464292Y-71487162D01*
X138395516Y-71474847D01*
X138350556Y-71436775D01*
X138325940Y-71402894D01*
X138282140Y-71342607D01*
X138137393Y-71197860D01*
X138137387Y-71197854D01*
X137971787Y-71077541D01*
X137971786Y-71077540D01*
X137971784Y-71077539D01*
X137912849Y-71047510D01*
X137789397Y-70984607D01*
X137594708Y-70921348D01*
X137420169Y-70893704D01*
X137392526Y-70889326D01*
X137187822Y-70889326D01*
X137163503Y-70893177D01*
X136985639Y-70921348D01*
X136790950Y-70984607D01*
X136608560Y-71077541D01*
X136442960Y-71197854D01*
X136298202Y-71342612D01*
X136177889Y-71508212D01*
X136130659Y-71600906D01*
X136082684Y-71651702D01*
X136014863Y-71668497D01*
X135948728Y-71645960D01*
X135909689Y-71600906D01*
X135896685Y-71575384D01*
X135862461Y-71508216D01*
X135854730Y-71497575D01*
X135742145Y-71342612D01*
X135597387Y-71197854D01*
X135431787Y-71077541D01*
X135431786Y-71077540D01*
X135431784Y-71077539D01*
X135372849Y-71047510D01*
X135249397Y-70984607D01*
X135054708Y-70921348D01*
X134880169Y-70893704D01*
X134852526Y-70889326D01*
X134659270Y-70889326D01*
X134592231Y-70869641D01*
X134546476Y-70816837D01*
X134536532Y-70747679D01*
X134565557Y-70684123D01*
X134571589Y-70677645D01*
X136976768Y-68272466D01*
X139385332Y-65863901D01*
X139446653Y-65830418D01*
X139511325Y-65833651D01*
X139525640Y-65838303D01*
X139727822Y-65870326D01*
X139727823Y-65870326D01*
X139932525Y-65870326D01*
X139932526Y-65870326D01*
X140134708Y-65838303D01*
X140329393Y-65775046D01*
X140511784Y-65682113D01*
X140604764Y-65614558D01*
X140677387Y-65561797D01*
X140677389Y-65561794D01*
X140677393Y-65561792D01*
X140822140Y-65417045D01*
X140822142Y-65417041D01*
X140822145Y-65417039D01*
X140942458Y-65251440D01*
X140942459Y-65251439D01*
X140942461Y-65251436D01*
X140949291Y-65238030D01*
X140997265Y-65187235D01*
X141059776Y-65170326D01*
X144200077Y-65170326D01*
X144267116Y-65190011D01*
X144287758Y-65206645D01*
X146333355Y-67252242D01*
X146366840Y-67313565D01*
X146369674Y-67339923D01*
X146369674Y-69754866D01*
X146349989Y-69821905D01*
X146301969Y-69865351D01*
X146161135Y-69937109D01*
X146055570Y-70013806D01*
X145976108Y-70071540D01*
X145976106Y-70071542D01*
X145976105Y-70071542D01*
X145814390Y-70233257D01*
X145814390Y-70233258D01*
X145814388Y-70233260D01*
X145769836Y-70294581D01*
X145679957Y-70418287D01*
X145576124Y-70622070D01*
X145505452Y-70839576D01*
X145505452Y-70839579D01*
X145469674Y-71065472D01*
X145469674Y-71294179D01*
X145505452Y-71520072D01*
X145505452Y-71520075D01*
X145576124Y-71737581D01*
X145679173Y-71939826D01*
X145679957Y-71941364D01*
X145814388Y-72126392D01*
X145976108Y-72288112D01*
X146061038Y-72349817D01*
X146103703Y-72405147D01*
X146109682Y-72474761D01*
X146077076Y-72536556D01*
X146061038Y-72550453D01*
X145976431Y-72611923D01*
X145814771Y-72773583D01*
X145680385Y-72958549D01*
X145576591Y-73162255D01*
X145505939Y-73379697D01*
X145491665Y-73469826D01*
X146479426Y-73469826D01*
X146457656Y-73507534D01*
X146420174Y-73647417D01*
X146420174Y-73792235D01*
X146457656Y-73932118D01*
X146479426Y-73969826D01*
X145491665Y-73969826D01*
X145505939Y-74059954D01*
X145576591Y-74277396D01*
X145680387Y-74481105D01*
X145813185Y-74663886D01*
X145836665Y-74729692D01*
X145820840Y-74797746D01*
X145770734Y-74846441D01*
X145756200Y-74852953D01*
X145727845Y-74863528D01*
X145727838Y-74863532D01*
X145612629Y-74949778D01*
X145612626Y-74949781D01*
X145526380Y-75064990D01*
X145526376Y-75064997D01*
X145476082Y-75199843D01*
X145469675Y-75259442D01*
X145469675Y-75259449D01*
X145469674Y-75259461D01*
X145469674Y-77260196D01*
X145469675Y-77260202D01*
X145476082Y-77319809D01*
X145526376Y-77454654D01*
X145526380Y-77454661D01*
X145612626Y-77569870D01*
X145612629Y-77569873D01*
X145727838Y-77656119D01*
X145727845Y-77656123D01*
X145862691Y-77706417D01*
X145862690Y-77706417D01*
X145869618Y-77707161D01*
X145922301Y-77712826D01*
X148018046Y-77712825D01*
X148077657Y-77706417D01*
X148212505Y-77656122D01*
X148327720Y-77569872D01*
X148413970Y-77454657D01*
X148464265Y-77319809D01*
X148470674Y-77260199D01*
X148470674Y-76984326D01*
X148490359Y-76917287D01*
X148543163Y-76871532D01*
X148594674Y-76860326D01*
X152335674Y-76860326D01*
X152402713Y-76880011D01*
X152448468Y-76932815D01*
X152459674Y-76984326D01*
X152459674Y-77872696D01*
X152459675Y-77872702D01*
X152466082Y-77932309D01*
X152516376Y-78067154D01*
X152516380Y-78067161D01*
X152602626Y-78182370D01*
X152602629Y-78182373D01*
X152717838Y-78268619D01*
X152717845Y-78268623D01*
X152852691Y-78318917D01*
X152852690Y-78318917D01*
X152859618Y-78319661D01*
X152912301Y-78325326D01*
X154708046Y-78325325D01*
X154767657Y-78318917D01*
X154902505Y-78268622D01*
X155017720Y-78182372D01*
X155103970Y-78067157D01*
X155154265Y-77932309D01*
X155160674Y-77872699D01*
X155160673Y-76076954D01*
X155154265Y-76017343D01*
X155131406Y-75956056D01*
X155103971Y-75882497D01*
X155103967Y-75882490D01*
X155017721Y-75767281D01*
X155017718Y-75767278D01*
X154902509Y-75681032D01*
X154902502Y-75681028D01*
X154767656Y-75630734D01*
X154767657Y-75630734D01*
X154708057Y-75624327D01*
X154708055Y-75624326D01*
X154708047Y-75624326D01*
X154708039Y-75624326D01*
X154697483Y-75624326D01*
X154630444Y-75604641D01*
X154609802Y-75588007D01*
X153939582Y-74917788D01*
X154003167Y-74900751D01*
X154117181Y-74834925D01*
X154210273Y-74741833D01*
X154276099Y-74627819D01*
X154293136Y-74564234D01*
X154925444Y-75196543D01*
X154925444Y-75196542D01*
X154964796Y-75142380D01*
X155061269Y-74953043D01*
X155126931Y-74750956D01*
X155126931Y-74750953D01*
X155160174Y-74541072D01*
X155160174Y-74328579D01*
X155126931Y-74118698D01*
X155126931Y-74118695D01*
X155061269Y-73916608D01*
X154964798Y-73727275D01*
X154925444Y-73673108D01*
X154925443Y-73673108D01*
X154293136Y-74305416D01*
X154276099Y-74241833D01*
X154210273Y-74127819D01*
X154117181Y-74034727D01*
X154003167Y-73968901D01*
X153939583Y-73951863D01*
X154571890Y-73319554D01*
X154517724Y-73280201D01*
X154328391Y-73183730D01*
X154126303Y-73118068D01*
X153916420Y-73084826D01*
X153703928Y-73084826D01*
X153494046Y-73118068D01*
X153494043Y-73118068D01*
X153291956Y-73183730D01*
X153102613Y-73280206D01*
X153048456Y-73319553D01*
X153048456Y-73319554D01*
X153680765Y-73951863D01*
X153617181Y-73968901D01*
X153503167Y-74034727D01*
X153410075Y-74127819D01*
X153344249Y-74241833D01*
X153327211Y-74305417D01*
X152694902Y-73673108D01*
X152694901Y-73673108D01*
X152655554Y-73727265D01*
X152559078Y-73916608D01*
X152493416Y-74118695D01*
X152493416Y-74118698D01*
X152460174Y-74328579D01*
X152460174Y-74541072D01*
X152493416Y-74750953D01*
X152493416Y-74750956D01*
X152559078Y-74953043D01*
X152655549Y-75142376D01*
X152694902Y-75196542D01*
X153327210Y-74564233D01*
X153344249Y-74627819D01*
X153410075Y-74741833D01*
X153503167Y-74834925D01*
X153617181Y-74900751D01*
X153680764Y-74917788D01*
X153010544Y-75588007D01*
X152949221Y-75621492D01*
X152947981Y-75621755D01*
X152935547Y-75624326D01*
X152912302Y-75624327D01*
X152852691Y-75630735D01*
X152788091Y-75654828D01*
X152778780Y-75656755D01*
X152771302Y-75656143D01*
X152753662Y-75659326D01*
X148594673Y-75659326D01*
X148527634Y-75639641D01*
X148481879Y-75586837D01*
X148470673Y-75535326D01*
X148470673Y-75259455D01*
X148470672Y-75259449D01*
X148470671Y-75259442D01*
X148464265Y-75199843D01*
X148463034Y-75196543D01*
X148413971Y-75064997D01*
X148413967Y-75064990D01*
X148327721Y-74949781D01*
X148327718Y-74949778D01*
X148212509Y-74863532D01*
X148212500Y-74863527D01*
X148184148Y-74852953D01*
X148128214Y-74811083D01*
X148103796Y-74745618D01*
X148118647Y-74677345D01*
X148127162Y-74663885D01*
X148259962Y-74481102D01*
X148363756Y-74277396D01*
X148434408Y-74059954D01*
X148448683Y-73969826D01*
X147460922Y-73969826D01*
X147482692Y-73932118D01*
X147520174Y-73792235D01*
X147520174Y-73647417D01*
X147482692Y-73507534D01*
X147460922Y-73469826D01*
X148448683Y-73469826D01*
X148435440Y-73386211D01*
X148434407Y-73379694D01*
X148363756Y-73162255D01*
X148259962Y-72958549D01*
X148125576Y-72773583D01*
X147963916Y-72611923D01*
X147879309Y-72550452D01*
X147836644Y-72495122D01*
X147830665Y-72425508D01*
X147863271Y-72363713D01*
X147879299Y-72349825D01*
X147964240Y-72288112D01*
X148125960Y-72126392D01*
X148260391Y-71941364D01*
X148364222Y-71737584D01*
X148366275Y-71731267D01*
X148434895Y-71520075D01*
X148434895Y-71520074D01*
X148434896Y-71520071D01*
X148470674Y-71294180D01*
X148470674Y-71065472D01*
X148462877Y-71016247D01*
X148434896Y-70839580D01*
X148412946Y-70772026D01*
X148412945Y-70772024D01*
X148402078Y-70738579D01*
X148364222Y-70622068D01*
X148260391Y-70418288D01*
X148125960Y-70233260D01*
X147964240Y-70071540D01*
X147779212Y-69937109D01*
X147638379Y-69865351D01*
X147587583Y-69817376D01*
X147570674Y-69754866D01*
X147570674Y-69029326D01*
X147590359Y-68962287D01*
X147643163Y-68916532D01*
X147694674Y-68905326D01*
X152365675Y-68905326D01*
X152432714Y-68925011D01*
X152478469Y-68977815D01*
X152489675Y-69029326D01*
X152489675Y-69202702D01*
X152496082Y-69262309D01*
X152546376Y-69397154D01*
X152546380Y-69397161D01*
X152632626Y-69512370D01*
X152632629Y-69512373D01*
X152747838Y-69598619D01*
X152747845Y-69598623D01*
X152792792Y-69615387D01*
X152882691Y-69648917D01*
X152942301Y-69655326D01*
X152952859Y-69655325D01*
X153019897Y-69675005D01*
X153040546Y-69691644D01*
X153710765Y-70361863D01*
X153647181Y-70378901D01*
X153533167Y-70444727D01*
X153440075Y-70537819D01*
X153374249Y-70651833D01*
X153357211Y-70715417D01*
X152724902Y-70083108D01*
X152724901Y-70083108D01*
X152685554Y-70137265D01*
X152589078Y-70326608D01*
X152523416Y-70528695D01*
X152523416Y-70528698D01*
X152490174Y-70738579D01*
X152490174Y-70951072D01*
X152523416Y-71160953D01*
X152523416Y-71160956D01*
X152589078Y-71363043D01*
X152685549Y-71552376D01*
X152724902Y-71606542D01*
X153357211Y-70974234D01*
X153374249Y-71037819D01*
X153440075Y-71151833D01*
X153533167Y-71244925D01*
X153647181Y-71310751D01*
X153710764Y-71327788D01*
X153078456Y-71960095D01*
X153078456Y-71960096D01*
X153132623Y-71999450D01*
X153321956Y-72095921D01*
X153524044Y-72161583D01*
X153733928Y-72194826D01*
X153946420Y-72194826D01*
X154156301Y-72161583D01*
X154156304Y-72161583D01*
X154358391Y-72095921D01*
X154547728Y-71999448D01*
X154601890Y-71960096D01*
X154601891Y-71960096D01*
X153969582Y-71327788D01*
X154033167Y-71310751D01*
X154147181Y-71244925D01*
X154240273Y-71151833D01*
X154306099Y-71037819D01*
X154323136Y-70974234D01*
X154955444Y-71606543D01*
X154955444Y-71606542D01*
X154994796Y-71552380D01*
X155091269Y-71363043D01*
X155156931Y-71160956D01*
X155156931Y-71160953D01*
X155190174Y-70951072D01*
X155190174Y-70738579D01*
X155156931Y-70528698D01*
X155156931Y-70528695D01*
X155091269Y-70326608D01*
X154994798Y-70137275D01*
X154955444Y-70083108D01*
X154955443Y-70083108D01*
X154323136Y-70715416D01*
X154306099Y-70651833D01*
X154240273Y-70537819D01*
X154147181Y-70444727D01*
X154033167Y-70378901D01*
X153969583Y-70361863D01*
X154639801Y-69691644D01*
X154701124Y-69658159D01*
X154727481Y-69655325D01*
X154738046Y-69655325D01*
X154797657Y-69648917D01*
X154932505Y-69598622D01*
X155047720Y-69512372D01*
X155133970Y-69397157D01*
X155184265Y-69262309D01*
X155190674Y-69202699D01*
X155190673Y-67406954D01*
X155184265Y-67347343D01*
X155180551Y-67337386D01*
X155133971Y-67212497D01*
X155133967Y-67212490D01*
X155047721Y-67097281D01*
X155047718Y-67097278D01*
X154932509Y-67011032D01*
X154932502Y-67011028D01*
X154797656Y-66960734D01*
X154797657Y-66960734D01*
X154738057Y-66954327D01*
X154738055Y-66954326D01*
X154738047Y-66954326D01*
X154738038Y-66954326D01*
X152942303Y-66954326D01*
X152942297Y-66954327D01*
X152882690Y-66960734D01*
X152747845Y-67011028D01*
X152747838Y-67011032D01*
X152632629Y-67097278D01*
X152632626Y-67097281D01*
X152546380Y-67212490D01*
X152546376Y-67212497D01*
X152496082Y-67347343D01*
X152489675Y-67406942D01*
X152489675Y-67406949D01*
X152489674Y-67406961D01*
X152489674Y-67580326D01*
X152469989Y-67647365D01*
X152417185Y-67693120D01*
X152365674Y-67704326D01*
X147694674Y-67704326D01*
X147627635Y-67684641D01*
X147581880Y-67631837D01*
X147570674Y-67580326D01*
X147570674Y-66960771D01*
X147570674Y-66960769D01*
X147529751Y-66808042D01*
X147529747Y-66808035D01*
X147450698Y-66671116D01*
X147450695Y-66671112D01*
X147450694Y-66671110D01*
X147338890Y-66559306D01*
X147338889Y-66559305D01*
X147334559Y-66554975D01*
X147334548Y-66554965D01*
X144987764Y-64208181D01*
X144987762Y-64208178D01*
X144868891Y-64089307D01*
X144868890Y-64089306D01*
X144765134Y-64029403D01*
X144765133Y-64029402D01*
X144731957Y-64010248D01*
X144676055Y-63995269D01*
X144579231Y-63969325D01*
X144421117Y-63969325D01*
X144413521Y-63969325D01*
X144413505Y-63969326D01*
X141059776Y-63969326D01*
X140992737Y-63949641D01*
X140949291Y-63901621D01*
X140942458Y-63888211D01*
X140822145Y-63722612D01*
X140677387Y-63577854D01*
X140511787Y-63457541D01*
X140511786Y-63457540D01*
X140511784Y-63457539D01*
X140454827Y-63428517D01*
X140329397Y-63364607D01*
X140134708Y-63301348D01*
X139960169Y-63273704D01*
X139932526Y-63269326D01*
X139727822Y-63269326D01*
X139703503Y-63273177D01*
X139525639Y-63301348D01*
X139330950Y-63364607D01*
X139148560Y-63457541D01*
X138982960Y-63577854D01*
X138838202Y-63722612D01*
X138717889Y-63888212D01*
X138670659Y-63980906D01*
X138622684Y-64031702D01*
X138554863Y-64048497D01*
X138488728Y-64025960D01*
X138449689Y-63980906D01*
X138443788Y-63969325D01*
X138402461Y-63888216D01*
X138366366Y-63838535D01*
X138282145Y-63722612D01*
X138137387Y-63577854D01*
X137971787Y-63457541D01*
X137971786Y-63457540D01*
X137971784Y-63457539D01*
X137914827Y-63428517D01*
X137789397Y-63364607D01*
X137594708Y-63301348D01*
X137420169Y-63273704D01*
X137392526Y-63269326D01*
X137187822Y-63269326D01*
X137163503Y-63273177D01*
X136985639Y-63301348D01*
X136790950Y-63364607D01*
X136608560Y-63457541D01*
X136442960Y-63577854D01*
X136298202Y-63722612D01*
X136177889Y-63888212D01*
X136130659Y-63980906D01*
X136082684Y-64031702D01*
X136014863Y-64048497D01*
X135948728Y-64025960D01*
X135909689Y-63980906D01*
X135903788Y-63969325D01*
X135862461Y-63888216D01*
X135826366Y-63838535D01*
X135742145Y-63722612D01*
X135597387Y-63577854D01*
X135431787Y-63457541D01*
X135431786Y-63457540D01*
X135431784Y-63457539D01*
X135374827Y-63428517D01*
X135249397Y-63364607D01*
X135054708Y-63301348D01*
X134880169Y-63273704D01*
X134852526Y-63269326D01*
X134647822Y-63269326D01*
X134623503Y-63273177D01*
X134445639Y-63301348D01*
X134250950Y-63364607D01*
X134068560Y-63457541D01*
X133902960Y-63577854D01*
X133758202Y-63722612D01*
X133637889Y-63888212D01*
X133590659Y-63980906D01*
X133542684Y-64031702D01*
X133474863Y-64048497D01*
X133408728Y-64025960D01*
X133369689Y-63980906D01*
X133363788Y-63969325D01*
X133322461Y-63888216D01*
X133286366Y-63838535D01*
X133202145Y-63722612D01*
X133057389Y-63577856D01*
X132962855Y-63509175D01*
X132920188Y-63453845D01*
X132914208Y-63384232D01*
X132946814Y-63322437D01*
X132947988Y-63321245D01*
X133405332Y-62863901D01*
X133466653Y-62830418D01*
X133531325Y-62833651D01*
X133545640Y-62838303D01*
X133747822Y-62870326D01*
X133747823Y-62870326D01*
X133952525Y-62870326D01*
X133952526Y-62870326D01*
X134154708Y-62838303D01*
X134349393Y-62775046D01*
X134531784Y-62682113D01*
X134624764Y-62614558D01*
X134697387Y-62561797D01*
X134697389Y-62561794D01*
X134697393Y-62561792D01*
X134842140Y-62417045D01*
X134842142Y-62417041D01*
X134842145Y-62417039D01*
X134894906Y-62344416D01*
X134962461Y-62251436D01*
X135055394Y-62069045D01*
X135118651Y-61874360D01*
X135150674Y-61672178D01*
X135150674Y-61467508D01*
X137550174Y-61467508D01*
X137550174Y-61672143D01*
X137582183Y-61874243D01*
X137645418Y-62068857D01*
X137738315Y-62251176D01*
X137738321Y-62251185D01*
X137770697Y-62295747D01*
X137770698Y-62295748D01*
X138450174Y-61616272D01*
X138450174Y-61622487D01*
X138477433Y-61724220D01*
X138530094Y-61815432D01*
X138604568Y-61889906D01*
X138695780Y-61942567D01*
X138797513Y-61969826D01*
X138803727Y-61969826D01*
X138124250Y-62649300D01*
X138168824Y-62681685D01*
X138351142Y-62774581D01*
X138545756Y-62837816D01*
X138747857Y-62869826D01*
X138952491Y-62869826D01*
X139154591Y-62837816D01*
X139349205Y-62774581D01*
X139531523Y-62681685D01*
X139576095Y-62649300D01*
X138896621Y-61969826D01*
X138902835Y-61969826D01*
X139004568Y-61942567D01*
X139095780Y-61889906D01*
X139170254Y-61815432D01*
X139222915Y-61724220D01*
X139250174Y-61622487D01*
X139250174Y-61616273D01*
X139929648Y-62295747D01*
X139962033Y-62251175D01*
X140054929Y-62068857D01*
X140118164Y-61874243D01*
X140150174Y-61672143D01*
X140150174Y-61467508D01*
X140118164Y-61265408D01*
X140054929Y-61070794D01*
X139962033Y-60888476D01*
X139929648Y-60843903D01*
X139929648Y-60843902D01*
X139250174Y-61523377D01*
X139250174Y-61517165D01*
X139222915Y-61415432D01*
X139170254Y-61324220D01*
X139095780Y-61249746D01*
X139004568Y-61197085D01*
X138902835Y-61169826D01*
X138896620Y-61169826D01*
X139576096Y-60490350D01*
X139576095Y-60490349D01*
X139531533Y-60457973D01*
X139531524Y-60457967D01*
X139349205Y-60365070D01*
X139154591Y-60301835D01*
X138952491Y-60269826D01*
X138747857Y-60269826D01*
X138545756Y-60301835D01*
X138351142Y-60365070D01*
X138168818Y-60457969D01*
X138124251Y-60490349D01*
X138124251Y-60490350D01*
X138803728Y-61169826D01*
X138797513Y-61169826D01*
X138695780Y-61197085D01*
X138604568Y-61249746D01*
X138530094Y-61324220D01*
X138477433Y-61415432D01*
X138450174Y-61517165D01*
X138450174Y-61523379D01*
X137770698Y-60843903D01*
X137770697Y-60843903D01*
X137738317Y-60888470D01*
X137645418Y-61070794D01*
X137582183Y-61265408D01*
X137550174Y-61467508D01*
X135150674Y-61467508D01*
X135150674Y-61467474D01*
X135133567Y-61359469D01*
X135118651Y-61265291D01*
X135084398Y-61159871D01*
X135055394Y-61070607D01*
X135055392Y-61070604D01*
X135055392Y-61070602D01*
X135007752Y-60977105D01*
X134962461Y-60888216D01*
X134948596Y-60869132D01*
X134842145Y-60722612D01*
X134697387Y-60577854D01*
X134531787Y-60457541D01*
X134531786Y-60457540D01*
X134531784Y-60457539D01*
X134474827Y-60428517D01*
X134349397Y-60364607D01*
X134154708Y-60301348D01*
X133980169Y-60273704D01*
X133952526Y-60269326D01*
X133747822Y-60269326D01*
X133723503Y-60273177D01*
X133545639Y-60301348D01*
X133350950Y-60364607D01*
X133168560Y-60457541D01*
X133002960Y-60577854D01*
X132858202Y-60722612D01*
X132737889Y-60888212D01*
X132644955Y-61070602D01*
X132581696Y-61265291D01*
X132549674Y-61467474D01*
X132549674Y-61672177D01*
X132581696Y-61874360D01*
X132586347Y-61888674D01*
X132588339Y-61958516D01*
X132556095Y-62014668D01*
X131844865Y-62725898D01*
X131844859Y-62725904D01*
X131841460Y-62729304D01*
X131841458Y-62729306D01*
X131729654Y-62841110D01*
X131700984Y-62890769D01*
X131695255Y-62900691D01*
X131695253Y-62900694D01*
X131685085Y-62918306D01*
X131650597Y-62978041D01*
X131609673Y-63130769D01*
X131609673Y-63130771D01*
X131609673Y-63298872D01*
X131609674Y-63298885D01*
X131609674Y-63340223D01*
X131589989Y-63407262D01*
X131541974Y-63450705D01*
X131528563Y-63457538D01*
X131362960Y-63577854D01*
X131218202Y-63722612D01*
X131097889Y-63888212D01*
X131004955Y-64070602D01*
X130941696Y-64265291D01*
X130909674Y-64467474D01*
X130909674Y-64672177D01*
X130941696Y-64874360D01*
X131004955Y-65069049D01*
X131097889Y-65251439D01*
X131218202Y-65417039D01*
X131362960Y-65561797D01*
X131517923Y-65674382D01*
X131528564Y-65682113D01*
X131644781Y-65741329D01*
X131710950Y-65775044D01*
X131710952Y-65775044D01*
X131710955Y-65775046D01*
X131787220Y-65799826D01*
X131905639Y-65838303D01*
X132006731Y-65854314D01*
X132107822Y-65870326D01*
X132107823Y-65870326D01*
X132301076Y-65870326D01*
X132368115Y-65890011D01*
X132413870Y-65942815D01*
X132423814Y-66011973D01*
X132394789Y-66075529D01*
X132388757Y-66082007D01*
X132017758Y-66453007D01*
X131956435Y-66486492D01*
X131930077Y-66489326D01*
X127672337Y-66489326D01*
X127605298Y-66469641D01*
X127559543Y-66416837D01*
X127551085Y-66391285D01*
X127550174Y-66387033D01*
X127506854Y-66256302D01*
X127494988Y-66220492D01*
X127402886Y-66071170D01*
X127278830Y-65947114D01*
X127129508Y-65855012D01*
X126962971Y-65799827D01*
X126962969Y-65799826D01*
X126860184Y-65789326D01*
X125660172Y-65789326D01*
X125660155Y-65789327D01*
X125557377Y-65799826D01*
X125557374Y-65799827D01*
X125390842Y-65855011D01*
X125390837Y-65855013D01*
X125241516Y-65947115D01*
X125117463Y-66071168D01*
X125025361Y-66220489D01*
X125025359Y-66220494D01*
X125014074Y-66254550D01*
X124970175Y-66387029D01*
X124970175Y-66387030D01*
X124970174Y-66387030D01*
X124959674Y-66489809D01*
X124959674Y-67689827D01*
X124959675Y-67689844D01*
X124970174Y-67792622D01*
X124970175Y-67792625D01*
X124979948Y-67822117D01*
X125025360Y-67959160D01*
X125116750Y-68107328D01*
X125117463Y-68108483D01*
X125186684Y-68177704D01*
X125220169Y-68239027D01*
X125215185Y-68308719D01*
X125199322Y-68338270D01*
X125148313Y-68408477D01*
X125055418Y-68590794D01*
X124992183Y-68785408D01*
X124960174Y-68987508D01*
X124960174Y-69192143D01*
X124992183Y-69394243D01*
X125055418Y-69588857D01*
X125148315Y-69771176D01*
X125148321Y-69771185D01*
X125180697Y-69815747D01*
X125180698Y-69815748D01*
X125860174Y-69136272D01*
X125860174Y-69142487D01*
X125887433Y-69244220D01*
X125940094Y-69335432D01*
X126014568Y-69409906D01*
X126105780Y-69462567D01*
X126207513Y-69489826D01*
X126213727Y-69489826D01*
X125534250Y-70169300D01*
X125578824Y-70201685D01*
X125761142Y-70294581D01*
X125955756Y-70357816D01*
X126157857Y-70389826D01*
X126362491Y-70389826D01*
X126564591Y-70357816D01*
X126759205Y-70294581D01*
X126941523Y-70201685D01*
X126986095Y-70169300D01*
X126306621Y-69489826D01*
X126312835Y-69489826D01*
X126414568Y-69462567D01*
X126505780Y-69409906D01*
X126580254Y-69335432D01*
X126632915Y-69244220D01*
X126660174Y-69142487D01*
X126660174Y-69136273D01*
X127339648Y-69815747D01*
X127372033Y-69771175D01*
X127464929Y-69588857D01*
X127528164Y-69394243D01*
X127560174Y-69192143D01*
X127560174Y-68987508D01*
X127528164Y-68785408D01*
X127464929Y-68590794D01*
X127372031Y-68408472D01*
X127321027Y-68338272D01*
X127297546Y-68272466D01*
X127313371Y-68204412D01*
X127333663Y-68177705D01*
X127361461Y-68149907D01*
X127402886Y-68108482D01*
X127494988Y-67959160D01*
X127550173Y-67792623D01*
X127550173Y-67792619D01*
X127551086Y-67788359D01*
X127584373Y-67726928D01*
X127645588Y-67693245D01*
X127672337Y-67690326D01*
X132143505Y-67690326D01*
X132143521Y-67690327D01*
X132151117Y-67690327D01*
X132309228Y-67690327D01*
X132309231Y-67690327D01*
X132461959Y-67649403D01*
X132512078Y-67620465D01*
X132598890Y-67570346D01*
X132710694Y-67458542D01*
X132710694Y-67458540D01*
X132720902Y-67448333D01*
X132720904Y-67448330D01*
X134305332Y-65863901D01*
X134366653Y-65830418D01*
X134431325Y-65833651D01*
X134445640Y-65838303D01*
X134647822Y-65870326D01*
X134647823Y-65870326D01*
X134852525Y-65870326D01*
X134852526Y-65870326D01*
X135054708Y-65838303D01*
X135249393Y-65775046D01*
X135431784Y-65682113D01*
X135524764Y-65614558D01*
X135597387Y-65561797D01*
X135597389Y-65561794D01*
X135597393Y-65561792D01*
X135742140Y-65417045D01*
X135742142Y-65417041D01*
X135742145Y-65417039D01*
X135862458Y-65251440D01*
X135862459Y-65251439D01*
X135862461Y-65251436D01*
X135909690Y-65158743D01*
X135957663Y-65107949D01*
X136025484Y-65091154D01*
X136091619Y-65113691D01*
X136130657Y-65158743D01*
X136155065Y-65206645D01*
X136177889Y-65251440D01*
X136298202Y-65417039D01*
X136442960Y-65561797D01*
X136597923Y-65674382D01*
X136608564Y-65682113D01*
X136724781Y-65741329D01*
X136790950Y-65775044D01*
X136790952Y-65775044D01*
X136790955Y-65775046D01*
X136867220Y-65799826D01*
X136985639Y-65838303D01*
X137086731Y-65854314D01*
X137187822Y-65870326D01*
X137187823Y-65870326D01*
X137381076Y-65870326D01*
X137448115Y-65890011D01*
X137493870Y-65942815D01*
X137503814Y-66011973D01*
X137474789Y-66075529D01*
X137468757Y-66082007D01*
X132655016Y-70895747D01*
X132593693Y-70929232D01*
X132529022Y-70925999D01*
X132514708Y-70921348D01*
X132340169Y-70893704D01*
X132312526Y-70889326D01*
X132107822Y-70889326D01*
X132083503Y-70893177D01*
X131905639Y-70921348D01*
X131710950Y-70984607D01*
X131528560Y-71077541D01*
X131362960Y-71197854D01*
X131218202Y-71342612D01*
X131097889Y-71508212D01*
X131004955Y-71690602D01*
X130941696Y-71885291D01*
X130909674Y-72087474D01*
X130909674Y-72292177D01*
X130941696Y-72494359D01*
X130953768Y-72531513D01*
X130955762Y-72601354D01*
X130943299Y-72631698D01*
X130942857Y-72632464D01*
X130942649Y-72632826D01*
X130897347Y-72711291D01*
X130856423Y-72864019D01*
X130856423Y-72864021D01*
X130856423Y-73032122D01*
X130856424Y-73032135D01*
X130856424Y-75670223D01*
X130836739Y-75737262D01*
X130788724Y-75780705D01*
X130775313Y-75787538D01*
X130609710Y-75907854D01*
X130464952Y-76052612D01*
X130344639Y-76218212D01*
X130251705Y-76400602D01*
X130188446Y-76595291D01*
X130156424Y-76797474D01*
X130156424Y-77002177D01*
X130188446Y-77204360D01*
X130251705Y-77399049D01*
X130315615Y-77524479D01*
X130338745Y-77569873D01*
X130344639Y-77581439D01*
X130464952Y-77747039D01*
X130490557Y-77772644D01*
X130524042Y-77833967D01*
X130519058Y-77903659D01*
X130477186Y-77959592D01*
X130411722Y-77984009D01*
X130402876Y-77984325D01*
X123282020Y-77984325D01*
X123214981Y-77964640D01*
X123194339Y-77948006D01*
X122591001Y-77344668D01*
X122557516Y-77283345D01*
X122560752Y-77218667D01*
X122565401Y-77204360D01*
X122597424Y-77002178D01*
X122597424Y-76797474D01*
X122573103Y-76643918D01*
X122565401Y-76595291D01*
X122512554Y-76432645D01*
X122502144Y-76400607D01*
X122502142Y-76400604D01*
X122502142Y-76400602D01*
X122439257Y-76277185D01*
X122409211Y-76218216D01*
X122399453Y-76204785D01*
X122288895Y-76052612D01*
X122144137Y-75907854D01*
X121978537Y-75787541D01*
X121978536Y-75787540D01*
X121978534Y-75787539D01*
X121921577Y-75758517D01*
X121796147Y-75694607D01*
X121601458Y-75631348D01*
X121426919Y-75603704D01*
X121399276Y-75599326D01*
X121194572Y-75599326D01*
X121170253Y-75603177D01*
X120992389Y-75631348D01*
X120797700Y-75694607D01*
X120615310Y-75787541D01*
X120449710Y-75907854D01*
X120304952Y-76052612D01*
X120184639Y-76218212D01*
X120091705Y-76400602D01*
X120028446Y-76595291D01*
X119996424Y-76797474D01*
X117310674Y-76797474D01*
X117310674Y-68201269D01*
X117330359Y-68134230D01*
X117346993Y-68113588D01*
X119448608Y-66011973D01*
X121622040Y-63838542D01*
X121701097Y-63701610D01*
X121742021Y-63548883D01*
X121742021Y-63390768D01*
X121742021Y-63383173D01*
X121742020Y-63383155D01*
X121742020Y-59908176D01*
X121761705Y-59841137D01*
X121809726Y-59797691D01*
X121842266Y-59781111D01*
X121875542Y-59764156D01*
X122053885Y-59634583D01*
X122209762Y-59478706D01*
X122339335Y-59300363D01*
X122439415Y-59103947D01*
X122507535Y-58894292D01*
X122542020Y-58676563D01*
X122542020Y-58456119D01*
X122507535Y-58238390D01*
X122439415Y-58028735D01*
X122439415Y-58028734D01*
X122397157Y-57945800D01*
X122339335Y-57832319D01*
X122316379Y-57800723D01*
X122209767Y-57653982D01*
X122209763Y-57653977D01*
X122053883Y-57498097D01*
X122053878Y-57498093D01*
X121875545Y-57368528D01*
X121875544Y-57368527D01*
X121875542Y-57368526D01*
X121812616Y-57336463D01*
X121679126Y-57268445D01*
X121679123Y-57268444D01*
X121469472Y-57200326D01*
X121360606Y-57183083D01*
X121251742Y-57165841D01*
X121031298Y-57165841D01*
X120958721Y-57177336D01*
X120813567Y-57200326D01*
X120603916Y-57268444D01*
X120603913Y-57268445D01*
X120407494Y-57368528D01*
X120229161Y-57498093D01*
X120229156Y-57498097D01*
X120073276Y-57653977D01*
X120073272Y-57653982D01*
X119943707Y-57832315D01*
X119843624Y-58028734D01*
X119843623Y-58028737D01*
X119775505Y-58238388D01*
X119764405Y-58308470D01*
X119734475Y-58371604D01*
X119675164Y-58408535D01*
X119605301Y-58407537D01*
X119573410Y-58392418D01*
X119502327Y-58345287D01*
X119383251Y-58308470D01*
X119364826Y-58302773D01*
X119364825Y-58302772D01*
X119364822Y-58302772D01*
X119220922Y-58300716D01*
X119220918Y-58300717D01*
X119082261Y-58339289D01*
X119030273Y-58369138D01*
X119030260Y-58369147D01*
X117563059Y-59435134D01*
X117497253Y-59458614D01*
X117490174Y-59458816D01*
X116814246Y-59458816D01*
X116747207Y-59439131D01*
X116701452Y-59386327D01*
X116691508Y-59317169D01*
X116720533Y-59253613D01*
X116735991Y-59238628D01*
X116916206Y-59092012D01*
X116919501Y-59089423D01*
X117787416Y-58431263D01*
X117790742Y-58428830D01*
X118680600Y-57800699D01*
X118684031Y-57798363D01*
X119594846Y-57200960D01*
X119598391Y-57198720D01*
X120528992Y-56632809D01*
X120532614Y-56630690D01*
X121482053Y-56096847D01*
X121485704Y-56094876D01*
X122452836Y-55593749D01*
X122456539Y-55591910D01*
X123440167Y-55124117D01*
X123444011Y-55122369D01*
X123534086Y-55083244D01*
X124443006Y-54688444D01*
X124446895Y-54686834D01*
X125349774Y-54330784D01*
X125460157Y-54287254D01*
X125464053Y-54285794D01*
X126490377Y-53921038D01*
X126494323Y-53919711D01*
X126606156Y-53884216D01*
X126676008Y-53882699D01*
X126735593Y-53919187D01*
X126765992Y-53982097D01*
X126761598Y-54040725D01*
X126706706Y-54209667D01*
X126694417Y-54287258D01*
X126666731Y-54462058D01*
X126666731Y-54528816D01*
X126666731Y-54717594D01*
X126686718Y-54843788D01*
X126706706Y-54969984D01*
X126785668Y-55213009D01*
X126785669Y-55213012D01*
X126849748Y-55338772D01*
X126901681Y-55440696D01*
X127051881Y-55647428D01*
X127232572Y-55828119D01*
X127439304Y-55978319D01*
X127537036Y-56028116D01*
X127666987Y-56094330D01*
X127666990Y-56094331D01*
X127788502Y-56133812D01*
X127910017Y-56173294D01*
X128162406Y-56213269D01*
X128162407Y-56213269D01*
X128417941Y-56213269D01*
X128417942Y-56213269D01*
X128670331Y-56173294D01*
X128913360Y-56094330D01*
X129141044Y-55978319D01*
X129347776Y-55828119D01*
X129528467Y-55647428D01*
X129678667Y-55440696D01*
X129794678Y-55213012D01*
X129873642Y-54969983D01*
X129913617Y-54717594D01*
X129913617Y-54462058D01*
X129873642Y-54209669D01*
X129818800Y-54040880D01*
X129794679Y-53966642D01*
X129794678Y-53966639D01*
X129707857Y-53796244D01*
X129678667Y-53738956D01*
X129528467Y-53532224D01*
X129347776Y-53351533D01*
X129332252Y-53340254D01*
X129314711Y-53327509D01*
X129272045Y-53272179D01*
X129266067Y-53202566D01*
X129298674Y-53140771D01*
X129358235Y-53106719D01*
X129647651Y-53036191D01*
X129651667Y-53035284D01*
X130718087Y-52813679D01*
X130722244Y-52812889D01*
X131795608Y-52627822D01*
X131799718Y-52627185D01*
X132878811Y-52478867D01*
X132882910Y-52478375D01*
X133966434Y-52366986D01*
X133970606Y-52366628D01*
X135057294Y-52292297D01*
X135061405Y-52292086D01*
X135991443Y-52260314D01*
X136059114Y-52277699D01*
G37*
%TD.AperFunction*%
%TA.AperFunction,Conductor*%
G36*
X117795651Y-60679501D02*
G01*
X117828930Y-60710931D01*
X118510729Y-61649346D01*
X118510741Y-61649360D01*
X118531383Y-61672177D01*
X118550957Y-61693813D01*
X118670909Y-61773345D01*
X118808408Y-61815859D01*
X118870082Y-61816740D01*
X118952311Y-61817915D01*
X118952311Y-61817914D01*
X118952315Y-61817915D01*
X119090972Y-61779343D01*
X119142965Y-61749490D01*
X120344137Y-60876785D01*
X120409941Y-60853307D01*
X120477995Y-60869132D01*
X120526690Y-60919238D01*
X120541020Y-60977105D01*
X120541020Y-63169728D01*
X120521335Y-63236767D01*
X120504701Y-63257409D01*
X116229655Y-67532454D01*
X116229654Y-67532456D01*
X116191003Y-67599402D01*
X116150597Y-67669387D01*
X116109673Y-67822115D01*
X116109673Y-67822117D01*
X116109673Y-67990218D01*
X116109674Y-67990231D01*
X116109674Y-77553156D01*
X116109673Y-77553174D01*
X116109673Y-77718880D01*
X116109672Y-77718880D01*
X116150597Y-77871611D01*
X116162249Y-77891792D01*
X116162250Y-77891795D01*
X116229649Y-78008535D01*
X116229655Y-78008543D01*
X116348523Y-78127411D01*
X116348529Y-78127416D01*
X125361884Y-87140771D01*
X125395369Y-87202094D01*
X125398203Y-87228452D01*
X125398203Y-87963156D01*
X125398202Y-87963174D01*
X125398202Y-88128880D01*
X125398201Y-88128880D01*
X125439126Y-88281613D01*
X125439128Y-88281616D01*
X125465994Y-88328148D01*
X125465996Y-88328150D01*
X125518182Y-88418540D01*
X125518184Y-88418543D01*
X125637052Y-88537411D01*
X125637058Y-88537416D01*
X125847220Y-88747578D01*
X125866926Y-88773259D01*
X125869654Y-88777984D01*
X125981458Y-88889788D01*
X125981460Y-88889789D01*
X125981464Y-88889792D01*
X126118383Y-88968841D01*
X126118390Y-88968845D01*
X126271117Y-89009768D01*
X130670966Y-89009768D01*
X130738005Y-89029453D01*
X130739857Y-89030666D01*
X130871546Y-89118658D01*
X130871559Y-89118665D01*
X131005784Y-89174262D01*
X131017235Y-89179005D01*
X131081879Y-89191863D01*
X131172581Y-89209906D01*
X131234492Y-89242291D01*
X131236071Y-89243842D01*
X132364698Y-90372470D01*
X132398183Y-90433793D01*
X132393199Y-90503485D01*
X132351327Y-90559418D01*
X132285863Y-90583835D01*
X132277017Y-90584151D01*
X108745412Y-90584151D01*
X108678373Y-90564466D01*
X108634928Y-90516447D01*
X108601390Y-90450627D01*
X108471823Y-90272292D01*
X108471819Y-90272287D01*
X108315939Y-90116407D01*
X108315934Y-90116403D01*
X108137601Y-89986838D01*
X108137600Y-89986837D01*
X108137598Y-89986836D01*
X108074672Y-89954773D01*
X107941182Y-89886755D01*
X107941179Y-89886754D01*
X107731528Y-89818636D01*
X107622662Y-89801393D01*
X107513798Y-89784151D01*
X107293354Y-89784151D01*
X107220777Y-89795646D01*
X107075623Y-89818636D01*
X106865972Y-89886754D01*
X106865969Y-89886755D01*
X106669550Y-89986838D01*
X106491217Y-90116403D01*
X106491212Y-90116407D01*
X106335332Y-90272287D01*
X106335328Y-90272292D01*
X106205761Y-90450627D01*
X106153617Y-90552963D01*
X106105642Y-90603759D01*
X106037821Y-90620553D01*
X105971686Y-90598015D01*
X105955452Y-90584348D01*
X105189721Y-89818618D01*
X105156236Y-89757295D01*
X105155205Y-89752006D01*
X105118571Y-89539532D01*
X105055587Y-89174234D01*
X105054944Y-89170078D01*
X104906632Y-88091029D01*
X104906138Y-88086916D01*
X104794750Y-87003404D01*
X104794391Y-86999203D01*
X104720062Y-85912542D01*
X104719850Y-85908422D01*
X104682663Y-84819835D01*
X104682591Y-84815602D01*
X104682591Y-83726467D01*
X104682663Y-83722234D01*
X104683761Y-83690093D01*
X104719850Y-82633644D01*
X104720061Y-82629530D01*
X104794392Y-81542842D01*
X104794752Y-81538647D01*
X104797856Y-81508456D01*
X104906139Y-80455146D01*
X104906631Y-80451047D01*
X105054949Y-79371954D01*
X105055586Y-79367844D01*
X105116901Y-79012221D01*
X105147690Y-78949503D01*
X105151394Y-78945634D01*
X107664277Y-76432751D01*
X107725598Y-76399268D01*
X107790274Y-76402503D01*
X108071775Y-76493968D01*
X108657181Y-76684178D01*
X108715854Y-76696505D01*
X108859645Y-76690342D01*
X108859651Y-76690340D01*
X108995868Y-76643918D01*
X108995869Y-76643917D01*
X108995873Y-76643916D01*
X109113505Y-76560993D01*
X109203009Y-76448287D01*
X109227525Y-76393575D01*
X109813341Y-74590614D01*
X109825668Y-74531941D01*
X109819505Y-74388150D01*
X109819503Y-74388143D01*
X109773081Y-74251926D01*
X109773078Y-74251920D01*
X109690156Y-74134290D01*
X109623365Y-74081249D01*
X109583107Y-74024143D01*
X109580115Y-73954337D01*
X109615337Y-73893995D01*
X109644181Y-73873660D01*
X109707404Y-73841447D01*
X109885747Y-73711874D01*
X110041624Y-73555997D01*
X110171197Y-73377654D01*
X110271277Y-73181238D01*
X110339397Y-72971583D01*
X110373882Y-72753854D01*
X110373882Y-72533410D01*
X110339397Y-72315681D01*
X110271277Y-72106026D01*
X110271277Y-72106025D01*
X110196921Y-71960096D01*
X110171197Y-71909610D01*
X110090627Y-71798714D01*
X110041629Y-71731273D01*
X110041625Y-71731268D01*
X109885745Y-71575388D01*
X109885740Y-71575384D01*
X109707407Y-71445819D01*
X109707406Y-71445818D01*
X109707404Y-71445817D01*
X109623164Y-71402894D01*
X109510988Y-71345736D01*
X109510985Y-71345735D01*
X109301334Y-71277617D01*
X109192468Y-71260374D01*
X109083604Y-71243132D01*
X108863160Y-71243132D01*
X108822872Y-71249513D01*
X108645427Y-71277617D01*
X108536199Y-71313107D01*
X108466358Y-71315102D01*
X108406525Y-71279021D01*
X108375698Y-71216320D01*
X108373882Y-71195176D01*
X108373882Y-69375248D01*
X108387784Y-69318200D01*
X108522640Y-69057940D01*
X108524611Y-69054289D01*
X109058454Y-68104850D01*
X109060583Y-68101212D01*
X109626484Y-67170627D01*
X109628735Y-67167065D01*
X109667540Y-67107902D01*
X110226127Y-66256267D01*
X110228463Y-66252836D01*
X110856594Y-65362978D01*
X110859027Y-65359652D01*
X111228698Y-64872166D01*
X111239809Y-64859424D01*
X111608887Y-64490347D01*
X111608890Y-64490346D01*
X111720694Y-64378542D01*
X111770813Y-64291730D01*
X111799751Y-64241611D01*
X111833220Y-64116698D01*
X111835157Y-64111431D01*
X111841828Y-64102429D01*
X111855352Y-64075962D01*
X112207189Y-63643498D01*
X112209832Y-63640361D01*
X112925649Y-62819427D01*
X112928480Y-62816289D01*
X112990291Y-62750106D01*
X113671949Y-62020227D01*
X113674835Y-62017242D01*
X114445005Y-61247072D01*
X114448021Y-61244158D01*
X115037963Y-60693192D01*
X115100393Y-60661821D01*
X115122599Y-60659816D01*
X117728612Y-60659816D01*
X117795651Y-60679501D01*
G37*
%TD.AperFunction*%
%TD*%
M02*
