%TF.GenerationSoftware,KiCad,Pcbnew,10.0.0*%
%TF.CreationDate,2026-06-30T18:38:18+05:30*%
%TF.ProjectId,Blinky Board,426c696e-6b79-4204-926f-6172642e6b69,rev?*%
%TF.SameCoordinates,Original*%
%TF.FileFunction,Drillmap*%
%TF.FilePolarity,Positive*%
%FSLAX45Y45*%
G04 Gerber Fmt 4.5, Leading zero omitted, Abs format (unit mm)*
G04 Created by KiCad (PCBNEW 10.0.0) date 2026-06-30 18:38:18*
%MOMM*%
%LPD*%
G01*
G04 APERTURE LIST*
%ADD10C,0.050000*%
%ADD11C,0.200000*%
G04 APERTURE END LIST*
D10*
X14690017Y-5478983D02*
G75*
G02*
X14465429Y-5478983I-112294J0D01*
G01*
X14465429Y-5478983D02*
G75*
G02*
X14690017Y-5478983I112294J0D01*
G01*
X17172020Y-8432983D02*
G75*
G02*
X10172015Y-8432983I-3500002J0D01*
G01*
X10172015Y-8432983D02*
G75*
G02*
X17172020Y-8432983I3500002J0D01*
G01*
X12941312Y-5458983D02*
G75*
G02*
X12716723Y-5458983I-112294J0D01*
G01*
X12716723Y-5458983D02*
G75*
G02*
X12941312Y-5458983I112294J0D01*
G01*
D11*
X10430292Y-12246969D02*
X10430292Y-12046969D01*
X10430292Y-12046969D02*
X10477911Y-12046969D01*
X10477911Y-12046969D02*
X10506482Y-12056492D01*
X10506482Y-12056492D02*
X10525530Y-12075540D01*
X10525530Y-12075540D02*
X10535054Y-12094588D01*
X10535054Y-12094588D02*
X10544578Y-12132683D01*
X10544578Y-12132683D02*
X10544578Y-12161254D01*
X10544578Y-12161254D02*
X10535054Y-12199350D01*
X10535054Y-12199350D02*
X10525530Y-12218397D01*
X10525530Y-12218397D02*
X10506482Y-12237445D01*
X10506482Y-12237445D02*
X10477911Y-12246969D01*
X10477911Y-12246969D02*
X10430292Y-12246969D01*
X10630292Y-12246969D02*
X10630292Y-12113635D01*
X10630292Y-12151731D02*
X10639816Y-12132683D01*
X10639816Y-12132683D02*
X10649340Y-12123159D01*
X10649340Y-12123159D02*
X10668387Y-12113635D01*
X10668387Y-12113635D02*
X10687435Y-12113635D01*
X10754101Y-12246969D02*
X10754101Y-12113635D01*
X10754101Y-12046969D02*
X10744578Y-12056492D01*
X10744578Y-12056492D02*
X10754101Y-12066016D01*
X10754101Y-12066016D02*
X10763625Y-12056492D01*
X10763625Y-12056492D02*
X10754101Y-12046969D01*
X10754101Y-12046969D02*
X10754101Y-12066016D01*
X10877911Y-12246969D02*
X10858863Y-12237445D01*
X10858863Y-12237445D02*
X10849340Y-12218397D01*
X10849340Y-12218397D02*
X10849340Y-12046969D01*
X10982673Y-12246969D02*
X10963625Y-12237445D01*
X10963625Y-12237445D02*
X10954101Y-12218397D01*
X10954101Y-12218397D02*
X10954101Y-12046969D01*
X11211244Y-12246969D02*
X11211244Y-12046969D01*
X11211244Y-12046969D02*
X11277911Y-12189826D01*
X11277911Y-12189826D02*
X11344578Y-12046969D01*
X11344578Y-12046969D02*
X11344578Y-12246969D01*
X11525530Y-12246969D02*
X11525530Y-12142207D01*
X11525530Y-12142207D02*
X11516006Y-12123159D01*
X11516006Y-12123159D02*
X11496959Y-12113635D01*
X11496959Y-12113635D02*
X11458863Y-12113635D01*
X11458863Y-12113635D02*
X11439816Y-12123159D01*
X11525530Y-12237445D02*
X11506482Y-12246969D01*
X11506482Y-12246969D02*
X11458863Y-12246969D01*
X11458863Y-12246969D02*
X11439816Y-12237445D01*
X11439816Y-12237445D02*
X11430292Y-12218397D01*
X11430292Y-12218397D02*
X11430292Y-12199350D01*
X11430292Y-12199350D02*
X11439816Y-12180302D01*
X11439816Y-12180302D02*
X11458863Y-12170778D01*
X11458863Y-12170778D02*
X11506482Y-12170778D01*
X11506482Y-12170778D02*
X11525530Y-12161254D01*
X11620768Y-12113635D02*
X11620768Y-12313635D01*
X11620768Y-12123159D02*
X11639816Y-12113635D01*
X11639816Y-12113635D02*
X11677911Y-12113635D01*
X11677911Y-12113635D02*
X11696959Y-12123159D01*
X11696959Y-12123159D02*
X11706482Y-12132683D01*
X11706482Y-12132683D02*
X11716006Y-12151731D01*
X11716006Y-12151731D02*
X11716006Y-12208873D01*
X11716006Y-12208873D02*
X11706482Y-12227921D01*
X11706482Y-12227921D02*
X11696959Y-12237445D01*
X11696959Y-12237445D02*
X11677911Y-12246969D01*
X11677911Y-12246969D02*
X11639816Y-12246969D01*
X11639816Y-12246969D02*
X11620768Y-12237445D01*
X11801720Y-12227921D02*
X11811244Y-12237445D01*
X11811244Y-12237445D02*
X11801720Y-12246969D01*
X11801720Y-12246969D02*
X11792197Y-12237445D01*
X11792197Y-12237445D02*
X11801720Y-12227921D01*
X11801720Y-12227921D02*
X11801720Y-12246969D01*
X11801720Y-12123159D02*
X11811244Y-12132683D01*
X11811244Y-12132683D02*
X11801720Y-12142207D01*
X11801720Y-12142207D02*
X11792197Y-12132683D01*
X11792197Y-12132683D02*
X11801720Y-12123159D01*
X11801720Y-12123159D02*
X11801720Y-12142207D01*
M02*
