%TF.GenerationSoftware,KiCad,Pcbnew,10.0.0*%
%TF.CreationDate,2026-06-30T18:38:36+05:30*%
%TF.ProjectId,Blinky Board,426c696e-6b79-4204-926f-6172642e6b69,rev?*%
%TF.SameCoordinates,Original*%
%TF.FileFunction,Copper,L2,Bot*%
%TF.FilePolarity,Positive*%
%FSLAX46Y46*%
G04 Gerber Fmt 4.6, Leading zero omitted, Abs format (unit mm)*
G04 Created by KiCad (PCBNEW 10.0.0) date 2026-06-30 18:38:36*
%MOMM*%
%LPD*%
G01*
G04 APERTURE LIST*
G04 Aperture macros list*
%AMRoundRect*
0 Rectangle with rounded corners*
0 $1 Rounding radius*
0 $2 $3 $4 $5 $6 $7 $8 $9 X,Y pos of 4 corners*
0 Add a 4 corners polygon primitive as box body*
4,1,4,$2,$3,$4,$5,$6,$7,$8,$9,$2,$3,0*
0 Add four circle primitives for the rounded corners*
1,1,$1+$1,$2,$3*
1,1,$1+$1,$4,$5*
1,1,$1+$1,$6,$7*
1,1,$1+$1,$8,$9*
0 Add four rect primitives between the rounded corners*
20,1,$1+$1,$2,$3,$4,$5,0*
20,1,$1+$1,$4,$5,$6,$7,0*
20,1,$1+$1,$6,$7,$8,$9,0*
20,1,$1+$1,$8,$9,$2,$3,0*%
%AMRotRect*
0 Rectangle, with rotation*
0 The origin of the aperture is its center*
0 $1 length*
0 $2 width*
0 $3 Rotation angle, in degrees counterclockwise*
0 Add horizontal line*
21,1,$1,$2,0,0,$3*%
G04 Aperture macros list end*
%TA.AperFunction,ComponentPad*%
%ADD10C,1.700000*%
%TD*%
%TA.AperFunction,ComponentPad*%
%ADD11R,1.700000X1.700000*%
%TD*%
%TA.AperFunction,ComponentPad*%
%ADD12C,1.600000*%
%TD*%
%TA.AperFunction,ComponentPad*%
%ADD13RoundRect,0.250000X0.550000X-0.550000X0.550000X0.550000X-0.550000X0.550000X-0.550000X-0.550000X0*%
%TD*%
%TA.AperFunction,ComponentPad*%
%ADD14RoundRect,0.250000X-0.550000X0.550000X-0.550000X-0.550000X0.550000X-0.550000X0.550000X0.550000X0*%
%TD*%
%TA.AperFunction,ComponentPad*%
%ADD15C,1.440000*%
%TD*%
%TA.AperFunction,ComponentPad*%
%ADD16O,2.000000X1.905000*%
%TD*%
%TA.AperFunction,ComponentPad*%
%ADD17R,2.000000X1.905000*%
%TD*%
%TA.AperFunction,ComponentPad*%
%ADD18C,1.800000*%
%TD*%
%TA.AperFunction,ComponentPad*%
%ADD19R,1.800000X1.800000*%
%TD*%
%TA.AperFunction,ComponentPad*%
%ADD20RotRect,1.800000X1.800000X288.000000*%
%TD*%
%TA.AperFunction,ComponentPad*%
%ADD21RotRect,1.800000X1.800000X108.000000*%
%TD*%
%TA.AperFunction,ComponentPad*%
%ADD22RotRect,1.800000X1.800000X324.000000*%
%TD*%
%TA.AperFunction,ComponentPad*%
%ADD23RotRect,1.800000X1.800000X72.000000*%
%TD*%
%TA.AperFunction,ComponentPad*%
%ADD24RotRect,1.800000X1.800000X216.000000*%
%TD*%
%TA.AperFunction,ComponentPad*%
%ADD25RotRect,1.800000X1.800000X252.000000*%
%TD*%
%TA.AperFunction,ComponentPad*%
%ADD26RotRect,1.800000X1.800000X36.000000*%
%TD*%
%TA.AperFunction,ComponentPad*%
%ADD27RotRect,1.800000X1.800000X144.000000*%
%TD*%
%TA.AperFunction,ViaPad*%
%ADD28C,0.600000*%
%TD*%
%TA.AperFunction,Conductor*%
%ADD29C,0.200000*%
%TD*%
G04 APERTURE END LIST*
D10*
%TO.P,J3,2,Pin_2_2*%
%TO.N,GND*%
X153810174Y-74434826D03*
D11*
%TO.P,J3,1,Pin_1_1*%
%TO.N,+9V*%
X153810174Y-76974826D03*
%TD*%
%TO.P,J2,1,Pin_1_1*%
%TO.N,/OUT*%
X148830174Y-101429826D03*
%TD*%
D12*
%TO.P,U1,8,VCC_8*%
%TO.N,+5V*%
X139830174Y-64569826D03*
%TO.P,U1,7,DISCH_7*%
%TO.N,/DIS*%
X137290174Y-64569826D03*
%TO.P,U1,6,THRES_6*%
%TO.N,/TR*%
X134750174Y-64569826D03*
%TO.P,U1,5,CONT_5*%
%TO.N,Net-(U1-CONT)*%
X132210174Y-64569826D03*
%TO.P,U1,4,~{RST}_4*%
%TO.N,+5V*%
X132210174Y-72189826D03*
%TO.P,U1,3,OUT_3*%
%TO.N,/OUT*%
X134750174Y-72189826D03*
%TO.P,U1,2,TRIG_2*%
%TO.N,/TR*%
X137290174Y-72189826D03*
D13*
%TO.P,U1,1,GND_1*%
%TO.N,GND*%
X139830174Y-72189826D03*
%TD*%
D12*
%TO.P,C1,2*%
%TO.N,GND*%
X126260174Y-69089826D03*
D14*
%TO.P,C1,1*%
%TO.N,/TR*%
X126260174Y-67089826D03*
%TD*%
D10*
%TO.P,J1,2,Pin_2_2*%
%TO.N,GND*%
X153840174Y-70844826D03*
D11*
%TO.P,J1,1,Pin_1_1*%
%TO.N,+5V*%
X153840174Y-68304826D03*
%TD*%
D12*
%TO.P,R1,2*%
%TO.N,GND*%
X128340174Y-105869826D03*
%TO.P,R1,1*%
%TO.N,Net-(D1-K)*%
X138500174Y-105869826D03*
%TD*%
D15*
%TO.P,RV1,3,3_3*%
%TO.N,/TR*%
X140516924Y-77864826D03*
%TO.P,RV1,2,2_2*%
%TO.N,/DIS*%
X137976924Y-77864826D03*
%TO.P,RV1,1,1_1*%
X135436924Y-77864826D03*
%TD*%
D16*
%TO.P,U2,3,VO_3*%
%TO.N,+5V*%
X146970174Y-71179826D03*
%TO.P,U2,2,GND_2*%
%TO.N,GND*%
X146970174Y-73719826D03*
D17*
%TO.P,U2,1,VI_1*%
%TO.N,+9V*%
X146970174Y-76259826D03*
%TD*%
D12*
%TO.P,R2,2*%
%TO.N,/DIS*%
X121296924Y-76899826D03*
%TO.P,R2,1*%
%TO.N,+5V*%
X131456924Y-76899826D03*
%TD*%
%TO.P,C2,2*%
%TO.N,Net-(U1-CONT)*%
X133850174Y-61569826D03*
%TO.P,C2,1*%
%TO.N,GND*%
X138850174Y-61569826D03*
%TD*%
D18*
%TO.P,D6,2,A_2*%
%TO.N,Net-(D6-A)*%
X134180175Y-114329826D03*
D19*
%TO.P,D6,1,K_1*%
%TO.N,Net-(D1-K)*%
X136720175Y-114329826D03*
%TD*%
D18*
%TO.P,D3,2,A_2*%
%TO.N,Net-(D3-A)*%
X166036773Y-77475000D03*
D20*
%TO.P,D3,1,K_1*%
%TO.N,Net-(D1-K)*%
X165251870Y-75059316D03*
%TD*%
D18*
%TO.P,D1,2,A_2*%
%TO.N,Net-(D1-A)*%
X139260175Y-54329826D03*
D19*
%TO.P,D1,1,K_1*%
%TO.N,Net-(D1-K)*%
X136720175Y-54329826D03*
%TD*%
D18*
%TO.P,D8,2,A_2*%
%TO.N,Net-(D8-A)*%
X107403576Y-91184651D03*
D21*
%TO.P,D8,1,K_1*%
%TO.N,Net-(D1-K)*%
X108188479Y-93600335D03*
%TD*%
D18*
%TO.P,D2,2,A_2*%
%TO.N,Net-(D2-A)*%
X156408635Y-61552291D03*
D22*
%TO.P,D2,1,K_1*%
%TO.N,Net-(D1-K)*%
X154353732Y-60059316D03*
%TD*%
D18*
%TO.P,D9,2,A_2*%
%TO.N,Net-(D9-A)*%
X108973382Y-72643632D03*
D23*
%TO.P,D9,1,K_1*%
%TO.N,Net-(D1-K)*%
X108188479Y-75059316D03*
%TD*%
D18*
%TO.P,D5,2,A_2*%
%TO.N,Net-(D5-A)*%
X152298829Y-110093310D03*
D24*
%TO.P,D5,1,K_1*%
%TO.N,Net-(D1-K)*%
X154353732Y-108600335D03*
%TD*%
D18*
%TO.P,D4,2,A_2*%
%TO.N,Net-(D4-A)*%
X164466967Y-96016019D03*
D25*
%TO.P,D4,1,K_1*%
%TO.N,Net-(D1-K)*%
X165251870Y-93600335D03*
%TD*%
D18*
%TO.P,D10,2,A_2*%
%TO.N,Net-(D10-A)*%
X121141520Y-58566341D03*
D26*
%TO.P,D10,1,K_1*%
%TO.N,Net-(D1-K)*%
X119086617Y-60059316D03*
%TD*%
D18*
%TO.P,D7,2,A_2*%
%TO.N,Net-(D7-A)*%
X117031714Y-107107360D03*
D27*
%TO.P,D7,1,K_1*%
%TO.N,Net-(D1-K)*%
X119086617Y-108600335D03*
%TD*%
D12*
%TO.P,U3,16,VDD_16*%
%TO.N,+5V*%
X126400174Y-101804826D03*
%TO.P,U3,15,Reset_15*%
%TO.N,GND*%
X128940174Y-101804826D03*
%TO.P,U3,14,CLK_14*%
%TO.N,/OUT*%
X131480174Y-101804826D03*
%TO.P,U3,13,CKEN_13*%
%TO.N,GND*%
X134020174Y-101804826D03*
%TO.P,U3,12,Cout_12*%
%TO.N,unconnected-(U3-Cout-Pad12)*%
X136560174Y-101804826D03*
%TO.P,U3,11,Q9_11*%
%TO.N,Net-(D10-A)*%
X139100174Y-101804826D03*
%TO.P,U3,10,Q4_10*%
%TO.N,Net-(D5-A)*%
X141640174Y-101804826D03*
%TO.P,U3,9,Q8_9*%
%TO.N,Net-(D9-A)*%
X144180174Y-101804826D03*
%TO.P,U3,8,VSS_8*%
%TO.N,GND*%
X144180174Y-94184826D03*
%TO.P,U3,7,Q3_7*%
%TO.N,Net-(D4-A)*%
X141640174Y-94184826D03*
%TO.P,U3,6,Q7_6*%
%TO.N,Net-(D8-A)*%
X139100174Y-94184826D03*
%TO.P,U3,5,Q6_5*%
%TO.N,Net-(D7-A)*%
X136560174Y-94184826D03*
%TO.P,U3,4,Q2_4*%
%TO.N,Net-(D3-A)*%
X134020174Y-94184826D03*
%TO.P,U3,3,Q0_3*%
%TO.N,Net-(D1-A)*%
X131480174Y-94184826D03*
%TO.P,U3,2,Q1_2*%
%TO.N,Net-(D2-A)*%
X128940174Y-94184826D03*
D14*
%TO.P,U3,1,Q5_1*%
%TO.N,Net-(D6-A)*%
X126400174Y-94184826D03*
%TD*%
D28*
%TO.N,GND*%
X125720174Y-109029826D03*
X119320174Y-67999826D03*
X109410174Y-79809826D03*
X164650174Y-84039826D03*
X161520174Y-71509826D03*
X136310174Y-84189826D03*
X114940174Y-75529826D03*
X148110174Y-56269826D03*
X127470174Y-111809826D03*
X152610174Y-92689826D03*
X125750174Y-88649826D03*
X161220174Y-92569826D03*
X117910174Y-98059826D03*
X128800174Y-59049826D03*
X125950174Y-63389826D03*
X115390174Y-100039826D03*
X135320174Y-86359826D03*
X156650174Y-99199826D03*
X135540174Y-83159826D03*
X167660174Y-85979826D03*
X107010174Y-87049826D03*
X161070174Y-99889826D03*
X157220174Y-65759826D03*
X116190174Y-87159826D03*
X147850174Y-60609826D03*
%TO.N,+5V*%
X124285174Y-98484826D03*
%TO.N,/OUT*%
X144500174Y-85149826D03*
%TO.N,Net-(D10-A)*%
X131250732Y-88409268D03*
%TO.N,Net-(D2-A)*%
X135060174Y-92179826D03*
%TO.N,Net-(D9-A)*%
X123070174Y-95419826D03*
X129240174Y-98819826D03*
%TO.N,GND*%
X144080174Y-110859826D03*
X142550174Y-107659826D03*
X115050174Y-67049826D03*
%TD*%
%TO.N,/DIS*%
D29*
X137976924Y-77864826D02*
X138696923Y-77144827D01*
X138696923Y-65976575D02*
X137290174Y-64569826D01*
X138696923Y-77144827D02*
X138696923Y-65976575D01*
%TO.N,/TR*%
X134750174Y-64569826D02*
X134750174Y-69649826D01*
X134750174Y-69649826D02*
X137290174Y-72189826D01*
%TO.N,/OUT*%
X148830174Y-89479826D02*
X144500174Y-85149826D01*
X148830174Y-101429826D02*
X148830174Y-89479826D01*
%TO.N,+5V*%
X124285174Y-98484826D02*
X127840174Y-94929826D01*
X127840174Y-80516576D02*
X131456924Y-76899826D01*
X127840174Y-94929826D02*
X127840174Y-80516576D01*
%TO.N,GND*%
X130040174Y-102904826D02*
X128940174Y-101804826D01*
X132920174Y-102904826D02*
X130040174Y-102904826D01*
X134020174Y-101804826D02*
X132920174Y-102904826D01*
%TO.N,Net-(D1-A)*%
X142490174Y-84399826D02*
X138386924Y-88503076D01*
X138386924Y-88503076D02*
X137161924Y-88503076D01*
%TO.N,Net-(D3-A)*%
X166036773Y-77475000D02*
X165136773Y-78375000D01*
%TO.N,Net-(D1-A)*%
X142490174Y-57559825D02*
X142490174Y-84399826D01*
X137161924Y-88503076D02*
X131480174Y-94184826D01*
X139260175Y-54329826D02*
X142490174Y-57559825D01*
%TO.N,Net-(D9-A)*%
X141195174Y-98819826D02*
X144180174Y-101804826D01*
X129240174Y-98819826D02*
X141195174Y-98819826D01*
%TO.N,Net-(D3-A)*%
X134065174Y-94184826D02*
X134020174Y-94184826D01*
X165136773Y-78375000D02*
X149875000Y-78375000D01*
X149875000Y-78375000D02*
X134065174Y-94184826D01*
%TO.N,Net-(D9-A)*%
X123070174Y-86740424D02*
X108973382Y-72643632D01*
X123070174Y-95419826D02*
X123070174Y-86740424D01*
%TO.N,Net-(D2-A)*%
X135060174Y-92179826D02*
X135110174Y-92229826D01*
X156408635Y-61552291D02*
X151631100Y-66329826D01*
%TO.N,Net-(D5-A)*%
X149928658Y-110093310D02*
X141640174Y-101804826D01*
X152298829Y-110093310D02*
X149928658Y-110093310D01*
%TO.N,Net-(D7-A)*%
X136560174Y-96099826D02*
X136560174Y-94184826D01*
X117031714Y-107107360D02*
X127639248Y-96499826D01*
X136160174Y-96499826D02*
X136560174Y-96099826D01*
X127639248Y-96499826D02*
X136160174Y-96499826D01*
%TO.N,Net-(D2-A)*%
X144620174Y-66329826D02*
X144620174Y-83059826D01*
X136890174Y-90789826D02*
X136450174Y-90789826D01*
X151631100Y-66329826D02*
X144620174Y-66329826D01*
X144620174Y-83059826D02*
X136890174Y-90789826D01*
X136450174Y-90789826D02*
X135060174Y-92179826D01*
%TD*%
%TA.AperFunction,Conductor*%
%TO.N,GND*%
G36*
X137286662Y-49834987D02*
G01*
X138410981Y-49871793D01*
X138415006Y-49871992D01*
X139537499Y-49945565D01*
X139541540Y-49945895D01*
X140661058Y-50056157D01*
X140664990Y-50056610D01*
X141780304Y-50203444D01*
X141784271Y-50204032D01*
X142894211Y-50387284D01*
X142898153Y-50388002D01*
X144001461Y-50607464D01*
X144005324Y-50608297D01*
X145100893Y-50863748D01*
X145104829Y-50864734D01*
X145236608Y-50900044D01*
X146191436Y-51155890D01*
X146195246Y-51156978D01*
X147271793Y-51483545D01*
X147275576Y-51484760D01*
X148340798Y-51846355D01*
X148344607Y-51847718D01*
X149369440Y-52233437D01*
X149397389Y-52243956D01*
X149401157Y-52245445D01*
X150440450Y-52675934D01*
X150444138Y-52677533D01*
X151468776Y-53141791D01*
X151472444Y-53143526D01*
X152481325Y-53641051D01*
X152484934Y-53642905D01*
X153477010Y-54173180D01*
X153480507Y-54175123D01*
X154454733Y-54737593D01*
X154458185Y-54739663D01*
X155402291Y-55326745D01*
X155413445Y-55333681D01*
X155416847Y-55335874D01*
X156182441Y-55847428D01*
X156352173Y-55960839D01*
X156355505Y-55963145D01*
X156655778Y-56178318D01*
X157269865Y-56618366D01*
X157273124Y-56620783D01*
X158165556Y-57305571D01*
X158168735Y-57308094D01*
X159038302Y-58021728D01*
X159041359Y-58024321D01*
X159887142Y-58766054D01*
X159890107Y-58768741D01*
X160711130Y-59537714D01*
X160714046Y-59540536D01*
X161509460Y-60335950D01*
X161512260Y-60338842D01*
X162281282Y-61159919D01*
X162283948Y-61162860D01*
X163025662Y-62008622D01*
X163028276Y-62011703D01*
X163360926Y-62417039D01*
X163741905Y-62881264D01*
X163744428Y-62884443D01*
X164429216Y-63776875D01*
X164431633Y-63780134D01*
X165086851Y-64694490D01*
X165089160Y-64697826D01*
X165714119Y-65633143D01*
X165716318Y-65636554D01*
X166310328Y-66591800D01*
X166312414Y-66595280D01*
X166465519Y-66860465D01*
X166781031Y-67406949D01*
X166874862Y-67569468D01*
X166876833Y-67573015D01*
X167407094Y-68565065D01*
X167408948Y-68568674D01*
X167906473Y-69577555D01*
X167908208Y-69581223D01*
X168372458Y-70605844D01*
X168374072Y-70609567D01*
X168804552Y-71648836D01*
X168806043Y-71652610D01*
X169202281Y-72705392D01*
X169203648Y-72709212D01*
X169372729Y-73207308D01*
X169487966Y-73546786D01*
X169565222Y-73774373D01*
X169566464Y-73778237D01*
X169639884Y-74020269D01*
X169839205Y-74677345D01*
X169893008Y-74854708D01*
X169894120Y-74858604D01*
X169895441Y-74863532D01*
X170185265Y-75945170D01*
X170186251Y-75949106D01*
X170365190Y-76716531D01*
X170431793Y-77002178D01*
X170441689Y-77044617D01*
X170442545Y-77048584D01*
X170661992Y-78151821D01*
X170662719Y-78155813D01*
X170845963Y-79265705D01*
X170846558Y-79269719D01*
X170993383Y-80384960D01*
X170993847Y-80388991D01*
X171104103Y-81508456D01*
X171104434Y-81512500D01*
X171178007Y-82634993D01*
X171178207Y-82639046D01*
X171215013Y-83763337D01*
X171215079Y-83767394D01*
X171215079Y-84892257D01*
X171215013Y-84896314D01*
X171178207Y-86020605D01*
X171178007Y-86024658D01*
X171104434Y-87147151D01*
X171104103Y-87151195D01*
X170993847Y-88270660D01*
X170993383Y-88274691D01*
X170846558Y-89389932D01*
X170845963Y-89393946D01*
X170662719Y-90503838D01*
X170661992Y-90507830D01*
X170442545Y-91611067D01*
X170441689Y-91615034D01*
X170186251Y-92710545D01*
X170185265Y-92714481D01*
X169894122Y-93801042D01*
X169893008Y-93804943D01*
X169566464Y-94881414D01*
X169565222Y-94885278D01*
X169203648Y-95950439D01*
X169202281Y-95954259D01*
X168806043Y-97007041D01*
X168804552Y-97010815D01*
X168374072Y-98050084D01*
X168372458Y-98053807D01*
X167908208Y-99078428D01*
X167906473Y-99082096D01*
X167408948Y-100090977D01*
X167407094Y-100094586D01*
X166876833Y-101086636D01*
X166874862Y-101090183D01*
X166312414Y-102064371D01*
X166310328Y-102067851D01*
X165716318Y-103023097D01*
X165714119Y-103026508D01*
X165089160Y-103961825D01*
X165086851Y-103965161D01*
X164431633Y-104879517D01*
X164429216Y-104882776D01*
X163744428Y-105775208D01*
X163741905Y-105778387D01*
X163028287Y-106647935D01*
X163025662Y-106651029D01*
X162283964Y-107496773D01*
X162281239Y-107499779D01*
X161512285Y-108320782D01*
X161509463Y-108323698D01*
X160714046Y-109119115D01*
X160711130Y-109121937D01*
X159890127Y-109890891D01*
X159887121Y-109893616D01*
X159041377Y-110635314D01*
X159038283Y-110637939D01*
X158168745Y-111351549D01*
X158165564Y-111354073D01*
X158137997Y-111375225D01*
X158131015Y-111380209D01*
X153311774Y-114574165D01*
X153301725Y-114580162D01*
X152484934Y-115016746D01*
X152481325Y-115018600D01*
X151472444Y-115516125D01*
X151468776Y-115517860D01*
X150444155Y-115982110D01*
X150440432Y-115983724D01*
X149401163Y-116414204D01*
X149397389Y-116415695D01*
X148344607Y-116811933D01*
X148340787Y-116813300D01*
X147275626Y-117174874D01*
X147271762Y-117176116D01*
X146195291Y-117502660D01*
X146191390Y-117503774D01*
X145104829Y-117794917D01*
X145100893Y-117795903D01*
X144005382Y-118051341D01*
X144001415Y-118052197D01*
X142898178Y-118271644D01*
X142894186Y-118272371D01*
X141784294Y-118455615D01*
X141780280Y-118456210D01*
X140665039Y-118603035D01*
X140661008Y-118603499D01*
X139541543Y-118713755D01*
X139537499Y-118714086D01*
X138415006Y-118787659D01*
X138410953Y-118787859D01*
X137286662Y-118824665D01*
X137282605Y-118824731D01*
X136157743Y-118824731D01*
X136153686Y-118824665D01*
X135029394Y-118787859D01*
X135025341Y-118787659D01*
X133902848Y-118714086D01*
X133898804Y-118713755D01*
X132779339Y-118603499D01*
X132775308Y-118603035D01*
X131660067Y-118456210D01*
X131656053Y-118455615D01*
X130546161Y-118272371D01*
X130542169Y-118271644D01*
X129438932Y-118052197D01*
X129434978Y-118051343D01*
X129145741Y-117983903D01*
X128339454Y-117795903D01*
X128335518Y-117794917D01*
X127248957Y-117503774D01*
X127245056Y-117502660D01*
X126168585Y-117176116D01*
X126164734Y-117174878D01*
X125795523Y-117049548D01*
X125099560Y-116813300D01*
X125095740Y-116811933D01*
X124042958Y-116415695D01*
X124039184Y-116414204D01*
X122999915Y-115983724D01*
X122996192Y-115982110D01*
X121971571Y-115517860D01*
X121967903Y-115516125D01*
X120959022Y-115018600D01*
X120955413Y-115016746D01*
X119963363Y-114486485D01*
X119959816Y-114484514D01*
X119678540Y-114322119D01*
X119500979Y-114219604D01*
X132779675Y-114219604D01*
X132779675Y-114440047D01*
X132814160Y-114657778D01*
X132882278Y-114867429D01*
X132882279Y-114867432D01*
X132982362Y-115063851D01*
X133111927Y-115242184D01*
X133111931Y-115242189D01*
X133267811Y-115398069D01*
X133267816Y-115398073D01*
X133369781Y-115472154D01*
X133446153Y-115527641D01*
X133574550Y-115593063D01*
X133642568Y-115627721D01*
X133642571Y-115627722D01*
X133747396Y-115661781D01*
X133852224Y-115695841D01*
X134069953Y-115730326D01*
X134069954Y-115730326D01*
X134290396Y-115730326D01*
X134290397Y-115730326D01*
X134508126Y-115695841D01*
X134717781Y-115627721D01*
X134914197Y-115527641D01*
X135092540Y-115398068D01*
X135142711Y-115347896D01*
X135204032Y-115314412D01*
X135273723Y-115319396D01*
X135329657Y-115361267D01*
X135346573Y-115392245D01*
X135376377Y-115472154D01*
X135376381Y-115472161D01*
X135462627Y-115587370D01*
X135462630Y-115587373D01*
X135577839Y-115673619D01*
X135577846Y-115673623D01*
X135712692Y-115723917D01*
X135712691Y-115723917D01*
X135719619Y-115724661D01*
X135772302Y-115730326D01*
X137668047Y-115730325D01*
X137727658Y-115723917D01*
X137862506Y-115673622D01*
X137977721Y-115587372D01*
X138063971Y-115472157D01*
X138114266Y-115337309D01*
X138120675Y-115277699D01*
X138120674Y-113381954D01*
X138114266Y-113322343D01*
X138093776Y-113267407D01*
X138063972Y-113187497D01*
X138063968Y-113187490D01*
X137977722Y-113072281D01*
X137977719Y-113072278D01*
X137862510Y-112986032D01*
X137862503Y-112986028D01*
X137727657Y-112935734D01*
X137727658Y-112935734D01*
X137668058Y-112929327D01*
X137668056Y-112929326D01*
X137668048Y-112929326D01*
X137668039Y-112929326D01*
X135772304Y-112929326D01*
X135772298Y-112929327D01*
X135712691Y-112935734D01*
X135577846Y-112986028D01*
X135577839Y-112986032D01*
X135462630Y-113072278D01*
X135462627Y-113072281D01*
X135376381Y-113187490D01*
X135376378Y-113187495D01*
X135346573Y-113267407D01*
X135304701Y-113323340D01*
X135239237Y-113347757D01*
X135170964Y-113332905D01*
X135142710Y-113311754D01*
X135092538Y-113261582D01*
X135092533Y-113261578D01*
X134914200Y-113132013D01*
X134914199Y-113132012D01*
X134914197Y-113132011D01*
X134796966Y-113072278D01*
X134717781Y-113031930D01*
X134717778Y-113031929D01*
X134508127Y-112963811D01*
X134399261Y-112946568D01*
X134290397Y-112929326D01*
X134069953Y-112929326D01*
X133997376Y-112940821D01*
X133852222Y-112963811D01*
X133642571Y-113031929D01*
X133642568Y-113031930D01*
X133446149Y-113132013D01*
X133267816Y-113261578D01*
X133267811Y-113261582D01*
X133111931Y-113417462D01*
X133111927Y-113417467D01*
X132982362Y-113595800D01*
X132882279Y-113792219D01*
X132882278Y-113792222D01*
X132814160Y-114001873D01*
X132779675Y-114219604D01*
X119500979Y-114219604D01*
X118985628Y-113922066D01*
X118982148Y-113919980D01*
X118026902Y-113325970D01*
X118023491Y-113323771D01*
X117088174Y-112698812D01*
X117084838Y-112696503D01*
X116170482Y-112041285D01*
X116167223Y-112038868D01*
X115274791Y-111354080D01*
X115271612Y-111351557D01*
X114552641Y-110761514D01*
X114402051Y-110637928D01*
X114398970Y-110635314D01*
X114328866Y-110573834D01*
X113553208Y-109893600D01*
X113550237Y-109890907D01*
X112729217Y-109121937D01*
X112726301Y-109119115D01*
X111930884Y-108323698D01*
X111928062Y-108320782D01*
X111790316Y-108173712D01*
X111159089Y-107499759D01*
X111156402Y-107496794D01*
X110718215Y-106997138D01*
X115631214Y-106997138D01*
X115631214Y-107217581D01*
X115665699Y-107435312D01*
X115733817Y-107644963D01*
X115733818Y-107644966D01*
X115833901Y-107841385D01*
X115963466Y-108019718D01*
X115963470Y-108019723D01*
X116119350Y-108175603D01*
X116119355Y-108175607D01*
X116274906Y-108288620D01*
X116297692Y-108305175D01*
X116426089Y-108370597D01*
X116494107Y-108405255D01*
X116494110Y-108405256D01*
X116588462Y-108435912D01*
X116703763Y-108473375D01*
X116921492Y-108507860D01*
X116921493Y-108507860D01*
X117141934Y-108507860D01*
X117141936Y-108507860D01*
X117212015Y-108496760D01*
X117281307Y-108505714D01*
X117334759Y-108550710D01*
X117355399Y-108617461D01*
X117350876Y-108652465D01*
X117328018Y-108734634D01*
X117328017Y-108734640D01*
X117330073Y-108878539D01*
X117330073Y-108878540D01*
X117330073Y-108878543D01*
X117330074Y-108878544D01*
X117372588Y-109016043D01*
X117452120Y-109135995D01*
X117489992Y-109170259D01*
X117496580Y-109176220D01*
X119030252Y-110290496D01*
X119030269Y-110290508D01*
X119030276Y-110290512D01*
X119030281Y-110290515D01*
X119082258Y-110320361D01*
X119082262Y-110320362D01*
X119220919Y-110358934D01*
X119220921Y-110358933D01*
X119220922Y-110358934D01*
X119274884Y-110358163D01*
X119364826Y-110356878D01*
X119502325Y-110314364D01*
X119622277Y-110234832D01*
X119662500Y-110190374D01*
X120776790Y-108656683D01*
X120799311Y-108617461D01*
X120806643Y-108604693D01*
X120823529Y-108543991D01*
X120845216Y-108466033D01*
X120843160Y-108322126D01*
X120800646Y-108184627D01*
X120721114Y-108064675D01*
X120676656Y-108024452D01*
X120676653Y-108024449D01*
X119269864Y-107002359D01*
X119142981Y-106910173D01*
X119142972Y-106910167D01*
X119142965Y-106910162D01*
X119142958Y-106910158D01*
X119142952Y-106910154D01*
X119090975Y-106880308D01*
X118952315Y-106841736D01*
X118952311Y-106841735D01*
X118808412Y-106843791D01*
X118808411Y-106843791D01*
X118670909Y-106886306D01*
X118599823Y-106933438D01*
X118533071Y-106954077D01*
X118465758Y-106935352D01*
X118419254Y-106883206D01*
X118410768Y-106859205D01*
X118409604Y-106854389D01*
X118397729Y-106779409D01*
X118373425Y-106704609D01*
X118372300Y-106699951D01*
X118373773Y-106669645D01*
X118372907Y-106639313D01*
X118375464Y-106634858D01*
X118375693Y-106630164D01*
X118388321Y-106612466D01*
X118405150Y-106583157D01*
X119220799Y-105767508D01*
X127040174Y-105767508D01*
X127040174Y-105972143D01*
X127072183Y-106174243D01*
X127135418Y-106368857D01*
X127228315Y-106551176D01*
X127228321Y-106551185D01*
X127260697Y-106595747D01*
X127260698Y-106595748D01*
X127940174Y-105916272D01*
X127940174Y-105922487D01*
X127967433Y-106024220D01*
X128020094Y-106115432D01*
X128094568Y-106189906D01*
X128185780Y-106242567D01*
X128287513Y-106269826D01*
X128293727Y-106269826D01*
X127614250Y-106949300D01*
X127658824Y-106981685D01*
X127841142Y-107074581D01*
X128035756Y-107137816D01*
X128237857Y-107169826D01*
X128442491Y-107169826D01*
X128644591Y-107137816D01*
X128839205Y-107074581D01*
X129021523Y-106981685D01*
X129066095Y-106949300D01*
X128386621Y-106269826D01*
X128392835Y-106269826D01*
X128494568Y-106242567D01*
X128585780Y-106189906D01*
X128660254Y-106115432D01*
X128712915Y-106024220D01*
X128740174Y-105922487D01*
X128740174Y-105916273D01*
X129419648Y-106595747D01*
X129452033Y-106551175D01*
X129544929Y-106368857D01*
X129608164Y-106174243D01*
X129640174Y-105972143D01*
X129640174Y-105767508D01*
X129640169Y-105767474D01*
X137199674Y-105767474D01*
X137199674Y-105972177D01*
X137231696Y-106174360D01*
X137294955Y-106369049D01*
X137358865Y-106494479D01*
X137387759Y-106551185D01*
X137387889Y-106551439D01*
X137508202Y-106717039D01*
X137652960Y-106861797D01*
X137754202Y-106935352D01*
X137818564Y-106982113D01*
X137934781Y-107041329D01*
X138000950Y-107075044D01*
X138000952Y-107075044D01*
X138000955Y-107075046D01*
X138105311Y-107108953D01*
X138195639Y-107138303D01*
X138296731Y-107154314D01*
X138397822Y-107170326D01*
X138397823Y-107170326D01*
X138602525Y-107170326D01*
X138602526Y-107170326D01*
X138804708Y-107138303D01*
X138999393Y-107075046D01*
X139181784Y-106982113D01*
X139280828Y-106910154D01*
X139347387Y-106861797D01*
X139347389Y-106861794D01*
X139347393Y-106861792D01*
X139492140Y-106717045D01*
X139492142Y-106717041D01*
X139492145Y-106717039D01*
X139568120Y-106612466D01*
X139612461Y-106551436D01*
X139705394Y-106369045D01*
X139768651Y-106174360D01*
X139800674Y-105972178D01*
X139800674Y-105767474D01*
X139791074Y-105706860D01*
X139768651Y-105565291D01*
X139737632Y-105469826D01*
X139705394Y-105370607D01*
X139705392Y-105370604D01*
X139705392Y-105370602D01*
X139612593Y-105188476D01*
X139612461Y-105188216D01*
X139580266Y-105143903D01*
X139492145Y-105022612D01*
X139347387Y-104877854D01*
X139181787Y-104757541D01*
X139181786Y-104757540D01*
X139181784Y-104757539D01*
X139124827Y-104728517D01*
X138999397Y-104664607D01*
X138804708Y-104601348D01*
X138630169Y-104573704D01*
X138602526Y-104569326D01*
X138397822Y-104569326D01*
X138373503Y-104573177D01*
X138195639Y-104601348D01*
X138000950Y-104664607D01*
X137818560Y-104757541D01*
X137652960Y-104877854D01*
X137508202Y-105022612D01*
X137387889Y-105188212D01*
X137294955Y-105370602D01*
X137231696Y-105565291D01*
X137199674Y-105767474D01*
X129640169Y-105767474D01*
X129608164Y-105565408D01*
X129544929Y-105370794D01*
X129452033Y-105188476D01*
X129419648Y-105143903D01*
X129419648Y-105143902D01*
X128740174Y-105823377D01*
X128740174Y-105817165D01*
X128712915Y-105715432D01*
X128660254Y-105624220D01*
X128585780Y-105549746D01*
X128494568Y-105497085D01*
X128392835Y-105469826D01*
X128386620Y-105469826D01*
X129066096Y-104790350D01*
X129066095Y-104790349D01*
X129021533Y-104757973D01*
X129021524Y-104757967D01*
X128839205Y-104665070D01*
X128644591Y-104601835D01*
X128442491Y-104569826D01*
X128237857Y-104569826D01*
X128035756Y-104601835D01*
X127841142Y-104665070D01*
X127658818Y-104757969D01*
X127614251Y-104790349D01*
X127614251Y-104790350D01*
X128293728Y-105469826D01*
X128287513Y-105469826D01*
X128185780Y-105497085D01*
X128094568Y-105549746D01*
X128020094Y-105624220D01*
X127967433Y-105715432D01*
X127940174Y-105817165D01*
X127940174Y-105823379D01*
X127260698Y-105143903D01*
X127260697Y-105143903D01*
X127228317Y-105188470D01*
X127135418Y-105370794D01*
X127072183Y-105565408D01*
X127040174Y-105767508D01*
X119220799Y-105767508D01*
X123285834Y-101702474D01*
X125099674Y-101702474D01*
X125099674Y-101907177D01*
X125131696Y-102109360D01*
X125194955Y-102304049D01*
X125258865Y-102429479D01*
X125287759Y-102486185D01*
X125287889Y-102486439D01*
X125408202Y-102652039D01*
X125552960Y-102796797D01*
X125673400Y-102884300D01*
X125718564Y-102917113D01*
X125834781Y-102976329D01*
X125900950Y-103010044D01*
X125900952Y-103010044D01*
X125900955Y-103010046D01*
X125951620Y-103026508D01*
X126095639Y-103073303D01*
X126196731Y-103089314D01*
X126297822Y-103105326D01*
X126297823Y-103105326D01*
X126502525Y-103105326D01*
X126502526Y-103105326D01*
X126704708Y-103073303D01*
X126899393Y-103010046D01*
X127081784Y-102917113D01*
X127174764Y-102849558D01*
X127247387Y-102796797D01*
X127247389Y-102796794D01*
X127247393Y-102796792D01*
X127392140Y-102652045D01*
X127392142Y-102652041D01*
X127392145Y-102652039D01*
X127486508Y-102522157D01*
X127512461Y-102486436D01*
X127559969Y-102393195D01*
X127607943Y-102342399D01*
X127675764Y-102325604D01*
X127741899Y-102348141D01*
X127780939Y-102393195D01*
X127828315Y-102486176D01*
X127828321Y-102486185D01*
X127860697Y-102530747D01*
X127860698Y-102530748D01*
X128540174Y-101851272D01*
X128540174Y-101857487D01*
X128567433Y-101959220D01*
X128620094Y-102050432D01*
X128694568Y-102124906D01*
X128785780Y-102177567D01*
X128887513Y-102204826D01*
X128893727Y-102204826D01*
X128214250Y-102884300D01*
X128258824Y-102916685D01*
X128441142Y-103009581D01*
X128635756Y-103072816D01*
X128837857Y-103104826D01*
X129042491Y-103104826D01*
X129244591Y-103072816D01*
X129439205Y-103009581D01*
X129621523Y-102916685D01*
X129666095Y-102884300D01*
X128986621Y-102204826D01*
X128992835Y-102204826D01*
X129094568Y-102177567D01*
X129185780Y-102124906D01*
X129260254Y-102050432D01*
X129312915Y-101959220D01*
X129340174Y-101857487D01*
X129340174Y-101851274D01*
X130019648Y-102530748D01*
X130019648Y-102530747D01*
X130052035Y-102486173D01*
X130052035Y-102486172D01*
X130099408Y-102393197D01*
X130147382Y-102342401D01*
X130215202Y-102325605D01*
X130281338Y-102348142D01*
X130320377Y-102393195D01*
X130367887Y-102486437D01*
X130488202Y-102652039D01*
X130632960Y-102796797D01*
X130753400Y-102884300D01*
X130798564Y-102917113D01*
X130914781Y-102976329D01*
X130980950Y-103010044D01*
X130980952Y-103010044D01*
X130980955Y-103010046D01*
X131031620Y-103026508D01*
X131175639Y-103073303D01*
X131276731Y-103089314D01*
X131377822Y-103105326D01*
X131377823Y-103105326D01*
X131582525Y-103105326D01*
X131582526Y-103105326D01*
X131784708Y-103073303D01*
X131979393Y-103010046D01*
X132161784Y-102917113D01*
X132254764Y-102849558D01*
X132327387Y-102796797D01*
X132327389Y-102796794D01*
X132327393Y-102796792D01*
X132472140Y-102652045D01*
X132472142Y-102652041D01*
X132472145Y-102652039D01*
X132566508Y-102522157D01*
X132592461Y-102486436D01*
X132639969Y-102393195D01*
X132687943Y-102342399D01*
X132755764Y-102325604D01*
X132821899Y-102348141D01*
X132860939Y-102393195D01*
X132908315Y-102486176D01*
X132908321Y-102486185D01*
X132940697Y-102530747D01*
X132940698Y-102530748D01*
X133620174Y-101851272D01*
X133620174Y-101857487D01*
X133647433Y-101959220D01*
X133700094Y-102050432D01*
X133774568Y-102124906D01*
X133865780Y-102177567D01*
X133967513Y-102204826D01*
X133973727Y-102204826D01*
X133294250Y-102884300D01*
X133338824Y-102916685D01*
X133521142Y-103009581D01*
X133715756Y-103072816D01*
X133917857Y-103104826D01*
X134122491Y-103104826D01*
X134324591Y-103072816D01*
X134519205Y-103009581D01*
X134701523Y-102916685D01*
X134746095Y-102884300D01*
X134066621Y-102204826D01*
X134072835Y-102204826D01*
X134174568Y-102177567D01*
X134265780Y-102124906D01*
X134340254Y-102050432D01*
X134392915Y-101959220D01*
X134420174Y-101857487D01*
X134420174Y-101851273D01*
X135099648Y-102530747D01*
X135132035Y-102486173D01*
X135132035Y-102486172D01*
X135179408Y-102393197D01*
X135227382Y-102342401D01*
X135295202Y-102325605D01*
X135361338Y-102348142D01*
X135400377Y-102393195D01*
X135447887Y-102486437D01*
X135568202Y-102652039D01*
X135712960Y-102796797D01*
X135833400Y-102884300D01*
X135878564Y-102917113D01*
X135994781Y-102976329D01*
X136060950Y-103010044D01*
X136060952Y-103010044D01*
X136060955Y-103010046D01*
X136111620Y-103026508D01*
X136255639Y-103073303D01*
X136356731Y-103089314D01*
X136457822Y-103105326D01*
X136457823Y-103105326D01*
X136662525Y-103105326D01*
X136662526Y-103105326D01*
X136864708Y-103073303D01*
X137059393Y-103010046D01*
X137241784Y-102917113D01*
X137334764Y-102849558D01*
X137407387Y-102796797D01*
X137407389Y-102796794D01*
X137407393Y-102796792D01*
X137552140Y-102652045D01*
X137552142Y-102652041D01*
X137552145Y-102652039D01*
X137672458Y-102486440D01*
X137672460Y-102486437D01*
X137672461Y-102486436D01*
X137719690Y-102393743D01*
X137767663Y-102342949D01*
X137835484Y-102326154D01*
X137901619Y-102348691D01*
X137940659Y-102393745D01*
X137987889Y-102486440D01*
X138108202Y-102652039D01*
X138252960Y-102796797D01*
X138373400Y-102884300D01*
X138418564Y-102917113D01*
X138534781Y-102976329D01*
X138600950Y-103010044D01*
X138600952Y-103010044D01*
X138600955Y-103010046D01*
X138651620Y-103026508D01*
X138795639Y-103073303D01*
X138896731Y-103089314D01*
X138997822Y-103105326D01*
X138997823Y-103105326D01*
X139202525Y-103105326D01*
X139202526Y-103105326D01*
X139404708Y-103073303D01*
X139599393Y-103010046D01*
X139781784Y-102917113D01*
X139874764Y-102849558D01*
X139947387Y-102796797D01*
X139947389Y-102796794D01*
X139947393Y-102796792D01*
X140092140Y-102652045D01*
X140092142Y-102652041D01*
X140092145Y-102652039D01*
X140212458Y-102486440D01*
X140212460Y-102486437D01*
X140212461Y-102486436D01*
X140259690Y-102393743D01*
X140307663Y-102342949D01*
X140375484Y-102326154D01*
X140441619Y-102348691D01*
X140480659Y-102393745D01*
X140527889Y-102486440D01*
X140648202Y-102652039D01*
X140792960Y-102796797D01*
X140913400Y-102884300D01*
X140958564Y-102917113D01*
X141074781Y-102976329D01*
X141140950Y-103010044D01*
X141140952Y-103010044D01*
X141140955Y-103010046D01*
X141191620Y-103026508D01*
X141335639Y-103073303D01*
X141436731Y-103089314D01*
X141537822Y-103105326D01*
X141537823Y-103105326D01*
X141742525Y-103105326D01*
X141742526Y-103105326D01*
X141944708Y-103073303D01*
X141959016Y-103068653D01*
X142028856Y-103066657D01*
X142085016Y-103098903D01*
X149443797Y-110457684D01*
X149443807Y-110457695D01*
X149448137Y-110462025D01*
X149448138Y-110462026D01*
X149559942Y-110573830D01*
X149559944Y-110573831D01*
X149559948Y-110573834D01*
X149670983Y-110637939D01*
X149696874Y-110652887D01*
X149808677Y-110682844D01*
X149849600Y-110693810D01*
X149849601Y-110693810D01*
X150956993Y-110693810D01*
X151024032Y-110713495D01*
X151067477Y-110761514D01*
X151101014Y-110827333D01*
X151230581Y-111005668D01*
X151230585Y-111005673D01*
X151386465Y-111161553D01*
X151386470Y-111161557D01*
X151542021Y-111274570D01*
X151564807Y-111291125D01*
X151683395Y-111351549D01*
X151761222Y-111391205D01*
X151761225Y-111391206D01*
X151866050Y-111425265D01*
X151970878Y-111459325D01*
X152188607Y-111493810D01*
X152188608Y-111493810D01*
X152409050Y-111493810D01*
X152409051Y-111493810D01*
X152626780Y-111459325D01*
X152836435Y-111391205D01*
X153032851Y-111291125D01*
X153211194Y-111161552D01*
X153367071Y-111005675D01*
X153496644Y-110827332D01*
X153596724Y-110630916D01*
X153664844Y-110421261D01*
X153675944Y-110351177D01*
X153705871Y-110288047D01*
X153765183Y-110251115D01*
X153835045Y-110252113D01*
X153866936Y-110267231D01*
X153938024Y-110314364D01*
X154075523Y-110356878D01*
X154137197Y-110357759D01*
X154219426Y-110358934D01*
X154219426Y-110358933D01*
X154219430Y-110358934D01*
X154358087Y-110320362D01*
X154410080Y-110290509D01*
X155943769Y-109176217D01*
X155988229Y-109135995D01*
X156067761Y-109016043D01*
X156110275Y-108878544D01*
X156112331Y-108734637D01*
X156073759Y-108595980D01*
X156062501Y-108576372D01*
X156043909Y-108543991D01*
X156043900Y-108543978D01*
X154929619Y-107010304D01*
X154929607Y-107010290D01*
X154889394Y-106965840D01*
X154889393Y-106965839D01*
X154889392Y-106965838D01*
X154769440Y-106886306D01*
X154631941Y-106843792D01*
X154631940Y-106843791D01*
X154631937Y-106843791D01*
X154488037Y-106841735D01*
X154488033Y-106841736D01*
X154349376Y-106880308D01*
X154297388Y-106910157D01*
X154297375Y-106910166D01*
X152763701Y-108024447D01*
X152763687Y-108024459D01*
X152719237Y-108064672D01*
X152639703Y-108184626D01*
X152597188Y-108322129D01*
X152597188Y-108322130D01*
X152595132Y-108466029D01*
X152595133Y-108466035D01*
X152617991Y-108548204D01*
X152616993Y-108618066D01*
X152578383Y-108676299D01*
X152514420Y-108704413D01*
X152479130Y-108703909D01*
X152409051Y-108692810D01*
X152188607Y-108692810D01*
X152118531Y-108703909D01*
X151970876Y-108727295D01*
X151761225Y-108795413D01*
X151761222Y-108795414D01*
X151564803Y-108895497D01*
X151386470Y-109025062D01*
X151386465Y-109025066D01*
X151230585Y-109180946D01*
X151230581Y-109180951D01*
X151101014Y-109359286D01*
X151067477Y-109425106D01*
X151019503Y-109475901D01*
X150956993Y-109492810D01*
X150228755Y-109492810D01*
X150161716Y-109473125D01*
X150141074Y-109456491D01*
X144001590Y-103317007D01*
X143968105Y-103255684D01*
X143973089Y-103185992D01*
X144014961Y-103130059D01*
X144080425Y-103105642D01*
X144089271Y-103105326D01*
X144282525Y-103105326D01*
X144282526Y-103105326D01*
X144484708Y-103073303D01*
X144679393Y-103010046D01*
X144861784Y-102917113D01*
X144954764Y-102849558D01*
X145027387Y-102796797D01*
X145027389Y-102796794D01*
X145027393Y-102796792D01*
X145172140Y-102652045D01*
X145172142Y-102652041D01*
X145172145Y-102652039D01*
X145224906Y-102579416D01*
X145292461Y-102486436D01*
X145385394Y-102304045D01*
X145448651Y-102109360D01*
X145480674Y-101907178D01*
X145480674Y-101702474D01*
X145460799Y-101576989D01*
X145448651Y-101500291D01*
X145385392Y-101305602D01*
X145292594Y-101123478D01*
X145292461Y-101123216D01*
X145284730Y-101112575D01*
X145172145Y-100957612D01*
X145027387Y-100812854D01*
X144861787Y-100692541D01*
X144861786Y-100692540D01*
X144861784Y-100692539D01*
X144804827Y-100663517D01*
X144679397Y-100599607D01*
X144484708Y-100536348D01*
X144310169Y-100508704D01*
X144282526Y-100504326D01*
X144077822Y-100504326D01*
X144039773Y-100510352D01*
X143875642Y-100536348D01*
X143866891Y-100539191D01*
X143861328Y-100540999D01*
X143791487Y-100542993D01*
X143735331Y-100510748D01*
X141682764Y-98458181D01*
X141682762Y-98458178D01*
X141563891Y-98339307D01*
X141563890Y-98339306D01*
X141477078Y-98289186D01*
X141477078Y-98289185D01*
X141477074Y-98289184D01*
X141426959Y-98260249D01*
X141274231Y-98219325D01*
X141116117Y-98219325D01*
X141108521Y-98219325D01*
X141108505Y-98219326D01*
X129819940Y-98219326D01*
X129752901Y-98199641D01*
X129751049Y-98198428D01*
X129619359Y-98110435D01*
X129619346Y-98110428D01*
X129473675Y-98050090D01*
X129473663Y-98050087D01*
X129319019Y-98019326D01*
X129319016Y-98019326D01*
X129161332Y-98019326D01*
X129161329Y-98019326D01*
X129006684Y-98050087D01*
X129006672Y-98050090D01*
X128861001Y-98110428D01*
X128860988Y-98110435D01*
X128729885Y-98198036D01*
X128729881Y-98198039D01*
X128618387Y-98309533D01*
X128618384Y-98309537D01*
X128530783Y-98440640D01*
X128530776Y-98440653D01*
X128470438Y-98586324D01*
X128470435Y-98586336D01*
X128439674Y-98740979D01*
X128439674Y-98898672D01*
X128470435Y-99053315D01*
X128470438Y-99053327D01*
X128530776Y-99198998D01*
X128530783Y-99199011D01*
X128618384Y-99330114D01*
X128618387Y-99330118D01*
X128729881Y-99441612D01*
X128729885Y-99441615D01*
X128860988Y-99529216D01*
X128861001Y-99529223D01*
X129006672Y-99589561D01*
X129006677Y-99589563D01*
X129161327Y-99620325D01*
X129161330Y-99620326D01*
X129161332Y-99620326D01*
X129319018Y-99620326D01*
X129319019Y-99620325D01*
X129473671Y-99589563D01*
X129619353Y-99529220D01*
X129647687Y-99510288D01*
X129751049Y-99441224D01*
X129817727Y-99420346D01*
X129819940Y-99420326D01*
X140895077Y-99420326D01*
X140962116Y-99440011D01*
X140982758Y-99456645D01*
X141818758Y-100292645D01*
X141852243Y-100353968D01*
X141847259Y-100423660D01*
X141805387Y-100479593D01*
X141739923Y-100504010D01*
X141731077Y-100504326D01*
X141537822Y-100504326D01*
X141513503Y-100508177D01*
X141335639Y-100536348D01*
X141140950Y-100599607D01*
X140958560Y-100692541D01*
X140792960Y-100812854D01*
X140648202Y-100957612D01*
X140527889Y-101123212D01*
X140480659Y-101215906D01*
X140432684Y-101266702D01*
X140364863Y-101283497D01*
X140298728Y-101260960D01*
X140259689Y-101215906D01*
X140212594Y-101123478D01*
X140212461Y-101123216D01*
X140204730Y-101112575D01*
X140092145Y-100957612D01*
X139947387Y-100812854D01*
X139781787Y-100692541D01*
X139781786Y-100692540D01*
X139781784Y-100692539D01*
X139724827Y-100663517D01*
X139599397Y-100599607D01*
X139404708Y-100536348D01*
X139230169Y-100508704D01*
X139202526Y-100504326D01*
X138997822Y-100504326D01*
X138973503Y-100508177D01*
X138795639Y-100536348D01*
X138600950Y-100599607D01*
X138418560Y-100692541D01*
X138252960Y-100812854D01*
X138108202Y-100957612D01*
X137987889Y-101123212D01*
X137940659Y-101215906D01*
X137892684Y-101266702D01*
X137824863Y-101283497D01*
X137758728Y-101260960D01*
X137719689Y-101215906D01*
X137672594Y-101123478D01*
X137672461Y-101123216D01*
X137664730Y-101112575D01*
X137552145Y-100957612D01*
X137407387Y-100812854D01*
X137241787Y-100692541D01*
X137241786Y-100692540D01*
X137241784Y-100692539D01*
X137184827Y-100663517D01*
X137059397Y-100599607D01*
X136864708Y-100536348D01*
X136690169Y-100508704D01*
X136662526Y-100504326D01*
X136457822Y-100504326D01*
X136433503Y-100508177D01*
X136255639Y-100536348D01*
X136060950Y-100599607D01*
X135878560Y-100692541D01*
X135712960Y-100812854D01*
X135568202Y-100957612D01*
X135447887Y-101123214D01*
X135400377Y-101216456D01*
X135352402Y-101267252D01*
X135284581Y-101284046D01*
X135218446Y-101261508D01*
X135179408Y-101216454D01*
X135132035Y-101123478D01*
X135099648Y-101078903D01*
X135099648Y-101078902D01*
X134420174Y-101758377D01*
X134420174Y-101752165D01*
X134392915Y-101650432D01*
X134340254Y-101559220D01*
X134265780Y-101484746D01*
X134174568Y-101432085D01*
X134072835Y-101404826D01*
X134066620Y-101404826D01*
X134746096Y-100725350D01*
X134746095Y-100725349D01*
X134701533Y-100692973D01*
X134701524Y-100692967D01*
X134519205Y-100600070D01*
X134324591Y-100536835D01*
X134122491Y-100504826D01*
X133917857Y-100504826D01*
X133715756Y-100536835D01*
X133521142Y-100600070D01*
X133338818Y-100692969D01*
X133294251Y-100725349D01*
X133294251Y-100725350D01*
X133973728Y-101404826D01*
X133967513Y-101404826D01*
X133865780Y-101432085D01*
X133774568Y-101484746D01*
X133700094Y-101559220D01*
X133647433Y-101650432D01*
X133620174Y-101752165D01*
X133620174Y-101758379D01*
X132940698Y-101078903D01*
X132940697Y-101078903D01*
X132908317Y-101123470D01*
X132860939Y-101216456D01*
X132812964Y-101267252D01*
X132745143Y-101284047D01*
X132679008Y-101261509D01*
X132639969Y-101216456D01*
X132592458Y-101123211D01*
X132472145Y-100957612D01*
X132327387Y-100812854D01*
X132161787Y-100692541D01*
X132161786Y-100692540D01*
X132161784Y-100692539D01*
X132104827Y-100663517D01*
X131979397Y-100599607D01*
X131784708Y-100536348D01*
X131610169Y-100508704D01*
X131582526Y-100504326D01*
X131377822Y-100504326D01*
X131353503Y-100508177D01*
X131175639Y-100536348D01*
X130980950Y-100599607D01*
X130798560Y-100692541D01*
X130632960Y-100812854D01*
X130488202Y-100957612D01*
X130367887Y-101123214D01*
X130320377Y-101216456D01*
X130272402Y-101267252D01*
X130204581Y-101284046D01*
X130138446Y-101261508D01*
X130099408Y-101216454D01*
X130052035Y-101123478D01*
X130019648Y-101078903D01*
X130019648Y-101078902D01*
X129340174Y-101758377D01*
X129340174Y-101752165D01*
X129312915Y-101650432D01*
X129260254Y-101559220D01*
X129185780Y-101484746D01*
X129094568Y-101432085D01*
X128992835Y-101404826D01*
X128986620Y-101404826D01*
X129666096Y-100725350D01*
X129666095Y-100725349D01*
X129621533Y-100692973D01*
X129621524Y-100692967D01*
X129439205Y-100600070D01*
X129244591Y-100536835D01*
X129042491Y-100504826D01*
X128837857Y-100504826D01*
X128635756Y-100536835D01*
X128441142Y-100600070D01*
X128258818Y-100692969D01*
X128214251Y-100725349D01*
X128214251Y-100725350D01*
X128893728Y-101404826D01*
X128887513Y-101404826D01*
X128785780Y-101432085D01*
X128694568Y-101484746D01*
X128620094Y-101559220D01*
X128567433Y-101650432D01*
X128540174Y-101752165D01*
X128540174Y-101758379D01*
X127860698Y-101078903D01*
X127860697Y-101078903D01*
X127828317Y-101123470D01*
X127780939Y-101216456D01*
X127732964Y-101267252D01*
X127665143Y-101284047D01*
X127599008Y-101261509D01*
X127559969Y-101216456D01*
X127512458Y-101123211D01*
X127392145Y-100957612D01*
X127247387Y-100812854D01*
X127081787Y-100692541D01*
X127081786Y-100692540D01*
X127081784Y-100692539D01*
X127024827Y-100663517D01*
X126899397Y-100599607D01*
X126704708Y-100536348D01*
X126530169Y-100508704D01*
X126502526Y-100504326D01*
X126297822Y-100504326D01*
X126273503Y-100508177D01*
X126095639Y-100536348D01*
X125900950Y-100599607D01*
X125718560Y-100692541D01*
X125552960Y-100812854D01*
X125408202Y-100957612D01*
X125287889Y-101123212D01*
X125194955Y-101305602D01*
X125131696Y-101500291D01*
X125099674Y-101702474D01*
X123285834Y-101702474D01*
X127851664Y-97136645D01*
X127912987Y-97103160D01*
X127939345Y-97100326D01*
X136073505Y-97100326D01*
X136073521Y-97100327D01*
X136081117Y-97100327D01*
X136239228Y-97100327D01*
X136239231Y-97100327D01*
X136391959Y-97059403D01*
X136442078Y-97030465D01*
X136528890Y-96980346D01*
X136640694Y-96868542D01*
X136640694Y-96868540D01*
X136650902Y-96858333D01*
X136650904Y-96858330D01*
X136918680Y-96590554D01*
X136918685Y-96590550D01*
X136928888Y-96580346D01*
X136928890Y-96580346D01*
X137040694Y-96468542D01*
X137119751Y-96331610D01*
X137149708Y-96219807D01*
X137160674Y-96178884D01*
X137160674Y-96020769D01*
X137160674Y-95414427D01*
X137180359Y-95347388D01*
X137228380Y-95303942D01*
X137241784Y-95297113D01*
X137407393Y-95176792D01*
X137552140Y-95032045D01*
X137552142Y-95032041D01*
X137552145Y-95032039D01*
X137672458Y-94866440D01*
X137672460Y-94866437D01*
X137672461Y-94866436D01*
X137719690Y-94773743D01*
X137767663Y-94722949D01*
X137835484Y-94706154D01*
X137901619Y-94728691D01*
X137940657Y-94773743D01*
X137946309Y-94784834D01*
X137987889Y-94866440D01*
X138108202Y-95032039D01*
X138252960Y-95176797D01*
X138342054Y-95241526D01*
X138418564Y-95297113D01*
X138529761Y-95353771D01*
X138600950Y-95390044D01*
X138600952Y-95390044D01*
X138600955Y-95390046D01*
X138692030Y-95419638D01*
X138795639Y-95453303D01*
X138896731Y-95469314D01*
X138997822Y-95485326D01*
X138997823Y-95485326D01*
X139202525Y-95485326D01*
X139202526Y-95485326D01*
X139404708Y-95453303D01*
X139599393Y-95390046D01*
X139781784Y-95297113D01*
X139910656Y-95203483D01*
X139947387Y-95176797D01*
X139947389Y-95176794D01*
X139947393Y-95176792D01*
X140092140Y-95032045D01*
X140092142Y-95032041D01*
X140092145Y-95032039D01*
X140212458Y-94866440D01*
X140212460Y-94866437D01*
X140212461Y-94866436D01*
X140259690Y-94773743D01*
X140307663Y-94722949D01*
X140375484Y-94706154D01*
X140441619Y-94728691D01*
X140480657Y-94773743D01*
X140486309Y-94784834D01*
X140527889Y-94866440D01*
X140648202Y-95032039D01*
X140792960Y-95176797D01*
X140882054Y-95241526D01*
X140958564Y-95297113D01*
X141069761Y-95353771D01*
X141140950Y-95390044D01*
X141140952Y-95390044D01*
X141140955Y-95390046D01*
X141232030Y-95419638D01*
X141335639Y-95453303D01*
X141436731Y-95469314D01*
X141537822Y-95485326D01*
X141537823Y-95485326D01*
X141742525Y-95485326D01*
X141742526Y-95485326D01*
X141944708Y-95453303D01*
X142139393Y-95390046D01*
X142321784Y-95297113D01*
X142450656Y-95203483D01*
X142487387Y-95176797D01*
X142487389Y-95176794D01*
X142487393Y-95176792D01*
X142632140Y-95032045D01*
X142632142Y-95032041D01*
X142632145Y-95032039D01*
X142737068Y-94887623D01*
X142752461Y-94866436D01*
X142799969Y-94773195D01*
X142847943Y-94722399D01*
X142915764Y-94705604D01*
X142981899Y-94728141D01*
X143020939Y-94773195D01*
X143068315Y-94866176D01*
X143068321Y-94866185D01*
X143100697Y-94910747D01*
X143100698Y-94910748D01*
X143780174Y-94231272D01*
X143780174Y-94237487D01*
X143807433Y-94339220D01*
X143860094Y-94430432D01*
X143934568Y-94504906D01*
X144025780Y-94557567D01*
X144127513Y-94584826D01*
X144133727Y-94584826D01*
X143454250Y-95264300D01*
X143498824Y-95296685D01*
X143681142Y-95389581D01*
X143875756Y-95452816D01*
X144077857Y-95484826D01*
X144282491Y-95484826D01*
X144484591Y-95452816D01*
X144679205Y-95389581D01*
X144861523Y-95296685D01*
X144906095Y-95264300D01*
X144226621Y-94584826D01*
X144232835Y-94584826D01*
X144334568Y-94557567D01*
X144425780Y-94504906D01*
X144500254Y-94430432D01*
X144552915Y-94339220D01*
X144580174Y-94237487D01*
X144580174Y-94231273D01*
X145259648Y-94910747D01*
X145292033Y-94866175D01*
X145384929Y-94683857D01*
X145448164Y-94489243D01*
X145480174Y-94287143D01*
X145480174Y-94082508D01*
X145448164Y-93880408D01*
X145384929Y-93685794D01*
X145292033Y-93503476D01*
X145259648Y-93458903D01*
X145259648Y-93458902D01*
X144580174Y-94138377D01*
X144580174Y-94132165D01*
X144552915Y-94030432D01*
X144500254Y-93939220D01*
X144425780Y-93864746D01*
X144334568Y-93812085D01*
X144232835Y-93784826D01*
X144226620Y-93784826D01*
X144906096Y-93105350D01*
X144906095Y-93105349D01*
X144861533Y-93072973D01*
X144861524Y-93072967D01*
X144679205Y-92980070D01*
X144484591Y-92916835D01*
X144282491Y-92884826D01*
X144077857Y-92884826D01*
X143875756Y-92916835D01*
X143681142Y-92980070D01*
X143498818Y-93072969D01*
X143454251Y-93105349D01*
X143454251Y-93105350D01*
X144133728Y-93784826D01*
X144127513Y-93784826D01*
X144025780Y-93812085D01*
X143934568Y-93864746D01*
X143860094Y-93939220D01*
X143807433Y-94030432D01*
X143780174Y-94132165D01*
X143780174Y-94138379D01*
X143100698Y-93458903D01*
X143100697Y-93458903D01*
X143068317Y-93503470D01*
X143020939Y-93596456D01*
X142972964Y-93647252D01*
X142905143Y-93664047D01*
X142839008Y-93641509D01*
X142799969Y-93596456D01*
X142752458Y-93503211D01*
X142632145Y-93337612D01*
X142487387Y-93192854D01*
X142321787Y-93072541D01*
X142321786Y-93072540D01*
X142321784Y-93072539D01*
X142262072Y-93042114D01*
X142139397Y-92979607D01*
X141944708Y-92916348D01*
X141770169Y-92888704D01*
X141742526Y-92884326D01*
X141537822Y-92884326D01*
X141513503Y-92888177D01*
X141335639Y-92916348D01*
X141140950Y-92979607D01*
X140958560Y-93072541D01*
X140792960Y-93192854D01*
X140648202Y-93337612D01*
X140527889Y-93503212D01*
X140480659Y-93595906D01*
X140432684Y-93646702D01*
X140364863Y-93663497D01*
X140298728Y-93640960D01*
X140259689Y-93595906D01*
X140212593Y-93503476D01*
X140212461Y-93503216D01*
X140180266Y-93458903D01*
X140092145Y-93337612D01*
X139947387Y-93192854D01*
X139781787Y-93072541D01*
X139781786Y-93072540D01*
X139781784Y-93072539D01*
X139722072Y-93042114D01*
X139599397Y-92979607D01*
X139404708Y-92916348D01*
X139230169Y-92888704D01*
X139202526Y-92884326D01*
X138997822Y-92884326D01*
X138973503Y-92888177D01*
X138795639Y-92916348D01*
X138600950Y-92979607D01*
X138418560Y-93072541D01*
X138252960Y-93192854D01*
X138108202Y-93337612D01*
X137987889Y-93503212D01*
X137940659Y-93595906D01*
X137892684Y-93646702D01*
X137824863Y-93663497D01*
X137758728Y-93640960D01*
X137719689Y-93595906D01*
X137672593Y-93503476D01*
X137672461Y-93503216D01*
X137640266Y-93458903D01*
X137552145Y-93337612D01*
X137407387Y-93192854D01*
X137241787Y-93072541D01*
X137241786Y-93072540D01*
X137241784Y-93072539D01*
X137182072Y-93042114D01*
X137059397Y-92979607D01*
X136864708Y-92916348D01*
X136690169Y-92888704D01*
X136662526Y-92884326D01*
X136514270Y-92884326D01*
X136447231Y-92864641D01*
X136401476Y-92811837D01*
X136391532Y-92742679D01*
X136420557Y-92679123D01*
X136426589Y-92672645D01*
X139995658Y-89103576D01*
X143595733Y-85503500D01*
X143657054Y-85470017D01*
X143726746Y-85475001D01*
X143782679Y-85516873D01*
X143787241Y-85524042D01*
X143787395Y-85523940D01*
X143878384Y-85660114D01*
X143878387Y-85660118D01*
X143989881Y-85771612D01*
X143989885Y-85771615D01*
X144120988Y-85859216D01*
X144121001Y-85859223D01*
X144266672Y-85919561D01*
X144266677Y-85919563D01*
X144331321Y-85932421D01*
X144422023Y-85950464D01*
X144483934Y-85982849D01*
X144485513Y-85984400D01*
X148193355Y-89692242D01*
X148226840Y-89753565D01*
X148229674Y-89779923D01*
X148229674Y-99955326D01*
X148209989Y-100022365D01*
X148157185Y-100068120D01*
X148105675Y-100079326D01*
X147932304Y-100079326D01*
X147932297Y-100079327D01*
X147872690Y-100085734D01*
X147737845Y-100136028D01*
X147737838Y-100136032D01*
X147622629Y-100222278D01*
X147622626Y-100222281D01*
X147536380Y-100337490D01*
X147536376Y-100337497D01*
X147486082Y-100472343D01*
X147479675Y-100531942D01*
X147479675Y-100531949D01*
X147479674Y-100531961D01*
X147479674Y-102327696D01*
X147479675Y-102327702D01*
X147486082Y-102387309D01*
X147536376Y-102522154D01*
X147536380Y-102522161D01*
X147622626Y-102637370D01*
X147622629Y-102637373D01*
X147737838Y-102723619D01*
X147737845Y-102723623D01*
X147872691Y-102773917D01*
X147872690Y-102773917D01*
X147879618Y-102774661D01*
X147932301Y-102780326D01*
X149728046Y-102780325D01*
X149787657Y-102773917D01*
X149922505Y-102723622D01*
X150037720Y-102637372D01*
X150123970Y-102522157D01*
X150174265Y-102387309D01*
X150180674Y-102327699D01*
X150180673Y-100531954D01*
X150174265Y-100472343D01*
X150156107Y-100423660D01*
X150123971Y-100337497D01*
X150123967Y-100337490D01*
X150037721Y-100222281D01*
X150037718Y-100222278D01*
X149922509Y-100136032D01*
X149922502Y-100136028D01*
X149787656Y-100085734D01*
X149787657Y-100085734D01*
X149728057Y-100079327D01*
X149728055Y-100079326D01*
X149728047Y-100079326D01*
X149728039Y-100079326D01*
X149554674Y-100079326D01*
X149487635Y-100059641D01*
X149441880Y-100006837D01*
X149430674Y-99955326D01*
X149430674Y-95905797D01*
X163066467Y-95905797D01*
X163066467Y-96126241D01*
X163081369Y-96220326D01*
X163100952Y-96343971D01*
X163169070Y-96553622D01*
X163169071Y-96553625D01*
X163269154Y-96750044D01*
X163398719Y-96928377D01*
X163398723Y-96928382D01*
X163554603Y-97084262D01*
X163554608Y-97084266D01*
X163710159Y-97197279D01*
X163732945Y-97213834D01*
X163861342Y-97279256D01*
X163929360Y-97313914D01*
X163929363Y-97313915D01*
X164034188Y-97347974D01*
X164139016Y-97382034D01*
X164356745Y-97416519D01*
X164356746Y-97416519D01*
X164577188Y-97416519D01*
X164577189Y-97416519D01*
X164794918Y-97382034D01*
X165004573Y-97313914D01*
X165200989Y-97213834D01*
X165379332Y-97084261D01*
X165535209Y-96928384D01*
X165664782Y-96750041D01*
X165764862Y-96553625D01*
X165832982Y-96343970D01*
X165867467Y-96126241D01*
X165867467Y-95905797D01*
X165832982Y-95688068D01*
X165790660Y-95557813D01*
X165764863Y-95478415D01*
X165764861Y-95478412D01*
X165763033Y-95474825D01*
X165735384Y-95420559D01*
X165732650Y-95415193D01*
X165719754Y-95346524D01*
X165746030Y-95281783D01*
X165803137Y-95241526D01*
X165837817Y-95235013D01*
X165923036Y-95231361D01*
X166004839Y-95203483D01*
X166059259Y-95184937D01*
X166059260Y-95184936D01*
X166059264Y-95184935D01*
X166176896Y-95102012D01*
X166266400Y-94989306D01*
X166290916Y-94934594D01*
X166299058Y-94909537D01*
X166419654Y-94538379D01*
X166876732Y-93131633D01*
X166889059Y-93072960D01*
X166882896Y-92929169D01*
X166882142Y-92926956D01*
X166836472Y-92792945D01*
X166836469Y-92792939D01*
X166753548Y-92675310D01*
X166686756Y-92622268D01*
X166640841Y-92585805D01*
X166591365Y-92563635D01*
X166586125Y-92561287D01*
X166586123Y-92561286D01*
X164783173Y-91975474D01*
X164783169Y-91975473D01*
X164783168Y-91975473D01*
X164724495Y-91963146D01*
X164580704Y-91969309D01*
X164580703Y-91969309D01*
X164580697Y-91969310D01*
X164444480Y-92015732D01*
X164444474Y-92015735D01*
X164326845Y-92098656D01*
X164237340Y-92211364D01*
X164212822Y-92266079D01*
X164212821Y-92266081D01*
X163627009Y-94069031D01*
X163627008Y-94069037D01*
X163614681Y-94127707D01*
X163614681Y-94127712D01*
X163620844Y-94271498D01*
X163620845Y-94271507D01*
X163667267Y-94407724D01*
X163667270Y-94407730D01*
X163750191Y-94525359D01*
X163750192Y-94525360D01*
X163750193Y-94525361D01*
X163766586Y-94538379D01*
X163816984Y-94578402D01*
X163857241Y-94635509D01*
X163860233Y-94705315D01*
X163825011Y-94765656D01*
X163796164Y-94785992D01*
X163732941Y-94818206D01*
X163554608Y-94947771D01*
X163554603Y-94947775D01*
X163398723Y-95103655D01*
X163398719Y-95103660D01*
X163269154Y-95281993D01*
X163169071Y-95478412D01*
X163169070Y-95478415D01*
X163100952Y-95688066D01*
X163083382Y-95798998D01*
X163066467Y-95905797D01*
X149430674Y-95905797D01*
X149430674Y-89568886D01*
X149430675Y-89568873D01*
X149430675Y-89400770D01*
X149430675Y-89400769D01*
X149389751Y-89248042D01*
X149367653Y-89209767D01*
X149310698Y-89111116D01*
X149310692Y-89111108D01*
X145334747Y-85135163D01*
X145301262Y-85073840D01*
X145300811Y-85071673D01*
X145269912Y-84916336D01*
X145269911Y-84916329D01*
X145259940Y-84892257D01*
X145209571Y-84770653D01*
X145209564Y-84770640D01*
X145121963Y-84639537D01*
X145121960Y-84639533D01*
X145010466Y-84528039D01*
X145010462Y-84528036D01*
X144874288Y-84437047D01*
X144875601Y-84435080D01*
X144833230Y-84393453D01*
X144817773Y-84325315D01*
X144841609Y-84259637D01*
X144853843Y-84245390D01*
X150087416Y-79011819D01*
X150148739Y-78978334D01*
X150175097Y-78975500D01*
X165050104Y-78975500D01*
X165050120Y-78975501D01*
X165057716Y-78975501D01*
X165215827Y-78975501D01*
X165215830Y-78975501D01*
X165368558Y-78934577D01*
X165418677Y-78905639D01*
X165505489Y-78855520D01*
X165521983Y-78839025D01*
X165533174Y-78831828D01*
X165554434Y-78825577D01*
X165573883Y-78814955D01*
X165588137Y-78815667D01*
X165600206Y-78812119D01*
X165617273Y-78817123D01*
X165638567Y-78818187D01*
X165708822Y-78841015D01*
X165926551Y-78875500D01*
X165926552Y-78875500D01*
X166146994Y-78875500D01*
X166146995Y-78875500D01*
X166364724Y-78841015D01*
X166574379Y-78772895D01*
X166770795Y-78672815D01*
X166949138Y-78543242D01*
X167105015Y-78387365D01*
X167234588Y-78209022D01*
X167334668Y-78012606D01*
X167402788Y-77802951D01*
X167437273Y-77585222D01*
X167437273Y-77364778D01*
X167402788Y-77147049D01*
X167334668Y-76937394D01*
X167334668Y-76937393D01*
X167300010Y-76869375D01*
X167234588Y-76740978D01*
X167186201Y-76674379D01*
X167105020Y-76562641D01*
X167105016Y-76562636D01*
X166949136Y-76406756D01*
X166949131Y-76406752D01*
X166770796Y-76277185D01*
X166707574Y-76244971D01*
X166656778Y-76196996D01*
X166639984Y-76129175D01*
X166662522Y-76063040D01*
X166686747Y-76037389D01*
X166753547Y-75984342D01*
X166836470Y-75866710D01*
X166882896Y-75730482D01*
X166889059Y-75586691D01*
X166876734Y-75528018D01*
X166290915Y-73725058D01*
X166266400Y-73670345D01*
X166176896Y-73557639D01*
X166176895Y-73557638D01*
X166176894Y-73557637D01*
X166059265Y-73474716D01*
X166059259Y-73474713D01*
X165923042Y-73428291D01*
X165923037Y-73428290D01*
X165923036Y-73428290D01*
X165815192Y-73423667D01*
X165779246Y-73422127D01*
X165779245Y-73422127D01*
X165720572Y-73434452D01*
X165720571Y-73434452D01*
X163917616Y-74020269D01*
X163917611Y-74020271D01*
X163862898Y-74044786D01*
X163750191Y-74134291D01*
X163667270Y-74251920D01*
X163667267Y-74251926D01*
X163620845Y-74388143D01*
X163620844Y-74388149D01*
X163620844Y-74388150D01*
X163614681Y-74531941D01*
X163626560Y-74588490D01*
X163627006Y-74590613D01*
X163627006Y-74590614D01*
X164212823Y-76393569D01*
X164212825Y-76393574D01*
X164237340Y-76448287D01*
X164326845Y-76560994D01*
X164444474Y-76643915D01*
X164444480Y-76643918D01*
X164580697Y-76690340D01*
X164580698Y-76690340D01*
X164580704Y-76690342D01*
X164665914Y-76693994D01*
X164732049Y-76716531D01*
X164775501Y-76771246D01*
X164782474Y-76840767D01*
X164771089Y-76874174D01*
X164738880Y-76937387D01*
X164738876Y-76937396D01*
X164670758Y-77147047D01*
X164636273Y-77364778D01*
X164636273Y-77585220D01*
X164643540Y-77631102D01*
X164634586Y-77700395D01*
X164589590Y-77753847D01*
X164522838Y-77774487D01*
X164521067Y-77774500D01*
X155284674Y-77774500D01*
X155217635Y-77754815D01*
X155171880Y-77702011D01*
X155160674Y-77650500D01*
X155160673Y-76076955D01*
X155160672Y-76076949D01*
X155160671Y-76076942D01*
X155154265Y-76017343D01*
X155141956Y-75984342D01*
X155103971Y-75882497D01*
X155103967Y-75882490D01*
X155017721Y-75767281D01*
X155017718Y-75767278D01*
X154902509Y-75681032D01*
X154902502Y-75681028D01*
X154767656Y-75630734D01*
X154767657Y-75630734D01*
X154708057Y-75624327D01*
X154708055Y-75624326D01*
X154708047Y-75624326D01*
X154708039Y-75624326D01*
X154697483Y-75624326D01*
X154630444Y-75604641D01*
X154609802Y-75588007D01*
X153939582Y-74917788D01*
X154003167Y-74900751D01*
X154117181Y-74834925D01*
X154210273Y-74741833D01*
X154276099Y-74627819D01*
X154293136Y-74564234D01*
X154925444Y-75196543D01*
X154925444Y-75196542D01*
X154964796Y-75142380D01*
X155061269Y-74953043D01*
X155126931Y-74750956D01*
X155126931Y-74750953D01*
X155160174Y-74541072D01*
X155160174Y-74328579D01*
X155126931Y-74118698D01*
X155126931Y-74118695D01*
X155061269Y-73916608D01*
X154964798Y-73727275D01*
X154925444Y-73673108D01*
X154925443Y-73673108D01*
X154293136Y-74305416D01*
X154276099Y-74241833D01*
X154210273Y-74127819D01*
X154117181Y-74034727D01*
X154003167Y-73968901D01*
X153939583Y-73951863D01*
X154571890Y-73319554D01*
X154517724Y-73280201D01*
X154328391Y-73183730D01*
X154126303Y-73118068D01*
X153916420Y-73084826D01*
X153703928Y-73084826D01*
X153494046Y-73118068D01*
X153494043Y-73118068D01*
X153291956Y-73183730D01*
X153102613Y-73280206D01*
X153048456Y-73319553D01*
X153048456Y-73319554D01*
X153680765Y-73951863D01*
X153617181Y-73968901D01*
X153503167Y-74034727D01*
X153410075Y-74127819D01*
X153344249Y-74241833D01*
X153327211Y-74305417D01*
X152694902Y-73673108D01*
X152694901Y-73673108D01*
X152655554Y-73727265D01*
X152559078Y-73916608D01*
X152493416Y-74118695D01*
X152493416Y-74118698D01*
X152460174Y-74328579D01*
X152460174Y-74541072D01*
X152493416Y-74750953D01*
X152493416Y-74750956D01*
X152559078Y-74953043D01*
X152655549Y-75142376D01*
X152694902Y-75196542D01*
X153327210Y-74564233D01*
X153344249Y-74627819D01*
X153410075Y-74741833D01*
X153503167Y-74834925D01*
X153617181Y-74900751D01*
X153680764Y-74917788D01*
X153010544Y-75588007D01*
X152949221Y-75621492D01*
X152922872Y-75624326D01*
X152912308Y-75624326D01*
X152912297Y-75624327D01*
X152852690Y-75630734D01*
X152717845Y-75681028D01*
X152717838Y-75681032D01*
X152602629Y-75767278D01*
X152602626Y-75767281D01*
X152516380Y-75882490D01*
X152516376Y-75882497D01*
X152466082Y-76017343D01*
X152460008Y-76073845D01*
X152459674Y-76076953D01*
X152459674Y-76874174D01*
X152459675Y-77650500D01*
X152439990Y-77717539D01*
X152387187Y-77763294D01*
X152335675Y-77774500D01*
X149795940Y-77774500D01*
X149755019Y-77785464D01*
X149755019Y-77785465D01*
X149717751Y-77795451D01*
X149643214Y-77815423D01*
X149643209Y-77815426D01*
X149506290Y-77894475D01*
X149506282Y-77894481D01*
X145432355Y-81968409D01*
X145371032Y-82001894D01*
X145301340Y-81996910D01*
X145245407Y-81955038D01*
X145220990Y-81889574D01*
X145220674Y-81880728D01*
X145220674Y-71065472D01*
X145469674Y-71065472D01*
X145469674Y-71294179D01*
X145505452Y-71520072D01*
X145505452Y-71520075D01*
X145576124Y-71737581D01*
X145679173Y-71939826D01*
X145679957Y-71941364D01*
X145814388Y-72126392D01*
X145976108Y-72288112D01*
X146061038Y-72349817D01*
X146103703Y-72405147D01*
X146109682Y-72474761D01*
X146077076Y-72536556D01*
X146061038Y-72550453D01*
X145976431Y-72611923D01*
X145814771Y-72773583D01*
X145680385Y-72958549D01*
X145576591Y-73162255D01*
X145505939Y-73379697D01*
X145491665Y-73469826D01*
X146479426Y-73469826D01*
X146457656Y-73507534D01*
X146420174Y-73647417D01*
X146420174Y-73792235D01*
X146457656Y-73932118D01*
X146479426Y-73969826D01*
X145491665Y-73969826D01*
X145505939Y-74059954D01*
X145576591Y-74277396D01*
X145680387Y-74481105D01*
X145813185Y-74663886D01*
X145836665Y-74729692D01*
X145820840Y-74797746D01*
X145770734Y-74846441D01*
X145756200Y-74852953D01*
X145727845Y-74863528D01*
X145727838Y-74863532D01*
X145612629Y-74949778D01*
X145612626Y-74949781D01*
X145526380Y-75064990D01*
X145526376Y-75064997D01*
X145476082Y-75199843D01*
X145469675Y-75259442D01*
X145469675Y-75259449D01*
X145469674Y-75259461D01*
X145469674Y-77260196D01*
X145469675Y-77260202D01*
X145476082Y-77319809D01*
X145526376Y-77454654D01*
X145526380Y-77454661D01*
X145612626Y-77569870D01*
X145612629Y-77569873D01*
X145727838Y-77656119D01*
X145727845Y-77656123D01*
X145862691Y-77706417D01*
X145862690Y-77706417D01*
X145869618Y-77707161D01*
X145922301Y-77712826D01*
X148018046Y-77712825D01*
X148077657Y-77706417D01*
X148212505Y-77656122D01*
X148327720Y-77569872D01*
X148413970Y-77454657D01*
X148464265Y-77319809D01*
X148470674Y-77260199D01*
X148470673Y-75259454D01*
X148464265Y-75199843D01*
X148463034Y-75196543D01*
X148413971Y-75064997D01*
X148413967Y-75064990D01*
X148327721Y-74949781D01*
X148327718Y-74949778D01*
X148212509Y-74863532D01*
X148212500Y-74863527D01*
X148184148Y-74852953D01*
X148128214Y-74811083D01*
X148103796Y-74745618D01*
X148118647Y-74677345D01*
X148127162Y-74663885D01*
X148259962Y-74481102D01*
X148363756Y-74277396D01*
X148434408Y-74059954D01*
X148448683Y-73969826D01*
X147460922Y-73969826D01*
X147482692Y-73932118D01*
X147520174Y-73792235D01*
X147520174Y-73647417D01*
X147482692Y-73507534D01*
X147460922Y-73469826D01*
X148448683Y-73469826D01*
X148435440Y-73386211D01*
X148434407Y-73379694D01*
X148363756Y-73162255D01*
X148259962Y-72958549D01*
X148125576Y-72773583D01*
X147963916Y-72611923D01*
X147879309Y-72550452D01*
X147836644Y-72495122D01*
X147830665Y-72425508D01*
X147863271Y-72363713D01*
X147879299Y-72349825D01*
X147964240Y-72288112D01*
X148125960Y-72126392D01*
X148260391Y-71941364D01*
X148364222Y-71737584D01*
X148366275Y-71731267D01*
X148434895Y-71520075D01*
X148434895Y-71520074D01*
X148434896Y-71520071D01*
X148470674Y-71294180D01*
X148470674Y-71065472D01*
X148457866Y-70984606D01*
X148434896Y-70839580D01*
X148412946Y-70772026D01*
X148412945Y-70772024D01*
X148410931Y-70765826D01*
X148364222Y-70622068D01*
X148260391Y-70418288D01*
X148125960Y-70233260D01*
X147964240Y-70071540D01*
X147779212Y-69937109D01*
X147670291Y-69881611D01*
X147575429Y-69833276D01*
X147357922Y-69762604D01*
X147188500Y-69735770D01*
X147132028Y-69726826D01*
X146808320Y-69726826D01*
X146733023Y-69738752D01*
X146582427Y-69762604D01*
X146582424Y-69762604D01*
X146364918Y-69833276D01*
X146161135Y-69937109D01*
X146055570Y-70013806D01*
X145976108Y-70071540D01*
X145976106Y-70071542D01*
X145976105Y-70071542D01*
X145814390Y-70233257D01*
X145814390Y-70233258D01*
X145814388Y-70233260D01*
X145769836Y-70294581D01*
X145679957Y-70418287D01*
X145576124Y-70622070D01*
X145505452Y-70839576D01*
X145505452Y-70839579D01*
X145469674Y-71065472D01*
X145220674Y-71065472D01*
X145220674Y-67406961D01*
X152489674Y-67406961D01*
X152489674Y-69202696D01*
X152489675Y-69202702D01*
X152496082Y-69262309D01*
X152546376Y-69397154D01*
X152546380Y-69397161D01*
X152632626Y-69512370D01*
X152632629Y-69512373D01*
X152747838Y-69598619D01*
X152747845Y-69598623D01*
X152792792Y-69615387D01*
X152882691Y-69648917D01*
X152942301Y-69655326D01*
X152952859Y-69655325D01*
X153019897Y-69675005D01*
X153040546Y-69691644D01*
X153710765Y-70361863D01*
X153647181Y-70378901D01*
X153533167Y-70444727D01*
X153440075Y-70537819D01*
X153374249Y-70651833D01*
X153357211Y-70715417D01*
X152724902Y-70083108D01*
X152724901Y-70083108D01*
X152685554Y-70137265D01*
X152589078Y-70326608D01*
X152523416Y-70528695D01*
X152523416Y-70528698D01*
X152490174Y-70738579D01*
X152490174Y-70951072D01*
X152523416Y-71160953D01*
X152523416Y-71160956D01*
X152589078Y-71363043D01*
X152685549Y-71552376D01*
X152724902Y-71606542D01*
X153357211Y-70974234D01*
X153374249Y-71037819D01*
X153440075Y-71151833D01*
X153533167Y-71244925D01*
X153647181Y-71310751D01*
X153710764Y-71327788D01*
X153078456Y-71960095D01*
X153078456Y-71960096D01*
X153132623Y-71999450D01*
X153321956Y-72095921D01*
X153524044Y-72161583D01*
X153733928Y-72194826D01*
X153946420Y-72194826D01*
X154156301Y-72161583D01*
X154156304Y-72161583D01*
X154358391Y-72095921D01*
X154547728Y-71999448D01*
X154601890Y-71960096D01*
X154601891Y-71960096D01*
X153969582Y-71327788D01*
X154033167Y-71310751D01*
X154147181Y-71244925D01*
X154240273Y-71151833D01*
X154306099Y-71037819D01*
X154323136Y-70974234D01*
X154955444Y-71606543D01*
X154955444Y-71606542D01*
X154994796Y-71552380D01*
X155091269Y-71363043D01*
X155156931Y-71160956D01*
X155156931Y-71160953D01*
X155190174Y-70951072D01*
X155190174Y-70738579D01*
X155156931Y-70528698D01*
X155156931Y-70528695D01*
X155091269Y-70326608D01*
X154994798Y-70137275D01*
X154955444Y-70083108D01*
X154955443Y-70083108D01*
X154323136Y-70715416D01*
X154306099Y-70651833D01*
X154240273Y-70537819D01*
X154147181Y-70444727D01*
X154033167Y-70378901D01*
X153969583Y-70361863D01*
X154639801Y-69691644D01*
X154701124Y-69658159D01*
X154727481Y-69655325D01*
X154738046Y-69655325D01*
X154797657Y-69648917D01*
X154932505Y-69598622D01*
X155047720Y-69512372D01*
X155133970Y-69397157D01*
X155184265Y-69262309D01*
X155190674Y-69202699D01*
X155190673Y-67406954D01*
X155184265Y-67347343D01*
X155133970Y-67212495D01*
X155133969Y-67212494D01*
X155133967Y-67212490D01*
X155047721Y-67097281D01*
X155047718Y-67097278D01*
X154932509Y-67011032D01*
X154932502Y-67011028D01*
X154797656Y-66960734D01*
X154797657Y-66960734D01*
X154738057Y-66954327D01*
X154738055Y-66954326D01*
X154738047Y-66954326D01*
X154738038Y-66954326D01*
X152942303Y-66954326D01*
X152942297Y-66954327D01*
X152882690Y-66960734D01*
X152747845Y-67011028D01*
X152747838Y-67011032D01*
X152632629Y-67097278D01*
X152632626Y-67097281D01*
X152546380Y-67212490D01*
X152546376Y-67212497D01*
X152496082Y-67347343D01*
X152489675Y-67406942D01*
X152489675Y-67406949D01*
X152489674Y-67406961D01*
X145220674Y-67406961D01*
X145220674Y-67054326D01*
X145240359Y-66987287D01*
X145293163Y-66941532D01*
X145344674Y-66930326D01*
X151544431Y-66930326D01*
X151544447Y-66930327D01*
X151552043Y-66930327D01*
X151710154Y-66930327D01*
X151710157Y-66930327D01*
X151862885Y-66889403D01*
X151913004Y-66860465D01*
X151999816Y-66810346D01*
X152111620Y-66698542D01*
X152111620Y-66698540D01*
X152121828Y-66688333D01*
X152121830Y-66688330D01*
X155884432Y-62925727D01*
X155945753Y-62892244D01*
X156010429Y-62895479D01*
X156080684Y-62918306D01*
X156298413Y-62952791D01*
X156298414Y-62952791D01*
X156518856Y-62952791D01*
X156518857Y-62952791D01*
X156736586Y-62918306D01*
X156946241Y-62850186D01*
X157142657Y-62750106D01*
X157321000Y-62620533D01*
X157476877Y-62464656D01*
X157606450Y-62286313D01*
X157706530Y-62089897D01*
X157774650Y-61880242D01*
X157809135Y-61662513D01*
X157809135Y-61442069D01*
X157774650Y-61224340D01*
X157706530Y-61014685D01*
X157706530Y-61014684D01*
X157671872Y-60946666D01*
X157606450Y-60818269D01*
X157536948Y-60722607D01*
X157476882Y-60639932D01*
X157476878Y-60639927D01*
X157320998Y-60484047D01*
X157320993Y-60484043D01*
X157142660Y-60354478D01*
X157142659Y-60354477D01*
X157142657Y-60354476D01*
X157079731Y-60322413D01*
X156946241Y-60254395D01*
X156946238Y-60254394D01*
X156736587Y-60186276D01*
X156588933Y-60162890D01*
X156518857Y-60151791D01*
X156298413Y-60151791D01*
X156228333Y-60162890D01*
X156159040Y-60153935D01*
X156105588Y-60108938D01*
X156084949Y-60042187D01*
X156089471Y-60007189D01*
X156112331Y-59925014D01*
X156110275Y-59781107D01*
X156067761Y-59643608D01*
X155988229Y-59523656D01*
X155943771Y-59483433D01*
X155943768Y-59483430D01*
X154410096Y-58369154D01*
X154410087Y-58369148D01*
X154410080Y-58369143D01*
X154410073Y-58369139D01*
X154410067Y-58369135D01*
X154358090Y-58339289D01*
X154219430Y-58300717D01*
X154219426Y-58300716D01*
X154075527Y-58302772D01*
X154075526Y-58302772D01*
X153938023Y-58345287D01*
X153818073Y-58424818D01*
X153777846Y-58469279D01*
X152663570Y-60002951D01*
X152663551Y-60002980D01*
X152633705Y-60054957D01*
X152595133Y-60193617D01*
X152595132Y-60193621D01*
X152597188Y-60337520D01*
X152597188Y-60337521D01*
X152597188Y-60337524D01*
X152597189Y-60337525D01*
X152639703Y-60475024D01*
X152719235Y-60594976D01*
X152757107Y-60629240D01*
X152763695Y-60635201D01*
X154262604Y-61724220D01*
X154297384Y-61749489D01*
X154297391Y-61749493D01*
X154297396Y-61749496D01*
X154349373Y-61779342D01*
X154349377Y-61779343D01*
X154488034Y-61817915D01*
X154488036Y-61817914D01*
X154488037Y-61817915D01*
X154541999Y-61817144D01*
X154631941Y-61815859D01*
X154769440Y-61773345D01*
X154840526Y-61726212D01*
X154907275Y-61705573D01*
X154974589Y-61724297D01*
X155021094Y-61776442D01*
X155029580Y-61800445D01*
X155030745Y-61805270D01*
X155042620Y-61880242D01*
X155066923Y-61955042D01*
X155068048Y-61959697D01*
X155066574Y-61990002D01*
X155067441Y-62020335D01*
X155064883Y-62024789D01*
X155064655Y-62029484D01*
X155052025Y-62047183D01*
X155035196Y-62076493D01*
X151418684Y-65693007D01*
X151357361Y-65726492D01*
X151331003Y-65729326D01*
X144541117Y-65729326D01*
X144388390Y-65770249D01*
X144388383Y-65770252D01*
X144251464Y-65849301D01*
X144251456Y-65849307D01*
X144139655Y-65961108D01*
X144139649Y-65961116D01*
X144060600Y-66098035D01*
X144060597Y-66098042D01*
X144019674Y-66250769D01*
X144019674Y-82759729D01*
X143999989Y-82826768D01*
X143983355Y-82847410D01*
X143302355Y-83528410D01*
X143241032Y-83561895D01*
X143171340Y-83556911D01*
X143115407Y-83515039D01*
X143090990Y-83449575D01*
X143090674Y-83440729D01*
X143090674Y-57480770D01*
X143090674Y-57480768D01*
X143049751Y-57328041D01*
X143008209Y-57256087D01*
X142970698Y-57191115D01*
X142970695Y-57191111D01*
X142970694Y-57191109D01*
X142858890Y-57079305D01*
X142858889Y-57079304D01*
X142854559Y-57074974D01*
X142854548Y-57074964D01*
X140633613Y-54854029D01*
X140600128Y-54792706D01*
X140601878Y-54732945D01*
X140602568Y-54730475D01*
X140624799Y-54662058D01*
X144153788Y-54662058D01*
X144153788Y-54728816D01*
X144153788Y-54917594D01*
X144164417Y-54984700D01*
X144193763Y-55169984D01*
X144272725Y-55413009D01*
X144272726Y-55413012D01*
X144382127Y-55627721D01*
X144388738Y-55640696D01*
X144538938Y-55847428D01*
X144719629Y-56028119D01*
X144926361Y-56178319D01*
X144994954Y-56213269D01*
X145154044Y-56294330D01*
X145154047Y-56294331D01*
X145275559Y-56333812D01*
X145397074Y-56373294D01*
X145649463Y-56413269D01*
X145649464Y-56413269D01*
X145904998Y-56413269D01*
X145904999Y-56413269D01*
X146157388Y-56373294D01*
X146400417Y-56294330D01*
X146628101Y-56178319D01*
X146834833Y-56028119D01*
X147015524Y-55847428D01*
X147165724Y-55640696D01*
X147281735Y-55413012D01*
X147360699Y-55169983D01*
X147400674Y-54917594D01*
X147400674Y-54662058D01*
X147360699Y-54409669D01*
X147284496Y-54175137D01*
X147281736Y-54166642D01*
X147281735Y-54166639D01*
X147197782Y-54001873D01*
X147165724Y-53938956D01*
X147015524Y-53732224D01*
X146834833Y-53551533D01*
X146628101Y-53401333D01*
X146400417Y-53285321D01*
X146400414Y-53285320D01*
X146157389Y-53206358D01*
X146031193Y-53186370D01*
X145904999Y-53166383D01*
X145649463Y-53166383D01*
X145565333Y-53179708D01*
X145397072Y-53206358D01*
X145154047Y-53285320D01*
X145154044Y-53285321D01*
X144926360Y-53401333D01*
X144808412Y-53487027D01*
X144719629Y-53551533D01*
X144719627Y-53551535D01*
X144719626Y-53551535D01*
X144538940Y-53732221D01*
X144538940Y-53732222D01*
X144538938Y-53732224D01*
X144534048Y-53738955D01*
X144388738Y-53938955D01*
X144272726Y-54166639D01*
X144272725Y-54166642D01*
X144193763Y-54409667D01*
X144188951Y-54440048D01*
X144153788Y-54662058D01*
X140624799Y-54662058D01*
X140626190Y-54657777D01*
X140660675Y-54440048D01*
X140660675Y-54219604D01*
X140626190Y-54001875D01*
X140558070Y-53792220D01*
X140558070Y-53792219D01*
X140481989Y-53642905D01*
X140457990Y-53595804D01*
X140425827Y-53551535D01*
X140328422Y-53417467D01*
X140328418Y-53417462D01*
X140172538Y-53261582D01*
X140172533Y-53261578D01*
X139994200Y-53132013D01*
X139994199Y-53132012D01*
X139994197Y-53132011D01*
X139876966Y-53072278D01*
X139797781Y-53031930D01*
X139797778Y-53031929D01*
X139588127Y-52963811D01*
X139479261Y-52946568D01*
X139370397Y-52929326D01*
X139149953Y-52929326D01*
X139077376Y-52940821D01*
X138932222Y-52963811D01*
X138722571Y-53031929D01*
X138722568Y-53031930D01*
X138526149Y-53132013D01*
X138347816Y-53261578D01*
X138347811Y-53261582D01*
X138297638Y-53311755D01*
X138236315Y-53345239D01*
X138166623Y-53340254D01*
X138110690Y-53298383D01*
X138093776Y-53267406D01*
X138063972Y-53187497D01*
X138063968Y-53187490D01*
X137977722Y-53072281D01*
X137977719Y-53072278D01*
X137862510Y-52986032D01*
X137862503Y-52986028D01*
X137727657Y-52935734D01*
X137727658Y-52935734D01*
X137668058Y-52929327D01*
X137668056Y-52929326D01*
X137668048Y-52929326D01*
X137668039Y-52929326D01*
X135772304Y-52929326D01*
X135772298Y-52929327D01*
X135712691Y-52935734D01*
X135577846Y-52986028D01*
X135577839Y-52986032D01*
X135462630Y-53072278D01*
X135462627Y-53072281D01*
X135376381Y-53187490D01*
X135376377Y-53187497D01*
X135326083Y-53322343D01*
X135319676Y-53381942D01*
X135319675Y-53381961D01*
X135319675Y-55277696D01*
X135319676Y-55277702D01*
X135326083Y-55337309D01*
X135376377Y-55472154D01*
X135376381Y-55472161D01*
X135462627Y-55587370D01*
X135462630Y-55587373D01*
X135577839Y-55673619D01*
X135577846Y-55673623D01*
X135712692Y-55723917D01*
X135712691Y-55723917D01*
X135719619Y-55724661D01*
X135772302Y-55730326D01*
X137668047Y-55730325D01*
X137727658Y-55723917D01*
X137862506Y-55673622D01*
X137977721Y-55587372D01*
X138063971Y-55472157D01*
X138091604Y-55398069D01*
X138093776Y-55392246D01*
X138135646Y-55336312D01*
X138201111Y-55311894D01*
X138269384Y-55326745D01*
X138297639Y-55347897D01*
X138347811Y-55398069D01*
X138347816Y-55398073D01*
X138449778Y-55472152D01*
X138526153Y-55527641D01*
X138654550Y-55593063D01*
X138722568Y-55627721D01*
X138722571Y-55627722D01*
X138783228Y-55647430D01*
X138932224Y-55695841D01*
X139149953Y-55730326D01*
X139149954Y-55730326D01*
X139370396Y-55730326D01*
X139370397Y-55730326D01*
X139588126Y-55695841D01*
X139658380Y-55673013D01*
X139728219Y-55671018D01*
X139784378Y-55703264D01*
X141853355Y-57772241D01*
X141886840Y-57833564D01*
X141889674Y-57859922D01*
X141889674Y-77357187D01*
X141869989Y-77424226D01*
X141817185Y-77469981D01*
X141748027Y-77479925D01*
X141684471Y-77450900D01*
X141650965Y-77400367D01*
X141649872Y-77400820D01*
X141648009Y-77396322D01*
X141578655Y-77260209D01*
X141560789Y-77225145D01*
X141447869Y-77069724D01*
X141312026Y-76933881D01*
X141156605Y-76820961D01*
X140985430Y-76733742D01*
X140802726Y-76674379D01*
X140707852Y-76659352D01*
X140612979Y-76644326D01*
X140420869Y-76644326D01*
X140357620Y-76654343D01*
X140231121Y-76674379D01*
X140048417Y-76733742D01*
X139877242Y-76820961D01*
X139788569Y-76885386D01*
X139721822Y-76933881D01*
X139721820Y-76933883D01*
X139721819Y-76933883D01*
X139585981Y-77069721D01*
X139585981Y-77069722D01*
X139585979Y-77069724D01*
X139574696Y-77085254D01*
X139521741Y-77158140D01*
X139466411Y-77200805D01*
X139396797Y-77206784D01*
X139335002Y-77174178D01*
X139300645Y-77113339D01*
X139297423Y-77085254D01*
X139297423Y-73613825D01*
X139317108Y-73546786D01*
X139369912Y-73501031D01*
X139421423Y-73489825D01*
X139580174Y-73489825D01*
X139580174Y-72505512D01*
X139584568Y-72509906D01*
X139675780Y-72562567D01*
X139777513Y-72589826D01*
X139882835Y-72589826D01*
X139984568Y-72562567D01*
X140075780Y-72509906D01*
X140080174Y-72505512D01*
X140080174Y-73489825D01*
X140430146Y-73489825D01*
X140430160Y-73489824D01*
X140532871Y-73479331D01*
X140699293Y-73424184D01*
X140699298Y-73424182D01*
X140848519Y-73332141D01*
X140972489Y-73208171D01*
X141064530Y-73058950D01*
X141064532Y-73058945D01*
X141119679Y-72892523D01*
X141119680Y-72892516D01*
X141130173Y-72789812D01*
X141130174Y-72789799D01*
X141130174Y-72439826D01*
X140145860Y-72439826D01*
X140150254Y-72435432D01*
X140202915Y-72344220D01*
X140230174Y-72242487D01*
X140230174Y-72137165D01*
X140202915Y-72035432D01*
X140150254Y-71944220D01*
X140145860Y-71939826D01*
X141130173Y-71939826D01*
X141130173Y-71589854D01*
X141130172Y-71589839D01*
X141119679Y-71487128D01*
X141064532Y-71320706D01*
X141064530Y-71320701D01*
X140972489Y-71171480D01*
X140848519Y-71047510D01*
X140699298Y-70955469D01*
X140699293Y-70955467D01*
X140532871Y-70900320D01*
X140532864Y-70900319D01*
X140430160Y-70889826D01*
X140080174Y-70889826D01*
X140080174Y-71874140D01*
X140075780Y-71869746D01*
X139984568Y-71817085D01*
X139882835Y-71789826D01*
X139777513Y-71789826D01*
X139675780Y-71817085D01*
X139584568Y-71869746D01*
X139580174Y-71874140D01*
X139580174Y-70889826D01*
X139421423Y-70889826D01*
X139354384Y-70870141D01*
X139308629Y-70817337D01*
X139297423Y-70765826D01*
X139297423Y-66065634D01*
X139297423Y-66055635D01*
X139297424Y-66055633D01*
X139297424Y-65934821D01*
X139317109Y-65867782D01*
X139369913Y-65822027D01*
X139430377Y-65813333D01*
X139439071Y-65812084D01*
X139439073Y-65812084D01*
X139459744Y-65816892D01*
X139525632Y-65838301D01*
X139525635Y-65838301D01*
X139525640Y-65838303D01*
X139727822Y-65870326D01*
X139727823Y-65870326D01*
X139932525Y-65870326D01*
X139932526Y-65870326D01*
X140134708Y-65838303D01*
X140329393Y-65775046D01*
X140511784Y-65682113D01*
X140604764Y-65614558D01*
X140677387Y-65561797D01*
X140677389Y-65561794D01*
X140677393Y-65561792D01*
X140822140Y-65417045D01*
X140822142Y-65417041D01*
X140822145Y-65417039D01*
X140874906Y-65344416D01*
X140942461Y-65251436D01*
X141035394Y-65069045D01*
X141098651Y-64874360D01*
X141130674Y-64672178D01*
X141130674Y-64467474D01*
X141098651Y-64265292D01*
X141035394Y-64070607D01*
X141035392Y-64070604D01*
X141035392Y-64070602D01*
X140989689Y-63980906D01*
X140942461Y-63888216D01*
X140934730Y-63877575D01*
X140822145Y-63722612D01*
X140677387Y-63577854D01*
X140511787Y-63457541D01*
X140511786Y-63457540D01*
X140511784Y-63457539D01*
X140454827Y-63428517D01*
X140329397Y-63364607D01*
X140134708Y-63301348D01*
X139960169Y-63273704D01*
X139932526Y-63269326D01*
X139727822Y-63269326D01*
X139703503Y-63273177D01*
X139525639Y-63301348D01*
X139330950Y-63364607D01*
X139148560Y-63457541D01*
X138982960Y-63577854D01*
X138838202Y-63722612D01*
X138717889Y-63888212D01*
X138670659Y-63980906D01*
X138622684Y-64031702D01*
X138554863Y-64048497D01*
X138488728Y-64025960D01*
X138449689Y-63980906D01*
X138449057Y-63979666D01*
X138402461Y-63888216D01*
X138394730Y-63877575D01*
X138282145Y-63722612D01*
X138137387Y-63577854D01*
X137971787Y-63457541D01*
X137971786Y-63457540D01*
X137971784Y-63457539D01*
X137914827Y-63428517D01*
X137789397Y-63364607D01*
X137594708Y-63301348D01*
X137420169Y-63273704D01*
X137392526Y-63269326D01*
X137187822Y-63269326D01*
X137163503Y-63273177D01*
X136985639Y-63301348D01*
X136790950Y-63364607D01*
X136608560Y-63457541D01*
X136442960Y-63577854D01*
X136298202Y-63722612D01*
X136177889Y-63888212D01*
X136130659Y-63980906D01*
X136082684Y-64031702D01*
X136014863Y-64048497D01*
X135948728Y-64025960D01*
X135909689Y-63980906D01*
X135909057Y-63979666D01*
X135862461Y-63888216D01*
X135854730Y-63877575D01*
X135742145Y-63722612D01*
X135597387Y-63577854D01*
X135431787Y-63457541D01*
X135431786Y-63457540D01*
X135431784Y-63457539D01*
X135374827Y-63428517D01*
X135249397Y-63364607D01*
X135054708Y-63301348D01*
X134880169Y-63273704D01*
X134852526Y-63269326D01*
X134647822Y-63269326D01*
X134623503Y-63273177D01*
X134445639Y-63301348D01*
X134250950Y-63364607D01*
X134068560Y-63457541D01*
X133902960Y-63577854D01*
X133758202Y-63722612D01*
X133637889Y-63888212D01*
X133590659Y-63980906D01*
X133542684Y-64031702D01*
X133474863Y-64048497D01*
X133408728Y-64025960D01*
X133369689Y-63980906D01*
X133369057Y-63979666D01*
X133322461Y-63888216D01*
X133314730Y-63877575D01*
X133202145Y-63722612D01*
X133057387Y-63577854D01*
X132891787Y-63457541D01*
X132891786Y-63457540D01*
X132891784Y-63457539D01*
X132834827Y-63428517D01*
X132709397Y-63364607D01*
X132514708Y-63301348D01*
X132340169Y-63273704D01*
X132312526Y-63269326D01*
X132107822Y-63269326D01*
X132083503Y-63273177D01*
X131905639Y-63301348D01*
X131710950Y-63364607D01*
X131528560Y-63457541D01*
X131362960Y-63577854D01*
X131218202Y-63722612D01*
X131097889Y-63888212D01*
X131004955Y-64070602D01*
X130941696Y-64265291D01*
X130909674Y-64467474D01*
X130909674Y-64672177D01*
X130941696Y-64874360D01*
X131004955Y-65069049D01*
X131097889Y-65251439D01*
X131218202Y-65417039D01*
X131362960Y-65561797D01*
X131517923Y-65674382D01*
X131528564Y-65682113D01*
X131636117Y-65736914D01*
X131710950Y-65775044D01*
X131710952Y-65775044D01*
X131710955Y-65775046D01*
X131785992Y-65799427D01*
X131905639Y-65838303D01*
X131975109Y-65849306D01*
X132107822Y-65870326D01*
X132107823Y-65870326D01*
X132312525Y-65870326D01*
X132312526Y-65870326D01*
X132514708Y-65838303D01*
X132709393Y-65775046D01*
X132891784Y-65682113D01*
X132984764Y-65614558D01*
X133057387Y-65561797D01*
X133057389Y-65561794D01*
X133057393Y-65561792D01*
X133202140Y-65417045D01*
X133202142Y-65417041D01*
X133202145Y-65417039D01*
X133322458Y-65251440D01*
X133322459Y-65251439D01*
X133322461Y-65251436D01*
X133369690Y-65158743D01*
X133417663Y-65107949D01*
X133485484Y-65091154D01*
X133551619Y-65113691D01*
X133590659Y-65158745D01*
X133637889Y-65251440D01*
X133758202Y-65417039D01*
X133758208Y-65417045D01*
X133902955Y-65561792D01*
X134068564Y-65682113D01*
X134081967Y-65688942D01*
X134132763Y-65736914D01*
X134149674Y-65799427D01*
X134149674Y-69563156D01*
X134149673Y-69563174D01*
X134149673Y-69728880D01*
X134149672Y-69728880D01*
X134190597Y-69881611D01*
X134219532Y-69931726D01*
X134219533Y-69931730D01*
X134219534Y-69931730D01*
X134269653Y-70018540D01*
X134269655Y-70018543D01*
X134388523Y-70137411D01*
X134388529Y-70137416D01*
X134928758Y-70677645D01*
X134962243Y-70738968D01*
X134957259Y-70808660D01*
X134915387Y-70864593D01*
X134849923Y-70889010D01*
X134841077Y-70889326D01*
X134647822Y-70889326D01*
X134623503Y-70893177D01*
X134445639Y-70921348D01*
X134250950Y-70984607D01*
X134068560Y-71077541D01*
X133902960Y-71197854D01*
X133758202Y-71342612D01*
X133637889Y-71508212D01*
X133590659Y-71600906D01*
X133542684Y-71651702D01*
X133474863Y-71668497D01*
X133408728Y-71645960D01*
X133369689Y-71600906D01*
X133356685Y-71575384D01*
X133322461Y-71508216D01*
X133307140Y-71487128D01*
X133202145Y-71342612D01*
X133057387Y-71197854D01*
X132891787Y-71077541D01*
X132891786Y-71077540D01*
X132891784Y-71077539D01*
X132832849Y-71047510D01*
X132709397Y-70984607D01*
X132514708Y-70921348D01*
X132340169Y-70893704D01*
X132312526Y-70889326D01*
X132107822Y-70889326D01*
X132083503Y-70893177D01*
X131905639Y-70921348D01*
X131710950Y-70984607D01*
X131528560Y-71077541D01*
X131362960Y-71197854D01*
X131218202Y-71342612D01*
X131097889Y-71508212D01*
X131004955Y-71690602D01*
X130941696Y-71885291D01*
X130909674Y-72087474D01*
X130909674Y-72292177D01*
X130941696Y-72494360D01*
X131004955Y-72689049D01*
X131097889Y-72871439D01*
X131218202Y-73037039D01*
X131362960Y-73181797D01*
X131497737Y-73279716D01*
X131528564Y-73302113D01*
X131644781Y-73361329D01*
X131710950Y-73395044D01*
X131710952Y-73395044D01*
X131710955Y-73395046D01*
X131813273Y-73428291D01*
X131905639Y-73458303D01*
X131970999Y-73468655D01*
X132107822Y-73490326D01*
X132107823Y-73490326D01*
X132312525Y-73490326D01*
X132312526Y-73490326D01*
X132514708Y-73458303D01*
X132709393Y-73395046D01*
X132891784Y-73302113D01*
X132984764Y-73234558D01*
X133057387Y-73181797D01*
X133057389Y-73181794D01*
X133057393Y-73181792D01*
X133202140Y-73037045D01*
X133202142Y-73037041D01*
X133202145Y-73037039D01*
X133322458Y-72871440D01*
X133322459Y-72871439D01*
X133322461Y-72871436D01*
X133369690Y-72778743D01*
X133417663Y-72727949D01*
X133485484Y-72711154D01*
X133551619Y-72733691D01*
X133590657Y-72778743D01*
X133634522Y-72864832D01*
X133637889Y-72871440D01*
X133758202Y-73037039D01*
X133902960Y-73181797D01*
X134037737Y-73279716D01*
X134068564Y-73302113D01*
X134184781Y-73361329D01*
X134250950Y-73395044D01*
X134250952Y-73395044D01*
X134250955Y-73395046D01*
X134353273Y-73428291D01*
X134445639Y-73458303D01*
X134510999Y-73468655D01*
X134647822Y-73490326D01*
X134647823Y-73490326D01*
X134852525Y-73490326D01*
X134852526Y-73490326D01*
X135054708Y-73458303D01*
X135249393Y-73395046D01*
X135431784Y-73302113D01*
X135524764Y-73234558D01*
X135597387Y-73181797D01*
X135597389Y-73181794D01*
X135597393Y-73181792D01*
X135742140Y-73037045D01*
X135742142Y-73037041D01*
X135742145Y-73037039D01*
X135862458Y-72871440D01*
X135862459Y-72871439D01*
X135862461Y-72871436D01*
X135909690Y-72778743D01*
X135957663Y-72727949D01*
X136025484Y-72711154D01*
X136091619Y-72733691D01*
X136130657Y-72778743D01*
X136174522Y-72864832D01*
X136177889Y-72871440D01*
X136298202Y-73037039D01*
X136442960Y-73181797D01*
X136577737Y-73279716D01*
X136608564Y-73302113D01*
X136724781Y-73361329D01*
X136790950Y-73395044D01*
X136790952Y-73395044D01*
X136790955Y-73395046D01*
X136893273Y-73428291D01*
X136985639Y-73458303D01*
X137050999Y-73468655D01*
X137187822Y-73490326D01*
X137187823Y-73490326D01*
X137392525Y-73490326D01*
X137392526Y-73490326D01*
X137594708Y-73458303D01*
X137789393Y-73395046D01*
X137916128Y-73330470D01*
X137984797Y-73317575D01*
X138049538Y-73343851D01*
X138089795Y-73400957D01*
X138096423Y-73440956D01*
X138096423Y-76520326D01*
X138076738Y-76587365D01*
X138023934Y-76633120D01*
X137972423Y-76644326D01*
X137880869Y-76644326D01*
X137817620Y-76654343D01*
X137691121Y-76674379D01*
X137508417Y-76733742D01*
X137337242Y-76820961D01*
X137248569Y-76885386D01*
X137181822Y-76933881D01*
X137181820Y-76933883D01*
X137181819Y-76933883D01*
X137045981Y-77069721D01*
X137045981Y-77069722D01*
X137045979Y-77069724D01*
X137034696Y-77085254D01*
X136933059Y-77225144D01*
X136845840Y-77396319D01*
X136824855Y-77460907D01*
X136785418Y-77518582D01*
X136721059Y-77545781D01*
X136652213Y-77533867D01*
X136600737Y-77486623D01*
X136588993Y-77460907D01*
X136568007Y-77396319D01*
X136498655Y-77260209D01*
X136480789Y-77225145D01*
X136367869Y-77069724D01*
X136232026Y-76933881D01*
X136076605Y-76820961D01*
X135905430Y-76733742D01*
X135722726Y-76674379D01*
X135627852Y-76659352D01*
X135532979Y-76644326D01*
X135340869Y-76644326D01*
X135277620Y-76654343D01*
X135151121Y-76674379D01*
X134968417Y-76733742D01*
X134797242Y-76820961D01*
X134708569Y-76885386D01*
X134641822Y-76933881D01*
X134641820Y-76933883D01*
X134641819Y-76933883D01*
X134505981Y-77069721D01*
X134505981Y-77069722D01*
X134505979Y-77069724D01*
X134494696Y-77085254D01*
X134393059Y-77225144D01*
X134305840Y-77396319D01*
X134246477Y-77579023D01*
X134245495Y-77585222D01*
X134216424Y-77768771D01*
X134216424Y-77960881D01*
X134231450Y-78055754D01*
X134246477Y-78150628D01*
X134305840Y-78333332D01*
X134393059Y-78504507D01*
X134505979Y-78659928D01*
X134641822Y-78795771D01*
X134797243Y-78908691D01*
X134968415Y-78995908D01*
X134968417Y-78995909D01*
X135017384Y-79011819D01*
X135151123Y-79055273D01*
X135340869Y-79085326D01*
X135340870Y-79085326D01*
X135532978Y-79085326D01*
X135532979Y-79085326D01*
X135722725Y-79055273D01*
X135905433Y-78995908D01*
X136076605Y-78908691D01*
X136232026Y-78795771D01*
X136367869Y-78659928D01*
X136480789Y-78504507D01*
X136568006Y-78333335D01*
X136568008Y-78333329D01*
X136588993Y-78268745D01*
X136628430Y-78211069D01*
X136692788Y-78183870D01*
X136761635Y-78195784D01*
X136813111Y-78243028D01*
X136824855Y-78268745D01*
X136845839Y-78333330D01*
X136873372Y-78387365D01*
X136933059Y-78504507D01*
X137045979Y-78659928D01*
X137181822Y-78795771D01*
X137337243Y-78908691D01*
X137508415Y-78995908D01*
X137508417Y-78995909D01*
X137557384Y-79011819D01*
X137691123Y-79055273D01*
X137880869Y-79085326D01*
X137880870Y-79085326D01*
X138072978Y-79085326D01*
X138072979Y-79085326D01*
X138262725Y-79055273D01*
X138445433Y-78995908D01*
X138616605Y-78908691D01*
X138772026Y-78795771D01*
X138907869Y-78659928D01*
X139020789Y-78504507D01*
X139108006Y-78333335D01*
X139108008Y-78333329D01*
X139128993Y-78268745D01*
X139168430Y-78211069D01*
X139232788Y-78183870D01*
X139301635Y-78195784D01*
X139353111Y-78243028D01*
X139364855Y-78268745D01*
X139385839Y-78333330D01*
X139413372Y-78387365D01*
X139473059Y-78504507D01*
X139585979Y-78659928D01*
X139721822Y-78795771D01*
X139877243Y-78908691D01*
X140048415Y-78995908D01*
X140048417Y-78995909D01*
X140097384Y-79011819D01*
X140231123Y-79055273D01*
X140420869Y-79085326D01*
X140420870Y-79085326D01*
X140612978Y-79085326D01*
X140612979Y-79085326D01*
X140802725Y-79055273D01*
X140985433Y-78995908D01*
X141156605Y-78908691D01*
X141312026Y-78795771D01*
X141447869Y-78659928D01*
X141560789Y-78504507D01*
X141648006Y-78333335D01*
X141648008Y-78333330D01*
X141648009Y-78333329D01*
X141649872Y-78328832D01*
X141651045Y-78329318D01*
X141687177Y-78276474D01*
X141751534Y-78249273D01*
X141820381Y-78261184D01*
X141871859Y-78308426D01*
X141889674Y-78372464D01*
X141889674Y-84099728D01*
X141869989Y-84166767D01*
X141853355Y-84187409D01*
X138174508Y-87866257D01*
X138113185Y-87899742D01*
X138086827Y-87902576D01*
X137248593Y-87902576D01*
X137248577Y-87902575D01*
X137240981Y-87902575D01*
X137082867Y-87902575D01*
X136975511Y-87931341D01*
X136930134Y-87943500D01*
X136930133Y-87943501D01*
X136880020Y-87972435D01*
X136880019Y-87972436D01*
X136836613Y-87997496D01*
X136793209Y-88022555D01*
X136793206Y-88022557D01*
X136681402Y-88134362D01*
X131925016Y-92890747D01*
X131863693Y-92924232D01*
X131799022Y-92920999D01*
X131784708Y-92916348D01*
X131610169Y-92888704D01*
X131582526Y-92884326D01*
X131377822Y-92884326D01*
X131353503Y-92888177D01*
X131175639Y-92916348D01*
X130980950Y-92979607D01*
X130798560Y-93072541D01*
X130632960Y-93192854D01*
X130488202Y-93337612D01*
X130367889Y-93503212D01*
X130320659Y-93595906D01*
X130272684Y-93646702D01*
X130204863Y-93663497D01*
X130138728Y-93640960D01*
X130099689Y-93595906D01*
X130052593Y-93503476D01*
X130052461Y-93503216D01*
X130020266Y-93458903D01*
X129932145Y-93337612D01*
X129787387Y-93192854D01*
X129621787Y-93072541D01*
X129621786Y-93072540D01*
X129621784Y-93072539D01*
X129562072Y-93042114D01*
X129439397Y-92979607D01*
X129244708Y-92916348D01*
X129070169Y-92888704D01*
X129042526Y-92884326D01*
X128837822Y-92884326D01*
X128797282Y-92890747D01*
X128635638Y-92916349D01*
X128635631Y-92916350D01*
X128602991Y-92926956D01*
X128533150Y-92928951D01*
X128473317Y-92892870D01*
X128442490Y-92830169D01*
X128440674Y-92809025D01*
X128440674Y-88330421D01*
X130450232Y-88330421D01*
X130450232Y-88488114D01*
X130480993Y-88642757D01*
X130480996Y-88642769D01*
X130541334Y-88788440D01*
X130541341Y-88788453D01*
X130628942Y-88919556D01*
X130628945Y-88919560D01*
X130740439Y-89031054D01*
X130740443Y-89031057D01*
X130871546Y-89118658D01*
X130871559Y-89118665D01*
X131017230Y-89179003D01*
X131017235Y-89179005D01*
X131171885Y-89209767D01*
X131171888Y-89209768D01*
X131171890Y-89209768D01*
X131329576Y-89209768D01*
X131329577Y-89209767D01*
X131484229Y-89179005D01*
X131629911Y-89118662D01*
X131761021Y-89031057D01*
X131872521Y-88919557D01*
X131960126Y-88788447D01*
X132020469Y-88642765D01*
X132051232Y-88488110D01*
X132051232Y-88330426D01*
X132051232Y-88330423D01*
X132051231Y-88330421D01*
X132020469Y-88175771D01*
X132003316Y-88134360D01*
X131960129Y-88030095D01*
X131960122Y-88030082D01*
X131872521Y-87898979D01*
X131872518Y-87898975D01*
X131761024Y-87787481D01*
X131761020Y-87787478D01*
X131629917Y-87699877D01*
X131629904Y-87699870D01*
X131484233Y-87639532D01*
X131484221Y-87639529D01*
X131329577Y-87608768D01*
X131329574Y-87608768D01*
X131171890Y-87608768D01*
X131171887Y-87608768D01*
X131017242Y-87639529D01*
X131017230Y-87639532D01*
X130871559Y-87699870D01*
X130871546Y-87699877D01*
X130740443Y-87787478D01*
X130740439Y-87787481D01*
X130628945Y-87898975D01*
X130628942Y-87898979D01*
X130541341Y-88030082D01*
X130541334Y-88030095D01*
X130480996Y-88175766D01*
X130480993Y-88175778D01*
X130450232Y-88330421D01*
X128440674Y-88330421D01*
X128440674Y-80816672D01*
X128460359Y-80749633D01*
X128476988Y-80728996D01*
X131012082Y-78193901D01*
X131073403Y-78160418D01*
X131138075Y-78163651D01*
X131152390Y-78168303D01*
X131354572Y-78200326D01*
X131354573Y-78200326D01*
X131559275Y-78200326D01*
X131559276Y-78200326D01*
X131761458Y-78168303D01*
X131956143Y-78105046D01*
X132138534Y-78012113D01*
X132231514Y-77944558D01*
X132304137Y-77891797D01*
X132304139Y-77891794D01*
X132304143Y-77891792D01*
X132448890Y-77747045D01*
X132448892Y-77747041D01*
X132448895Y-77747039D01*
X132519033Y-77650500D01*
X132569211Y-77581436D01*
X132662144Y-77399045D01*
X132725401Y-77204360D01*
X132757424Y-77002178D01*
X132757424Y-76797474D01*
X132737927Y-76674379D01*
X132725401Y-76595291D01*
X132677636Y-76448286D01*
X132662144Y-76400607D01*
X132662142Y-76400604D01*
X132662142Y-76400602D01*
X132582843Y-76244971D01*
X132569211Y-76218216D01*
X132553794Y-76196996D01*
X132448895Y-76052612D01*
X132304137Y-75907854D01*
X132138537Y-75787541D01*
X132138536Y-75787540D01*
X132138534Y-75787539D01*
X132081577Y-75758517D01*
X131956147Y-75694607D01*
X131761458Y-75631348D01*
X131586919Y-75603704D01*
X131559276Y-75599326D01*
X131354572Y-75599326D01*
X131330253Y-75603177D01*
X131152389Y-75631348D01*
X130957700Y-75694607D01*
X130775310Y-75787541D01*
X130609710Y-75907854D01*
X130464952Y-76052612D01*
X130344639Y-76218212D01*
X130251705Y-76400602D01*
X130188446Y-76595291D01*
X130156424Y-76797474D01*
X130156424Y-77002177D01*
X130188446Y-77204360D01*
X130193097Y-77218674D01*
X130195089Y-77288516D01*
X130162845Y-77344668D01*
X127471460Y-80036054D01*
X127359655Y-80147858D01*
X127359653Y-80147861D01*
X127309535Y-80234670D01*
X127309533Y-80234672D01*
X127280599Y-80284785D01*
X127280598Y-80284786D01*
X127280597Y-80284791D01*
X127239673Y-80437519D01*
X127239673Y-80437521D01*
X127239673Y-80605622D01*
X127239674Y-80605635D01*
X127239674Y-92771479D01*
X127219989Y-92838518D01*
X127167185Y-92884273D01*
X127103072Y-92894837D01*
X127000185Y-92884326D01*
X125800172Y-92884326D01*
X125800155Y-92884327D01*
X125697377Y-92894826D01*
X125697374Y-92894827D01*
X125530842Y-92950011D01*
X125530837Y-92950013D01*
X125381516Y-93042115D01*
X125257463Y-93166168D01*
X125165361Y-93315489D01*
X125165360Y-93315492D01*
X125110175Y-93482029D01*
X125110175Y-93482030D01*
X125110174Y-93482030D01*
X125099674Y-93584809D01*
X125099674Y-94784827D01*
X125099675Y-94784844D01*
X125110174Y-94887622D01*
X125110175Y-94887625D01*
X125130106Y-94947771D01*
X125165360Y-95054160D01*
X125257462Y-95203482D01*
X125381518Y-95327538D01*
X125530840Y-95419640D01*
X125697377Y-95474825D01*
X125800165Y-95485326D01*
X126136077Y-95485325D01*
X126203115Y-95505009D01*
X126248870Y-95557813D01*
X126258814Y-95626972D01*
X126229789Y-95690527D01*
X126223757Y-95697006D01*
X124270513Y-97650251D01*
X124209190Y-97683736D01*
X124207024Y-97684187D01*
X124051682Y-97715087D01*
X124051672Y-97715090D01*
X123906001Y-97775428D01*
X123905988Y-97775435D01*
X123774885Y-97863036D01*
X123774881Y-97863039D01*
X123663387Y-97974533D01*
X123663384Y-97974537D01*
X123575783Y-98105640D01*
X123575776Y-98105653D01*
X123515438Y-98251324D01*
X123515435Y-98251336D01*
X123484674Y-98405979D01*
X123484674Y-98563672D01*
X123515435Y-98718315D01*
X123515438Y-98718327D01*
X123575776Y-98863998D01*
X123575783Y-98864011D01*
X123663384Y-98995114D01*
X123663387Y-98995118D01*
X123774881Y-99106612D01*
X123774885Y-99106615D01*
X123894035Y-99186229D01*
X123938840Y-99239841D01*
X123947547Y-99309166D01*
X123917393Y-99372194D01*
X123912825Y-99377012D01*
X117555916Y-105733921D01*
X117494593Y-105767406D01*
X117429917Y-105764171D01*
X117405298Y-105756172D01*
X117359666Y-105741345D01*
X117196057Y-105715432D01*
X117141936Y-105706860D01*
X116921492Y-105706860D01*
X116867371Y-105715432D01*
X116703761Y-105741345D01*
X116494110Y-105809463D01*
X116494107Y-105809464D01*
X116297688Y-105909547D01*
X116119355Y-106039112D01*
X116119350Y-106039116D01*
X115963470Y-106194996D01*
X115963466Y-106195001D01*
X115833901Y-106373334D01*
X115733818Y-106569753D01*
X115733817Y-106569756D01*
X115665699Y-106779407D01*
X115631214Y-106997138D01*
X110718215Y-106997138D01*
X110414669Y-106651011D01*
X110412076Y-106647954D01*
X109857453Y-105972143D01*
X109698442Y-105778387D01*
X109695919Y-105775208D01*
X109011131Y-104882776D01*
X109008714Y-104879517D01*
X108353496Y-103965161D01*
X108351187Y-103961825D01*
X107778893Y-103105326D01*
X107726222Y-103026499D01*
X107724029Y-103023097D01*
X107720006Y-103016627D01*
X107130011Y-102067837D01*
X107127933Y-102064371D01*
X106565471Y-101090159D01*
X106563528Y-101086662D01*
X106033253Y-100094586D01*
X106031399Y-100090977D01*
X105533874Y-99082096D01*
X105532139Y-99078428D01*
X105368979Y-98718327D01*
X105067881Y-98053790D01*
X105066277Y-98050089D01*
X104635793Y-97010809D01*
X104634304Y-97007041D01*
X104578334Y-96858333D01*
X104322609Y-96178884D01*
X104238066Y-95954259D01*
X104236699Y-95950439D01*
X104221545Y-95905797D01*
X103875108Y-94885228D01*
X103873893Y-94881445D01*
X103547326Y-93804898D01*
X103546238Y-93801088D01*
X103271580Y-92776053D01*
X103255082Y-92714481D01*
X103254096Y-92710545D01*
X103249332Y-92690114D01*
X102998645Y-91614976D01*
X102997812Y-91611113D01*
X102891059Y-91074429D01*
X106003076Y-91074429D01*
X106003076Y-91294872D01*
X106037561Y-91512603D01*
X106105679Y-91722254D01*
X106105680Y-91722257D01*
X106205763Y-91918676D01*
X106335328Y-92097009D01*
X106335332Y-92097014D01*
X106491212Y-92252894D01*
X106491217Y-92252898D01*
X106646768Y-92365911D01*
X106669554Y-92382466D01*
X106724636Y-92410532D01*
X106732773Y-92414678D01*
X106783569Y-92462653D01*
X106800364Y-92530474D01*
X106777826Y-92596609D01*
X106753593Y-92622268D01*
X106686800Y-92675310D01*
X106603879Y-92792939D01*
X106603876Y-92792945D01*
X106557454Y-92929162D01*
X106557453Y-92929168D01*
X106557453Y-92929169D01*
X106551290Y-93072960D01*
X106551292Y-93072969D01*
X106563615Y-93131632D01*
X106563615Y-93131633D01*
X107149432Y-94934588D01*
X107149434Y-94934593D01*
X107173949Y-94989306D01*
X107263454Y-95102013D01*
X107381083Y-95184934D01*
X107381089Y-95184937D01*
X107517306Y-95231359D01*
X107517307Y-95231359D01*
X107517313Y-95231361D01*
X107661104Y-95237524D01*
X107719777Y-95225199D01*
X109522737Y-94639380D01*
X109577450Y-94614865D01*
X109690156Y-94525361D01*
X109773079Y-94407729D01*
X109819505Y-94271501D01*
X109825668Y-94127710D01*
X109813343Y-94069037D01*
X109227524Y-92266077D01*
X109203009Y-92211364D01*
X109113505Y-92098658D01*
X109113504Y-92098657D01*
X109113503Y-92098656D01*
X108995874Y-92015735D01*
X108995868Y-92015732D01*
X108859651Y-91969310D01*
X108859646Y-91969309D01*
X108859645Y-91969309D01*
X108843681Y-91968624D01*
X108774433Y-91965656D01*
X108708298Y-91943118D01*
X108664847Y-91888403D01*
X108657875Y-91818882D01*
X108669260Y-91785474D01*
X108701469Y-91722261D01*
X108701472Y-91722254D01*
X108737598Y-91611067D01*
X108769591Y-91512602D01*
X108804076Y-91294873D01*
X108804076Y-91074429D01*
X108769591Y-90856700D01*
X108735531Y-90751872D01*
X108701472Y-90647047D01*
X108701471Y-90647044D01*
X108666813Y-90579026D01*
X108601391Y-90450629D01*
X108584836Y-90427843D01*
X108471823Y-90272292D01*
X108471819Y-90272287D01*
X108315939Y-90116407D01*
X108315934Y-90116403D01*
X108137601Y-89986838D01*
X108137600Y-89986837D01*
X108137598Y-89986836D01*
X108074672Y-89954773D01*
X107941182Y-89886755D01*
X107941179Y-89886754D01*
X107731528Y-89818636D01*
X107622662Y-89801393D01*
X107513798Y-89784151D01*
X107293354Y-89784151D01*
X107220777Y-89795646D01*
X107075623Y-89818636D01*
X106865972Y-89886754D01*
X106865969Y-89886755D01*
X106669550Y-89986838D01*
X106491217Y-90116403D01*
X106491212Y-90116407D01*
X106335332Y-90272287D01*
X106335328Y-90272292D01*
X106205763Y-90450625D01*
X106105680Y-90647044D01*
X106105679Y-90647047D01*
X106037561Y-90856698D01*
X106003076Y-91074429D01*
X102891059Y-91074429D01*
X102778350Y-90507805D01*
X102777628Y-90503838D01*
X102768843Y-90450629D01*
X102594380Y-89393923D01*
X102593789Y-89389932D01*
X102575109Y-89248042D01*
X102446958Y-88274642D01*
X102446505Y-88270710D01*
X102336243Y-87151192D01*
X102335913Y-87147151D01*
X102262340Y-86024658D01*
X102262140Y-86020605D01*
X102259839Y-85950326D01*
X102225335Y-84896314D01*
X102225269Y-84892257D01*
X102225269Y-83767394D01*
X102225335Y-83763337D01*
X102226096Y-83740091D01*
X102262141Y-82639015D01*
X102262340Y-82634993D01*
X102335913Y-81512500D01*
X102336244Y-81508456D01*
X102404378Y-80816672D01*
X102446506Y-80388934D01*
X102446957Y-80385016D01*
X102593793Y-79269686D01*
X102594379Y-79265737D01*
X102777634Y-78155777D01*
X102778348Y-78151857D01*
X102997814Y-77048525D01*
X102998642Y-77044688D01*
X103254100Y-75949087D01*
X103255082Y-75945170D01*
X103312608Y-75730482D01*
X103351137Y-75586688D01*
X106551290Y-75586688D01*
X106551290Y-75586693D01*
X106552059Y-75604641D01*
X106555333Y-75681030D01*
X106557453Y-75730479D01*
X106557454Y-75730488D01*
X106603876Y-75866705D01*
X106603879Y-75866711D01*
X106686800Y-75984340D01*
X106686801Y-75984341D01*
X106686802Y-75984342D01*
X106799508Y-76073846D01*
X106854220Y-76098362D01*
X106854222Y-76098362D01*
X106854223Y-76098363D01*
X106854225Y-76098364D01*
X108359220Y-76587365D01*
X108657181Y-76684178D01*
X108715854Y-76696505D01*
X108859645Y-76690342D01*
X108877738Y-76684176D01*
X108995868Y-76643918D01*
X108995869Y-76643917D01*
X108995873Y-76643916D01*
X109113505Y-76560993D01*
X109203009Y-76448287D01*
X109227525Y-76393575D01*
X109813341Y-74590614D01*
X109813343Y-74590604D01*
X109814030Y-74588490D01*
X109853467Y-74530815D01*
X109917826Y-74503616D01*
X109986672Y-74515531D01*
X110019642Y-74539127D01*
X122433355Y-86952840D01*
X122466840Y-87014163D01*
X122469674Y-87040521D01*
X122469674Y-94840060D01*
X122449989Y-94907099D01*
X122448776Y-94908951D01*
X122360783Y-95040640D01*
X122360776Y-95040653D01*
X122300438Y-95186324D01*
X122300435Y-95186336D01*
X122269674Y-95340979D01*
X122269674Y-95498672D01*
X122300435Y-95653315D01*
X122300438Y-95653327D01*
X122360776Y-95798998D01*
X122360783Y-95799011D01*
X122448384Y-95930114D01*
X122448387Y-95930118D01*
X122559881Y-96041612D01*
X122559885Y-96041615D01*
X122690988Y-96129216D01*
X122691001Y-96129223D01*
X122810888Y-96178881D01*
X122836677Y-96189563D01*
X122988693Y-96219801D01*
X122991327Y-96220325D01*
X122991330Y-96220326D01*
X122991332Y-96220326D01*
X123149018Y-96220326D01*
X123149019Y-96220325D01*
X123303671Y-96189563D01*
X123449353Y-96129220D01*
X123580463Y-96041615D01*
X123691963Y-95930115D01*
X123779568Y-95799005D01*
X123839911Y-95653323D01*
X123870674Y-95498668D01*
X123870674Y-95340984D01*
X123870674Y-95340981D01*
X123870673Y-95340979D01*
X123858898Y-95281783D01*
X123839911Y-95186329D01*
X123805666Y-95103654D01*
X123779571Y-95040653D01*
X123779564Y-95040640D01*
X123691572Y-94908951D01*
X123670694Y-94842273D01*
X123670674Y-94840060D01*
X123670674Y-86661369D01*
X123670674Y-86661367D01*
X123629751Y-86508640D01*
X123629747Y-86508633D01*
X123550698Y-86371714D01*
X123550695Y-86371710D01*
X123550694Y-86371708D01*
X123438890Y-86259904D01*
X123438889Y-86259903D01*
X123434559Y-86255573D01*
X123434548Y-86255563D01*
X113976459Y-76797474D01*
X119996424Y-76797474D01*
X119996424Y-77002177D01*
X120028446Y-77204360D01*
X120091705Y-77399049D01*
X120132914Y-77479925D01*
X120178745Y-77569873D01*
X120184639Y-77581439D01*
X120304952Y-77747039D01*
X120449710Y-77891797D01*
X120604673Y-78004382D01*
X120615314Y-78012113D01*
X120731531Y-78071329D01*
X120797700Y-78105044D01*
X120797702Y-78105044D01*
X120797705Y-78105046D01*
X120902061Y-78138953D01*
X120992389Y-78168303D01*
X121090675Y-78183870D01*
X121194572Y-78200326D01*
X121194573Y-78200326D01*
X121399275Y-78200326D01*
X121399276Y-78200326D01*
X121601458Y-78168303D01*
X121796143Y-78105046D01*
X121978534Y-78012113D01*
X122071514Y-77944558D01*
X122144137Y-77891797D01*
X122144139Y-77891794D01*
X122144143Y-77891792D01*
X122288890Y-77747045D01*
X122288892Y-77747041D01*
X122288895Y-77747039D01*
X122359033Y-77650500D01*
X122409211Y-77581436D01*
X122502144Y-77399045D01*
X122565401Y-77204360D01*
X122597424Y-77002178D01*
X122597424Y-76797474D01*
X122577927Y-76674379D01*
X122565401Y-76595291D01*
X122517636Y-76448286D01*
X122502144Y-76400607D01*
X122502142Y-76400604D01*
X122502142Y-76400602D01*
X122422843Y-76244971D01*
X122409211Y-76218216D01*
X122393794Y-76196996D01*
X122288895Y-76052612D01*
X122144137Y-75907854D01*
X121978537Y-75787541D01*
X121978536Y-75787540D01*
X121978534Y-75787539D01*
X121921577Y-75758517D01*
X121796147Y-75694607D01*
X121601458Y-75631348D01*
X121426919Y-75603704D01*
X121399276Y-75599326D01*
X121194572Y-75599326D01*
X121170253Y-75603177D01*
X120992389Y-75631348D01*
X120797700Y-75694607D01*
X120615310Y-75787541D01*
X120449710Y-75907854D01*
X120304952Y-76052612D01*
X120184639Y-76218212D01*
X120091705Y-76400602D01*
X120028446Y-76595291D01*
X119996424Y-76797474D01*
X113976459Y-76797474D01*
X110346820Y-73167835D01*
X110313335Y-73106512D01*
X110316569Y-73041837D01*
X110339397Y-72971583D01*
X110373882Y-72753854D01*
X110373882Y-72533410D01*
X110339397Y-72315681D01*
X110271277Y-72106026D01*
X110271277Y-72106025D01*
X110196921Y-71960096D01*
X110171197Y-71909610D01*
X110090627Y-71798714D01*
X110041629Y-71731273D01*
X110041625Y-71731268D01*
X109885745Y-71575388D01*
X109885740Y-71575384D01*
X109707407Y-71445819D01*
X109707406Y-71445818D01*
X109707404Y-71445817D01*
X109644478Y-71413754D01*
X109510988Y-71345736D01*
X109510985Y-71345735D01*
X109301334Y-71277617D01*
X109192468Y-71260374D01*
X109083604Y-71243132D01*
X108863160Y-71243132D01*
X108790583Y-71254627D01*
X108645429Y-71277617D01*
X108435778Y-71345735D01*
X108435775Y-71345736D01*
X108239356Y-71445819D01*
X108061023Y-71575384D01*
X108061018Y-71575388D01*
X107905138Y-71731268D01*
X107905134Y-71731273D01*
X107775569Y-71909606D01*
X107675486Y-72106025D01*
X107675485Y-72106028D01*
X107607367Y-72315679D01*
X107572882Y-72533410D01*
X107572882Y-72753853D01*
X107607367Y-72971584D01*
X107675485Y-73181235D01*
X107675489Y-73181244D01*
X107707698Y-73244458D01*
X107720594Y-73313127D01*
X107694317Y-73377867D01*
X107637210Y-73418124D01*
X107602524Y-73424637D01*
X107517313Y-73428290D01*
X107517312Y-73428290D01*
X107517306Y-73428291D01*
X107381089Y-73474713D01*
X107381083Y-73474716D01*
X107263454Y-73557637D01*
X107173949Y-73670345D01*
X107149431Y-73725060D01*
X107149430Y-73725062D01*
X106563618Y-75528012D01*
X106563617Y-75528018D01*
X106551290Y-75586688D01*
X103351137Y-75586688D01*
X103546242Y-74858547D01*
X103547321Y-74854769D01*
X103873898Y-73778188D01*
X103875102Y-73774441D01*
X104236709Y-72709182D01*
X104238066Y-72705392D01*
X104281562Y-72589826D01*
X104634314Y-71652583D01*
X104635784Y-71648862D01*
X105066292Y-70609527D01*
X105067871Y-70605883D01*
X105532150Y-69581198D01*
X105533874Y-69577555D01*
X105537221Y-69570769D01*
X106031409Y-68568652D01*
X106033253Y-68565065D01*
X106126653Y-68390326D01*
X106563542Y-67572963D01*
X106565456Y-67569518D01*
X107127957Y-66595239D01*
X107129994Y-66591840D01*
X107193441Y-66489809D01*
X124959674Y-66489809D01*
X124959674Y-67689827D01*
X124959675Y-67689844D01*
X124970174Y-67792622D01*
X124970175Y-67792625D01*
X125025359Y-67959157D01*
X125025360Y-67959160D01*
X125116750Y-68107328D01*
X125117463Y-68108483D01*
X125186684Y-68177704D01*
X125220169Y-68239027D01*
X125215185Y-68308719D01*
X125199322Y-68338270D01*
X125148313Y-68408477D01*
X125055418Y-68590794D01*
X124992183Y-68785408D01*
X124960174Y-68987508D01*
X124960174Y-69192143D01*
X124992183Y-69394243D01*
X125055418Y-69588857D01*
X125148315Y-69771176D01*
X125148321Y-69771185D01*
X125180697Y-69815747D01*
X125180698Y-69815748D01*
X125860174Y-69136272D01*
X125860174Y-69142487D01*
X125887433Y-69244220D01*
X125940094Y-69335432D01*
X126014568Y-69409906D01*
X126105780Y-69462567D01*
X126207513Y-69489826D01*
X126213727Y-69489826D01*
X125534250Y-70169300D01*
X125578824Y-70201685D01*
X125761142Y-70294581D01*
X125955756Y-70357816D01*
X126157857Y-70389826D01*
X126362491Y-70389826D01*
X126564591Y-70357816D01*
X126759205Y-70294581D01*
X126941523Y-70201685D01*
X126986095Y-70169300D01*
X126306621Y-69489826D01*
X126312835Y-69489826D01*
X126414568Y-69462567D01*
X126505780Y-69409906D01*
X126580254Y-69335432D01*
X126632915Y-69244220D01*
X126660174Y-69142487D01*
X126660174Y-69136273D01*
X127339648Y-69815747D01*
X127372033Y-69771175D01*
X127464929Y-69588857D01*
X127528164Y-69394243D01*
X127560174Y-69192143D01*
X127560174Y-68987508D01*
X127528164Y-68785408D01*
X127464929Y-68590794D01*
X127372031Y-68408472D01*
X127321027Y-68338272D01*
X127297546Y-68272466D01*
X127313371Y-68204412D01*
X127333663Y-68177705D01*
X127333664Y-68177704D01*
X127402886Y-68108482D01*
X127494988Y-67959160D01*
X127550173Y-67792623D01*
X127560674Y-67689835D01*
X127560673Y-66489818D01*
X127550173Y-66387029D01*
X127494988Y-66220492D01*
X127402886Y-66071170D01*
X127278830Y-65947114D01*
X127129508Y-65855012D01*
X126962971Y-65799827D01*
X126962969Y-65799826D01*
X126860184Y-65789326D01*
X125660172Y-65789326D01*
X125660155Y-65789327D01*
X125557377Y-65799826D01*
X125557374Y-65799827D01*
X125390842Y-65855011D01*
X125390837Y-65855013D01*
X125241516Y-65947115D01*
X125117463Y-66071168D01*
X125025361Y-66220489D01*
X125025360Y-66220492D01*
X124970175Y-66387029D01*
X124970175Y-66387030D01*
X124970174Y-66387030D01*
X124959674Y-66489809D01*
X107193441Y-66489809D01*
X107724052Y-65636517D01*
X107726203Y-65633180D01*
X108351209Y-64697793D01*
X108353473Y-64694522D01*
X109008732Y-63780108D01*
X109011112Y-63776899D01*
X109695937Y-62884420D01*
X109698423Y-62881287D01*
X110412101Y-62011667D01*
X110414643Y-62008670D01*
X111156429Y-61162826D01*
X111159034Y-61159952D01*
X111928087Y-60338842D01*
X111930888Y-60335950D01*
X112157900Y-60108938D01*
X112341828Y-59925010D01*
X117328017Y-59925010D01*
X117328018Y-59925014D01*
X117366590Y-60063671D01*
X117396439Y-60115659D01*
X117396448Y-60115672D01*
X118510729Y-61649346D01*
X118510741Y-61649360D01*
X118531383Y-61672177D01*
X118550957Y-61693813D01*
X118670909Y-61773345D01*
X118808408Y-61815859D01*
X118870082Y-61816740D01*
X118952311Y-61817915D01*
X118952311Y-61817914D01*
X118952315Y-61817915D01*
X119090972Y-61779343D01*
X119142965Y-61749490D01*
X119429540Y-61541281D01*
X119531127Y-61467474D01*
X132549674Y-61467474D01*
X132549674Y-61672177D01*
X132581696Y-61874360D01*
X132644955Y-62069049D01*
X132708865Y-62194479D01*
X132737759Y-62251185D01*
X132737889Y-62251439D01*
X132858202Y-62417039D01*
X133002960Y-62561797D01*
X133123400Y-62649300D01*
X133168564Y-62682113D01*
X133284781Y-62741329D01*
X133350950Y-62775044D01*
X133350952Y-62775044D01*
X133350955Y-62775046D01*
X133455311Y-62808953D01*
X133545639Y-62838303D01*
X133620665Y-62850186D01*
X133747822Y-62870326D01*
X133747823Y-62870326D01*
X133952525Y-62870326D01*
X133952526Y-62870326D01*
X134154708Y-62838303D01*
X134349393Y-62775046D01*
X134531784Y-62682113D01*
X134624764Y-62614558D01*
X134697387Y-62561797D01*
X134697389Y-62561794D01*
X134697393Y-62561792D01*
X134842140Y-62417045D01*
X134842142Y-62417041D01*
X134842145Y-62417039D01*
X134894906Y-62344416D01*
X134962461Y-62251436D01*
X135055394Y-62069045D01*
X135118651Y-61874360D01*
X135150674Y-61672178D01*
X135150674Y-61467508D01*
X137550174Y-61467508D01*
X137550174Y-61672143D01*
X137582183Y-61874243D01*
X137645418Y-62068857D01*
X137738315Y-62251176D01*
X137738321Y-62251185D01*
X137770697Y-62295747D01*
X137770698Y-62295748D01*
X138450174Y-61616272D01*
X138450174Y-61622487D01*
X138477433Y-61724220D01*
X138530094Y-61815432D01*
X138604568Y-61889906D01*
X138695780Y-61942567D01*
X138797513Y-61969826D01*
X138803727Y-61969826D01*
X138124250Y-62649300D01*
X138168824Y-62681685D01*
X138351142Y-62774581D01*
X138545756Y-62837816D01*
X138747857Y-62869826D01*
X138952491Y-62869826D01*
X139154591Y-62837816D01*
X139349205Y-62774581D01*
X139531523Y-62681685D01*
X139576095Y-62649300D01*
X138896621Y-61969826D01*
X138902835Y-61969826D01*
X139004568Y-61942567D01*
X139095780Y-61889906D01*
X139170254Y-61815432D01*
X139222915Y-61724220D01*
X139250174Y-61622487D01*
X139250174Y-61616273D01*
X139929648Y-62295747D01*
X139962033Y-62251175D01*
X140054929Y-62068857D01*
X140118164Y-61874243D01*
X140150174Y-61672143D01*
X140150174Y-61467508D01*
X140118164Y-61265408D01*
X140054929Y-61070794D01*
X139962033Y-60888476D01*
X139929648Y-60843903D01*
X139929648Y-60843902D01*
X139250174Y-61523377D01*
X139250174Y-61517165D01*
X139222915Y-61415432D01*
X139170254Y-61324220D01*
X139095780Y-61249746D01*
X139004568Y-61197085D01*
X138902835Y-61169826D01*
X138896620Y-61169826D01*
X139576096Y-60490350D01*
X139576095Y-60490349D01*
X139531533Y-60457973D01*
X139531524Y-60457967D01*
X139349205Y-60365070D01*
X139154591Y-60301835D01*
X138952491Y-60269826D01*
X138747857Y-60269826D01*
X138545756Y-60301835D01*
X138351142Y-60365070D01*
X138168818Y-60457969D01*
X138124251Y-60490349D01*
X138124251Y-60490350D01*
X138803728Y-61169826D01*
X138797513Y-61169826D01*
X138695780Y-61197085D01*
X138604568Y-61249746D01*
X138530094Y-61324220D01*
X138477433Y-61415432D01*
X138450174Y-61517165D01*
X138450174Y-61523379D01*
X137770698Y-60843903D01*
X137770697Y-60843903D01*
X137738317Y-60888470D01*
X137645418Y-61070794D01*
X137582183Y-61265408D01*
X137550174Y-61467508D01*
X135150674Y-61467508D01*
X135150674Y-61467474D01*
X135133567Y-61359469D01*
X135118651Y-61265291D01*
X135084398Y-61159871D01*
X135055394Y-61070607D01*
X135055392Y-61070604D01*
X135055392Y-61070602D01*
X134962593Y-60888476D01*
X134962461Y-60888216D01*
X134930266Y-60843903D01*
X134842145Y-60722612D01*
X134697387Y-60577854D01*
X134531787Y-60457541D01*
X134531786Y-60457540D01*
X134531784Y-60457539D01*
X134474827Y-60428517D01*
X134349397Y-60364607D01*
X134154708Y-60301348D01*
X133980169Y-60273704D01*
X133952526Y-60269326D01*
X133747822Y-60269326D01*
X133723503Y-60273177D01*
X133545639Y-60301348D01*
X133350950Y-60364607D01*
X133168560Y-60457541D01*
X133002960Y-60577854D01*
X132858202Y-60722612D01*
X132737889Y-60888212D01*
X132644955Y-61070602D01*
X132581696Y-61265291D01*
X132549674Y-61467474D01*
X119531127Y-61467474D01*
X119675908Y-61362284D01*
X120676647Y-60635203D01*
X120676646Y-60635203D01*
X120676654Y-60635198D01*
X120721114Y-60594976D01*
X120800646Y-60475024D01*
X120843160Y-60337525D01*
X120845216Y-60193618D01*
X120822357Y-60111445D01*
X120823355Y-60041585D01*
X120861964Y-59983352D01*
X120925928Y-59955237D01*
X120961215Y-59955740D01*
X121031298Y-59966841D01*
X121031300Y-59966841D01*
X121251741Y-59966841D01*
X121251742Y-59966841D01*
X121469471Y-59932356D01*
X121679126Y-59864236D01*
X121875542Y-59764156D01*
X122053885Y-59634583D01*
X122209762Y-59478706D01*
X122339335Y-59300363D01*
X122439415Y-59103947D01*
X122507535Y-58894292D01*
X122542020Y-58676563D01*
X122542020Y-58456119D01*
X122507535Y-58238390D01*
X122439415Y-58028735D01*
X122439415Y-58028734D01*
X122404757Y-57960716D01*
X122339335Y-57832319D01*
X122295686Y-57772241D01*
X122209767Y-57653982D01*
X122209763Y-57653977D01*
X122053883Y-57498097D01*
X122053878Y-57498093D01*
X121875545Y-57368528D01*
X121875544Y-57368527D01*
X121875542Y-57368526D01*
X121796073Y-57328034D01*
X121679126Y-57268445D01*
X121679123Y-57268444D01*
X121469472Y-57200326D01*
X121360606Y-57183083D01*
X121251742Y-57165841D01*
X121031298Y-57165841D01*
X120958721Y-57177336D01*
X120813567Y-57200326D01*
X120603916Y-57268444D01*
X120603913Y-57268445D01*
X120407494Y-57368528D01*
X120229161Y-57498093D01*
X120229156Y-57498097D01*
X120073276Y-57653977D01*
X120073272Y-57653982D01*
X119943707Y-57832315D01*
X119843624Y-58028734D01*
X119843623Y-58028737D01*
X119775505Y-58238388D01*
X119764405Y-58308470D01*
X119734475Y-58371604D01*
X119675164Y-58408535D01*
X119605301Y-58407537D01*
X119573410Y-58392418D01*
X119502327Y-58345287D01*
X119383251Y-58308470D01*
X119364826Y-58302773D01*
X119364825Y-58302772D01*
X119364822Y-58302772D01*
X119220922Y-58300716D01*
X119220918Y-58300717D01*
X119082261Y-58339289D01*
X119030273Y-58369138D01*
X119030260Y-58369147D01*
X117496586Y-59483428D01*
X117496572Y-59483440D01*
X117452122Y-59523653D01*
X117372588Y-59643607D01*
X117330073Y-59781110D01*
X117330073Y-59781111D01*
X117328017Y-59925010D01*
X112341828Y-59925010D01*
X112726332Y-59540505D01*
X112729186Y-59537743D01*
X113550271Y-58768713D01*
X113553175Y-58766081D01*
X114399018Y-58024295D01*
X114402015Y-58021753D01*
X115271635Y-57308075D01*
X115274768Y-57305589D01*
X116167247Y-56620764D01*
X116170456Y-56618384D01*
X117084870Y-55963125D01*
X117088141Y-55960861D01*
X118023528Y-55335855D01*
X118026865Y-55333704D01*
X118982188Y-54739646D01*
X118985587Y-54737609D01*
X119462855Y-54462058D01*
X126666731Y-54462058D01*
X126666731Y-54528816D01*
X126666731Y-54717594D01*
X126678628Y-54792706D01*
X126706706Y-54969984D01*
X126785668Y-55213009D01*
X126785669Y-55213012D01*
X126849748Y-55338772D01*
X126901681Y-55440696D01*
X127051881Y-55647428D01*
X127232572Y-55828119D01*
X127439304Y-55978319D01*
X127537036Y-56028116D01*
X127666987Y-56094330D01*
X127666990Y-56094331D01*
X127788502Y-56133812D01*
X127910017Y-56173294D01*
X128162406Y-56213269D01*
X128162407Y-56213269D01*
X128417941Y-56213269D01*
X128417942Y-56213269D01*
X128670331Y-56173294D01*
X128913360Y-56094330D01*
X129141044Y-55978319D01*
X129347776Y-55828119D01*
X129528467Y-55647428D01*
X129678667Y-55440696D01*
X129794678Y-55213012D01*
X129873642Y-54969983D01*
X129913617Y-54717594D01*
X129913617Y-54462058D01*
X129873642Y-54209669D01*
X129818800Y-54040880D01*
X129794679Y-53966642D01*
X129794678Y-53966639D01*
X129678666Y-53738955D01*
X129673774Y-53732222D01*
X129528467Y-53532224D01*
X129347776Y-53351533D01*
X129141044Y-53201333D01*
X128913360Y-53085321D01*
X128913357Y-53085320D01*
X128670332Y-53006358D01*
X128541974Y-52986028D01*
X128417942Y-52966383D01*
X128162406Y-52966383D01*
X128078276Y-52979708D01*
X127910015Y-53006358D01*
X127666990Y-53085320D01*
X127666987Y-53085321D01*
X127439303Y-53201333D01*
X127323706Y-53285320D01*
X127232572Y-53351533D01*
X127232570Y-53351535D01*
X127232569Y-53351535D01*
X127051883Y-53532221D01*
X127051883Y-53532222D01*
X127051881Y-53532224D01*
X127037851Y-53551535D01*
X126901681Y-53738955D01*
X126785669Y-53966639D01*
X126785668Y-53966642D01*
X126706706Y-54209667D01*
X126692968Y-54296408D01*
X126666731Y-54462058D01*
X119462855Y-54462058D01*
X119959866Y-54175108D01*
X119963311Y-54173194D01*
X120955434Y-53642893D01*
X120959000Y-53641061D01*
X121967927Y-53143514D01*
X121971546Y-53141802D01*
X122996231Y-52677523D01*
X122999875Y-52675944D01*
X124039210Y-52245436D01*
X124042931Y-52243966D01*
X125095752Y-51847713D01*
X125099530Y-51846361D01*
X126164789Y-51484754D01*
X126168536Y-51483550D01*
X127245117Y-51156973D01*
X127248895Y-51155894D01*
X128335524Y-50864732D01*
X128339435Y-50863752D01*
X129435036Y-50608294D01*
X129438873Y-50607466D01*
X130542205Y-50388000D01*
X130546125Y-50387286D01*
X131656085Y-50204031D01*
X131660034Y-50203445D01*
X132775364Y-50056609D01*
X132779282Y-50056158D01*
X133898811Y-49945895D01*
X133902848Y-49945565D01*
X135025341Y-49871992D01*
X135029363Y-49871793D01*
X136153686Y-49834987D01*
X136157743Y-49834921D01*
X137282605Y-49834921D01*
X137286662Y-49834987D01*
G37*
%TD.AperFunction*%
%TD*%
M02*
